<?xml version="1.0" encoding="utf-8"?>
<!-- Generator: Adobe Illustrator 27.5.0, SVG Export Plug-In . SVG Version: 6.00 Build 0)  -->
<svg version="1.1" xmlns="http://www.w3.org/2000/svg" xmlns:xlink="http://www.w3.org/1999/xlink" x="0px" y="0px"
	 viewBox="0 0 600 500" style="enable-background:new 0 0 600 500;" xml:space="preserve">

<g id="OBJECTS">
	<g>
		<g>
			<g>
				<a class="orgaos" name="ovários" code="1"><path style="fill:#FFA0B4;" d="M74.964,129.409c0,0,3-13.665,13.332-17.664c10.332-3.999,17.997,5.999,25.996,1.667
					c7.999-4.333,7.771-24.877,11.438-23.877c3.666,1,6.893,15.211,5.893,16.211c-1,1-9.332,2-12.332,9.665
					c-3,7.666,5.333,23.997-13.998,35.328c-19.331,11.332-32.662-11.332-32.662-11.332L74.964,129.409z"/></a>
				<a class="orgaos" name="ovários" code="1"><path style="fill:#FFA0B4;" d="M261.702,129.409c0,0-3-13.665-13.332-17.664c-10.332-3.999-17.997,5.999-25.996,1.667
					c-7.999-4.333-10.104-24.877-13.77-23.877c-3.666,1-4.56,15.211-3.561,16.211c1,1,9.332,2,12.332,9.665
					c3,7.666-5.333,23.997,13.998,35.328c19.331,11.332,32.662-11.332,32.662-11.332L261.702,129.409z"/></a>
				<a class="orgaos" name="miométrio" code="5"><path style="fill:#FF7180;" d="M120.37,70.498c0,0,10.459,5.578,15.34,3.835c4.881-1.743,12.9-13.946,29.286-15.689
					c16.386-1.743,27.194,14.992,33.121,14.992c5.927,0,14.643-3.486,16.386-2.44c1.743,1.046,11.157,14.295,11.157,14.295
					s-14.294,5.578-15.689,16.386c-1.395,10.808,1.743,28.938-3.138,37.305c-4.881,8.367-10.459,8.019-10.111,13.946
					c0.349,5.927,3.486,11.157,2.092,18.827c-1.395,7.67-13.249,13.249-12.9,22.662c0.349,9.413,5.927,32.076,5.23,38.003h-44.627
					c0,0,9.762-34.516,6.276-40.792c-3.486-6.276-8.367-10.808-10.459-18.478c-2.092-7.67,2.44-19.873-0.697-24.754
					c-3.138-4.881-9.762-5.927-11.505-12.9c-1.743-6.973-0.349-35.213-2.441-38.7c-2.092-3.487-10.459-9.065-10.459-9.065
					L120.37,70.498z"/></a>
				<a class="orgaos" name="tubas" code="2"><path style="fill:#D92756;" d="M36.473,115.059c-7.309-28.02,14.213-51.166,32.893-54.821c18.68-3.655,60.1,5.685,59.694,10.964
					c-0.406,5.279-1.624,20.304-8.528,20.71c-6.903,0.406-48.324-15.837-58.882-4.467c-10.558,11.37-4.873,33.299,4.873,36.547
					c9.746,3.249,12.588-12.995,17.868-8.934c5.279,4.061-7.309,12.182-2.843,13.401c4.467,1.218,6.903-6.091,11.37-2.03
					c4.467,4.061-8.934,6.903-5.279,10.152c3.655,3.249,12.995-0.406,9.34,6.091c-3.655,6.497-12.182-3.249-14.213,0.406
					c-2.03,3.655,12.589,8.122,6.091,11.776c-6.497,3.655-13.807-5.279-13.807-5.279S43.783,143.079,36.473,115.059z"/></a>
				<a class="orgaos" name="tubas" code="2"><path style="fill:#D92756;" d="M302.621,115.059c7.309-28.02-14.213-51.166-32.893-54.821
					c-18.68-3.655-60.1,5.685-59.694,10.964c0.406,5.279,1.624,20.304,8.528,20.71c6.903,0.406,48.324-15.837,58.882-4.467
					c10.558,11.37,4.873,33.299-4.873,36.547c-9.746,3.249-12.589-12.995-17.867-8.934c-5.279,4.061,7.309,12.182,2.842,13.401
					c-4.467,1.218-6.903-6.091-11.37-2.03c-4.467,4.061,8.934,6.903,5.279,10.152c-3.655,3.249-12.994-0.406-9.34,6.091
					c3.655,6.497,12.182-3.249,14.213,0.406c2.03,3.655-12.589,8.122-6.091,11.776c6.497,3.655,13.807-5.279,13.807-5.279
					S295.312,143.079,302.621,115.059z"/></a>
				<a class="orgaos" name="útero" code="3"><path style="fill:#D92756;" d="M117.283,74.857c0,0,29.475,12.821,46.124,13.633c16.649,0.812,49.394-14.75,49.394-14.75
					l4.802,9.261c0,0-21.953,0.686-24.011,18.18c-1.266,10.761,8.967,21.999,4.094,30.932c-4.873,8.934-25.132,15.283-25.944,19.75
					c-0.812,4.467,0,28.988,0,28.988s18.985-8.384,19.391-3.917c0.406,4.467-10.563,9.33-10.969,11.36
					c-0.406,2.03-0.605,3.707-0.605,3.707l-17.068,0.142l-2.164-6.428c0,0-8.578-4.692-8.172-9.565
					c0.406-4.873,15.865,7.247,16.649,5.68c2.187-4.374,1.428-27.742-0.196-29.772c-1.624-2.03-23.906-7.832-27.154-15.547
					c-3.249-7.715,3.402-35.512,1.372-38.761c-2.03-3.249-26.761-15.586-26.761-15.586L117.283,74.857z"/></a>
				<a class="orgaos" name="vagina" code="4"><path style="fill:#D92756;" d="M183.238,224.565c-0.494-1.938-2.823-3.203-2.823-3.203s2.971-1.893,2.518-4.402
					c-0.355-1.968-1.181-5.206-1.181-5.206s1.923-2.79,1.429-5.213c-0.495-2.423-2.473-4.361-2.473-4.361s2.225-2.908,1.483-4.846
					c-0.742-1.938-2.473-3.392-2.473-3.392s1.978-4.119,0.247-6.057c-1.232-1.38-6.098-1.532-8.799-1.505
					c-2.701-0.027-7.567,0.124-8.799,1.505c-1.731,1.938,0.247,6.057,0.247,6.057s-1.731,1.454-2.473,3.392
					c-0.742,1.938,1.484,4.846,1.484,4.846s-1.978,1.938-2.473,4.361c-0.495,2.423,1.429,5.213,1.429,5.213
					s-0.826,3.238-1.181,5.206c-0.453,2.51,2.519,4.402,2.519,4.402s-2.328,1.264-2.823,3.203c-0.494,1.938,0.304,7.66,0.304,7.66
					h9.934h3.666h9.933C182.934,232.225,183.733,226.503,183.238,224.565z"/></a>
			</g>
			
				<line style="fill:none;stroke:#1D223A;stroke-width:1.5;stroke-miterlimit:10;" x1="162.98" y1="221.362" x2="180.104" y2="221.362"/>
			
				<line style="fill:none;stroke:#1D223A;stroke-width:1.5;stroke-miterlimit:10;" x1="160.583" y1="211.754" x2="181.753" y2="211.754"/>
			
				<line style="fill:none;stroke:#1D223A;stroke-width:1.5;stroke-miterlimit:10;" x1="161.627" y1="202.18" x2="180.709" y2="202.18"/>
			
				<line style="fill:none;stroke:#1D223A;stroke-width:1.5;stroke-miterlimit:10;" x1="162.616" y1="193.942" x2="179.72" y2="193.942"/>
		</g>
		<path style="fill:none;stroke:#1D223A;stroke-width:1.5;stroke-miterlimit:10;" d="M65.186,85.267c0,0,4.595-3.144,14.269-2.177
			c9.674,0.967,39.42,10.157,43.289,9.19c3.869-0.967,8.038-17.005,6.316-21.078c-1.721-4.073-35.821-13.747-40.657-11.812"/>
		<path style="fill:none;stroke:#1D223A;stroke-width:1.5;stroke-miterlimit:10;" d="M232.78,61.809c0,0-22.274,5.002-22.745,9.393
			c-0.471,4.391,2.291,20.584,8.528,20.71c6.237,0.126,26.068-8.58,38.16-7.854"/>
		<path style="fill:none;stroke:#1D223A;stroke-width:1.5;stroke-miterlimit:10;" d="M213.433,94.215c0,0-3.386,2.997-3.386,12.817
			c0,12.334,1.451,31.681-7.013,38.21c-8.464,6.53-8.017,9.004-4.595,16.929c4.595,10.641-3.144,19.105-9.432,22.007"/>
	</g>
</g>
</svg>
