<?xml version="1.0" encoding="UTF-8" standalone="no"?>
<svg
   xmlns:dc="http://purl.org/dc/elements/1.1/"
   xmlns:cc="http://creativecommons.org/ns#"
   xmlns:rdf="http://www.w3.org/1999/02/22-rdf-syntax-ns#"
   xmlns:svg="http://www.w3.org/2000/svg"
   xmlns="http://www.w3.org/2000/svg"
   xmlns:xlink="http://www.w3.org/1999/xlink"
   xmlns:sodipodi="http://sodipodi.sourceforge.net/DTD/sodipodi-0.dtd"
   xmlns:inkscape="http://www.inkscape.org/namespaces/inkscape"
   id="svg2"
   sodipodi:version="0.32"
   inkscape:version="0.92.4 (5da689c313, 2019-01-14)"
   width="556.52295"
   height="280.01059"
   version="1.0"
   sodipodi:docname="Human male reproductive system-es.svg"
   inkscape:output_extension="org.inkscape.output.svg.inkscape"
   style="display:inline"
   inkscape:export-filename="D:\human\wiki\bitmap.png"
   inkscape:export-xdpi="120"
   inkscape:export-ydpi="120">
  <title
     id="title1312">Human male reproductive system</title>
  <metadata
     id="metadata7">
    <rdf:RDF>
      <cc:Work
         rdf:about="">
        <dc:format>image/svg+xml</dc:format>
        <dc:type
           rdf:resource="http://purl.org/dc/dcmitype/StillImage" />
        <dc:title>Human male reproductive system</dc:title>
        <dc:date />
        <dc:creator>
          <cc:Agent>
            <dc:title />
          </cc:Agent>
        </dc:creator>
        <dc:source />
        <dc:relation />
        <dc:description />
        <cc:license
           rdf:resource="http://www.gnu.org/copyleft/fdl.html" />
      </cc:Work>
    </rdf:RDF>
  </metadata>
  <defs
     id="defs5">
    <linearGradient
       inkscape:collect="always"
       id="linearGradient1207">
      <stop
         style="stop-color:#a0cae8;stop-opacity:0"
         offset="0"
         id="stop1203" />
      <stop
         style="stop-color:#a0cae8;stop-opacity:0.05"
         offset="0.41744426"
         id="stop1213" />
      <stop
         style="stop-color:#a0cae8;stop-opacity:0.6714285"
         offset="1"
         id="stop1205" />
    </linearGradient>
    <linearGradient
       inkscape:collect="always"
       id="linearGradient1326">
      <stop
         style="stop-color:#a0c8e7;stop-opacity:1;"
         offset="0"
         id="stop1322" />
      <stop
         style="stop-color:#a0c8e7;stop-opacity:0;"
         offset="1"
         id="stop1324" />
    </linearGradient>
    <linearGradient
       id="linearGradient3790">
      <stop
         style="stop-color:#7e3621;stop-opacity:1"
         offset="0"
         id="stop3792" />
      <stop
         style="stop-color:#d85d39;stop-opacity:1"
         offset="1"
         id="stop3794" />
    </linearGradient>
    <linearGradient
       inkscape:collect="always"
       id="linearGradient3763">
      <stop
         style="stop-color: rgb(134, 84, 35); stop-opacity: 1;"
         offset="0"
         id="stop3765" />
      <stop
         style="stop-color: rgb(134, 84, 35); stop-opacity: 0;"
         offset="1"
         id="stop3767" />
    </linearGradient>
    <linearGradient
       id="linearGradient3526">
      <stop
         style="stop-color:#42332d;stop-opacity:1"
         offset="0"
         id="stop3528" />
      <stop
         style="stop-color:#de6644;stop-opacity:1"
         offset="1"
         id="stop3530" />
    </linearGradient>
    <linearGradient
       id="linearGradient3488">
      <stop
         style="stop-color: rgb(228, 196, 169); stop-opacity: 1;"
         offset="0"
         id="stop3490" />
      <stop
         style="stop-color: rgb(226, 139, 63); stop-opacity: 1;"
         offset="1"
         id="stop3492" />
    </linearGradient>
    <linearGradient
       id="linearGradient3470">
      <stop
         style="stop-color:#ff8b6e;stop-opacity:1"
         offset="0"
         id="stop3472" />
      <stop
         style="stop-color: rgb(242, 240, 225); stop-opacity: 0.632479;"
         offset="1"
         id="stop3474" />
    </linearGradient>
    <linearGradient
       inkscape:collect="always"
       id="linearGradient3444">
      <stop
         style="stop-color: rgb(156, 180, 172); stop-opacity: 1;"
         offset="0"
         id="stop3446" />
      <stop
         style="stop-color: rgb(156, 180, 172); stop-opacity: 0;"
         offset="1"
         id="stop3448" />
    </linearGradient>
    <linearGradient
       inkscape:collect="always"
       id="linearGradient3436">
      <stop
         style="stop-color: rgb(242, 240, 225); stop-opacity: 1;"
         offset="0"
         id="stop3438" />
      <stop
         style="stop-color: rgb(242, 240, 225); stop-opacity: 0;"
         offset="1"
         id="stop3440" />
    </linearGradient>
    <linearGradient
       id="linearGradient3356">
      <stop
         style="stop-color:#f6ddc7;stop-opacity:1"
         offset="0"
         id="stop3358" />
      <stop
         style="stop-color: rgb(0, 0, 0); stop-opacity: 1;"
         offset="1"
         id="stop3360" />
    </linearGradient>
    <linearGradient
       inkscape:collect="always"
       id="linearGradient3185">
      <stop
         style="stop-color:#caa285;stop-opacity:1"
         offset="0"
         id="stop3187" />
      <stop
         style="stop-color: rgb(213, 156, 82); stop-opacity: 0;"
         offset="1"
         id="stop3189" />
    </linearGradient>
    <linearGradient
       inkscape:collect="always"
       xlink:href="#linearGradient3185"
       id="linearGradient3191"
       x1="235.88737"
       y1="227.28377"
       x2="235.48529"
       y2="298.38129"
       gradientUnits="userSpaceOnUse" />
    <radialGradient
       inkscape:collect="always"
       xlink:href="#linearGradient3356"
       id="radialGradient3370"
       cx="155.34476"
       cy="253.67941"
       fx="155.34476"
       fy="253.67941"
       r="19.237133"
       gradientTransform="matrix(4.1220986,0.23116011,-0.25055365,4.4679264,-630.47405,-914.22125)"
       gradientUnits="userSpaceOnUse" />
    <linearGradient
       inkscape:collect="always"
       xlink:href="#linearGradient3436"
       id="linearGradient3442"
       x1="136.82376"
       y1="93.654625"
       x2="127.64858"
       y2="87.028778"
       gradientUnits="userSpaceOnUse"
       gradientTransform="rotate(11.333291,64.349415,105.20711)" />
    <linearGradient
       inkscape:collect="always"
       xlink:href="#linearGradient3444"
       id="linearGradient3450"
       x1="136.82376"
       y1="93.654625"
       x2="127.64858"
       y2="87.028778"
       gradientUnits="userSpaceOnUse"
       gradientTransform="rotate(11.333291,64.349415,105.20711)" />
    <linearGradient
       inkscape:collect="always"
       xlink:href="#linearGradient3526"
       id="linearGradient3532"
       x1="267.9928"
       y1="96.634018"
       x2="312.86185"
       y2="130.12317"
       gradientUnits="userSpaceOnUse" />
    <linearGradient
       inkscape:collect="always"
       xlink:href="#linearGradient3763"
       id="linearGradient3769"
       x1="291.86755"
       y1="152.59578"
       x2="274.89337"
       y2="135.85019"
       gradientUnits="userSpaceOnUse"
       gradientTransform="matrix(0.8673165,-0.34023303,0.33846473,0.87184779,-27.852829,89.038113)" />
    <linearGradient
       inkscape:collect="always"
       xlink:href="#linearGradient3763"
       id="linearGradient3781"
       gradientUnits="userSpaceOnUse"
       x1="317.83829"
       y1="113.16296"
       x2="292.21936"
       y2="110.14057"
       gradientTransform="rotate(0.03137425,34727.605,-40054.943)" />
    <linearGradient
       inkscape:collect="always"
       xlink:href="#linearGradient3763"
       id="linearGradient3785"
       gradientUnits="userSpaceOnUse"
       x1="332.66431"
       y1="83.858994"
       x2="298.18225"
       y2="86.586586"
       gradientTransform="rotate(-11.431485,204.03392,213.09731)" />
    <linearGradient
       inkscape:collect="always"
       xlink:href="#linearGradient3790"
       id="linearGradient3812"
       x1="213.34578"
       y1="85.1576"
       x2="213.34578"
       y2="132.72194"
       gradientUnits="userSpaceOnUse"
       gradientTransform="matrix(1.0076909,-0.29282169,0.27500687,0.94638459,-40.5124,60.154863)" />
    <linearGradient
       inkscape:collect="always"
       xlink:href="#linearGradient3470"
       id="linearGradient3954"
       gradientUnits="userSpaceOnUse"
       gradientTransform="rotate(2.0126717,84.221381,-47.947222)"
       x1="125.02467"
       y1="82.710526"
       x2="139.19411"
       y2="103.7776" />
    <filter
       inkscape:collect="always"
       id="filter4463"
       color-interpolation-filters="sRGB">
      <feGaussianBlur
         inkscape:collect="always"
         stdDeviation="1.1792256"
         id="feGaussianBlur4465" />
    </filter>
    <filter
       inkscape:collect="always"
       id="filter4471"
       x="-0.047257733"
       width="1.0945154"
       y="-0.36207104"
       height="1.7241421"
       color-interpolation-filters="sRGB">
      <feGaussianBlur
         inkscape:collect="always"
         stdDeviation="0.8075368"
         id="feGaussianBlur4473" />
    </filter>
    <filter
       inkscape:collect="always"
       id="filter4475"
       color-interpolation-filters="sRGB">
      <feGaussianBlur
         inkscape:collect="always"
         stdDeviation="0.8075368"
         id="feGaussianBlur4477" />
    </filter>
    <linearGradient
       inkscape:collect="always"
       xlink:href="#linearGradient1326"
       id="linearGradient1328"
       x1="140.51338"
       y1="55.911327"
       x2="109.77269"
       y2="-22.217731"
       gradientUnits="userSpaceOnUse" />
    <filter
       inkscape:collect="always"
       style="color-interpolation-filters:sRGB"
       id="filter1669"
       x="-0.036333241"
       width="1.0726665"
       y="-0.047226973"
       height="1.0944539">
      <feGaussianBlur
         inkscape:collect="always"
         stdDeviation="0.69742787"
         id="feGaussianBlur1671" />
    </filter>
    <radialGradient
       inkscape:collect="always"
       xlink:href="#linearGradient1207"
       id="radialGradient1211"
       cx="279.3262"
       cy="45.72604"
       fx="279.3262"
       fy="45.72604"
       r="11.629823"
       gradientTransform="matrix(-1.4325778,-0.89278152,1.5835523,-2.5410051,592.05631,412.01376)"
       gradientUnits="userSpaceOnUse" />
    <radialGradient
       inkscape:collect="always"
       xlink:href="#linearGradient1210"
       id="radialGradient1212"
       cx="167.61221"
       cy="226.99866"
       fx="167.61221"
       fy="226.99866"
       r="4.0953069"
       gradientTransform="matrix(1,0,0,0.74450051,4.5788861,52.294084)"
       gradientUnits="userSpaceOnUse" />
    <linearGradient
       inkscape:collect="always"
       id="linearGradient1210">
      <stop
         style="stop-color:#ffcf96;stop-opacity:1"
         offset="0"
         id="stop1206" />
      <stop
         style="stop-color:#cf8b4e;stop-opacity:1"
         offset="1"
         id="stop1208" />
    </linearGradient>
    <filter
       inkscape:collect="always"
       id="filter4459"
       color-interpolation-filters="sRGB">
      <feGaussianBlur
         inkscape:collect="always"
         stdDeviation="0.47471265"
         id="feGaussianBlur4461" />
    </filter>
    <filter
       inkscape:collect="always"
       style="color-interpolation-filters:sRGB"
       id="filter1239"
       x="-0.054492235"
       width="1.09166"
       y="-0.037726164"
       height="1.0683218">
      <feGaussianBlur
         inkscape:collect="always"
         stdDeviation="0.46957051"
         id="feGaussianBlur1241" />
    </filter>
    <filter
       inkscape:collect="always"
       style="color-interpolation-filters:sRGB"
       id="filter1281"
       x="-0.14515561"
       width="1.2903112"
       y="-0.080691166"
       height="1.1613823">
      <feGaussianBlur
         inkscape:collect="always"
         stdDeviation="0.73555794"
         id="feGaussianBlur1283" />
    </filter>
    <filter
       inkscape:collect="always"
       style="color-interpolation-filters:sRGB"
       id="filter1280"
       x="-0.10854596"
       width="1.2170919"
       y="-0.17259455"
       height="1.3451891">
      <feGaussianBlur
         inkscape:collect="always"
         stdDeviation="0.79980626"
         id="feGaussianBlur1282" />
    </filter>
    <filter
       inkscape:collect="always"
       style="color-interpolation-filters:sRGB"
       id="filter1280-6"
       x="-0.10854596"
       width="1.2170919"
       y="-0.17259455"
       height="1.3451891">
      <feGaussianBlur
         inkscape:collect="always"
         stdDeviation="0.79980626"
         id="feGaussianBlur1282-4" />
    </filter>
    <filter
       inkscape:collect="always"
       style="color-interpolation-filters:sRGB"
       id="filter1280-8"
       x="-0.10854596"
       width="1.2170919"
       y="-0.17259455"
       height="1.3451891">
      <feGaussianBlur
         inkscape:collect="always"
         stdDeviation="0.79980626"
         id="feGaussianBlur1282-5" />
    </filter>
    <filter
       inkscape:collect="always"
       style="color-interpolation-filters:sRGB"
       id="filter1280-9"
       x="-0.10854596"
       width="1.2170919"
       y="-0.17259455"
       height="1.3451891">
      <feGaussianBlur
         inkscape:collect="always"
         stdDeviation="0.79980626"
         id="feGaussianBlur1282-9" />
    </filter>
    <filter
       inkscape:collect="always"
       style="color-interpolation-filters:sRGB"
       id="filter1280-1"
       x="-0.10854596"
       width="1.2170919"
       y="-0.17259455"
       height="1.3451891">
      <feGaussianBlur
         inkscape:collect="always"
         stdDeviation="0.79980626"
         id="feGaussianBlur1282-2" />
    </filter>
    <filter
       inkscape:collect="always"
       style="color-interpolation-filters:sRGB"
       id="filter1280-3"
       x="-0.10854596"
       width="1.2170919"
       y="-0.17259455"
       height="1.3451891">
      <feGaussianBlur
         inkscape:collect="always"
         stdDeviation="0.79980626"
         id="feGaussianBlur1282-03" />
    </filter>
    <filter
       inkscape:collect="always"
       style="color-interpolation-filters:sRGB"
       id="filter1280-43"
       x="-0.10854596"
       width="1.2170919"
       y="-0.17259455"
       height="1.3451891">
      <feGaussianBlur
         inkscape:collect="always"
         stdDeviation="0.79980626"
         id="feGaussianBlur1282-05" />
    </filter>
    <filter
       inkscape:collect="always"
       style="color-interpolation-filters:sRGB"
       id="filter1280-43-0"
       x="-0.10854596"
       width="1.2170919"
       y="-0.17259455"
       height="1.3451891">
      <feGaussianBlur
         inkscape:collect="always"
         stdDeviation="0.79980626"
         id="feGaussianBlur1282-05-2" />
    </filter>
    <filter
       inkscape:collect="always"
       style="color-interpolation-filters:sRGB"
       id="filter1280-43-0-1"
       x="-0.10854596"
       width="1.2170919"
       y="-0.17259455"
       height="1.3451891">
      <feGaussianBlur
         inkscape:collect="always"
         stdDeviation="0.79980626"
         id="feGaussianBlur1282-05-2-9" />
    </filter>
    <filter
       inkscape:collect="always"
       style="color-interpolation-filters:sRGB"
       id="filter1280-43-0-1-2"
       x="-0.10854596"
       width="1.2170919"
       y="-0.17259455"
       height="1.3451891">
      <feGaussianBlur
         inkscape:collect="always"
         stdDeviation="0.79980626"
         id="feGaussianBlur1282-05-2-9-9" />
    </filter>
    <filter
       inkscape:collect="always"
       style="color-interpolation-filters:sRGB"
       id="filter1280-43-0-1-2-5"
       x="-0.10854596"
       width="1.2170919"
       y="-0.17259455"
       height="1.3451891">
      <feGaussianBlur
         inkscape:collect="always"
         stdDeviation="0.79980626"
         id="feGaussianBlur1282-05-2-9-9-2" />
    </filter>
    <filter
       inkscape:collect="always"
       style="color-interpolation-filters:sRGB"
       id="filter1280-43-0-1-2-2"
       x="-0.10854596"
       width="1.2170919"
       y="-0.17259455"
       height="1.3451891">
      <feGaussianBlur
         inkscape:collect="always"
         stdDeviation="0.79980626"
         id="feGaussianBlur1282-05-2-9-9-5" />
    </filter>
    <filter
       inkscape:collect="always"
       style="color-interpolation-filters:sRGB"
       id="filter1280-43-0-1-2-2-1"
       x="-0.10854596"
       width="1.2170919"
       y="-0.17259455"
       height="1.3451891">
      <feGaussianBlur
         inkscape:collect="always"
         stdDeviation="0.79980626"
         id="feGaussianBlur1282-05-2-9-9-5-8" />
    </filter>
    <filter
       inkscape:collect="always"
       style="color-interpolation-filters:sRGB"
       id="filter1280-43-0-1-2-2-6"
       x="-0.10854596"
       width="1.2170919"
       y="-0.17259455"
       height="1.3451891">
      <feGaussianBlur
         inkscape:collect="always"
         stdDeviation="0.79980626"
         id="feGaussianBlur1282-05-2-9-9-5-5" />
    </filter>
    <filter
       inkscape:collect="always"
       style="color-interpolation-filters:sRGB"
       id="filter1280-43-0-1-2-2-65"
       x="-0.10854596"
       width="1.2170919"
       y="-0.17259455"
       height="1.3451891">
      <feGaussianBlur
         inkscape:collect="always"
         stdDeviation="0.79980626"
         id="feGaussianBlur1282-05-2-9-9-5-9" />
    </filter>
  </defs>
  <sodipodi:namedview
     inkscape:window-height="1051"
     inkscape:window-width="1920"
     inkscape:pageshadow="2"
     inkscape:pageopacity="0.0"
     guidetolerance="10.0"
     gridtolerance="10.0"
     objecttolerance="10.0"
     borderopacity="1.0"
     bordercolor="#666666"
     pagecolor="#ffffff"
     id="base"
     showgrid="false"
     showguides="true"
     inkscape:guide-bbox="true"
     inkscape:zoom="1.8021988"
     inkscape:cx="181.8093"
     inkscape:cy="172.02504"
     inkscape:window-x="-9"
     inkscape:window-y="-9"
     inkscape:current-layer="g1399"
     inkscape:window-maximized="1"
     fit-margin-top="-3"
     fit-margin-left="15"
     fit-margin-right="12"
     fit-margin-bottom="0"
     inkscape:document-rotation="0"
     inkscape:snap-global="false" />
  <g
     inkscape:groupmode="layer"
     id="layer20"
     inkscape:label="ref_photo"
     style="display:inline"
     transform="translate(-51.308246,1.5042398)" />


  <!--<g
     inkscape:groupmode="layer"
     id="layer3"
     inkscape:label="meat"
     style="display:inline"
     transform="translate(72.819666,-15.626298)">
    <path
       style="display:inline;fill:#f6e69c;fill-opacity:1;fill-rule:evenodd;stroke:#de8b41;stroke-width:1px;stroke-linecap:butt;stroke-linejoin:miter;stroke-opacity:1"
       d="m 98.3247,154.47693 c -5.751188,7.62825 -9.755077,15.31577 -13.272326,23.36949 -4.311689,9.8728 -8.517409,23.22104 -10.273842,24.80954 -2.098203,1.89759 -7.465032,5.3234 -7.224972,8.93155 2.121652,6.78056 3.822876,16.11739 5.384406,15.3313 0.76548,-1.05974 -2.449395,-10.64297 -3.333056,-14.96564 -0.433226,-2.11924 1.450636,-4.16193 3.318772,-5.54758 1.81718,-1.34786 2.883018,-2.0219 4.346676,-3.7652 0.561036,0.25692 0.374654,1.58829 0.340509,2.44349 -2.430824,2.12028 -7.12907,4.69726 -6.493268,6.50886 2.162935,6.16288 2.772526,12.58856 4.388606,17.4559 3.56799,10.74614 8.18001,13.55682 11.672795,14.38624 5.902382,1.40161 11.673479,-2.50307 13.76179,-4.75711 4.31425,-4.65661 7.11179,-7.85105 6.08153,-10.43147 -0.94485,-2.36652 -3.93315,-4.9356 -1.68888,-4.24636 l 1.7775,2.0525 c 0.72628,1.92222 4.23259,1.50874 0.0701,-2.46253 -2.49785,-2.58408 0.41382,-6.78715 1.45168,-13.33843 0.72227,-4.55924 2.42995,-9.13611 5.78369,-17.64811 1.94544,-4.93765 3.68982,-6.24338 5.46469,-8.42447 -0.3636,6.48036 -0.66602,10.45974 -1.1243,16.23375 -0.6431,8.10251 -6.36559,19.26077 0.46834,33.28433 6.83392,14.02356 24.06965,22.23309 36.68701,20.48313 6.37769,-0.88455 11.7919,-4.06742 15.95796,-10.26957 7.16984,-10.67396 -0.63274,-33.59302 14.33182,-39.56102 5.7569,-2.2959 12.77508,-0.33511 18.39081,-0.0272 7.79565,0.4274 17.33033,2.15497 29.35616,-0.60413 15.69691,-3.60137 25.35382,-13.45047 29.06961,-23.25597 1.24954,-3.29739 1.64715,-2.71148 3.86861,-4.00638 1.76712,-1.03007 2.40411,-1.76837 5.41182,-1.13336 2.38577,0.5037 13.80879,-0.74833 22.82125,-5.40795 9.39856,-4.85922 20.1737,-12.52596 28.20229,-25.67059 9.4158,-15.4158 13.99053,-32.79158 17.526,-57.102488 3.07469,-21.142391 0.98714,-24.492069 -2.79059,-42.837673 -1.69128,-8.213295 -8.22422,-22.733291 -11.45035,-30.812376 l -107.4897,-0.223918 c 9.64695,4.67596 37.176,14.493774 42.6916,18.236186 3.34798,2.271646 7.4082,5.812418 8.18665,8.268295 0.59553,1.878773 -3.44322,5.703431 -6.27225,9.174023 -2.27422,2.789963 -3.30353,9.859362 -0.76261,14.620207 2.01978,3.784411 3.30684,10.630914 3.39543,15.707766 0.0638,3.653975 -0.20557,8.974599 -0.68387,12.701112 -0.77919,6.070795 -6.28183,10.106656 -7.41861,9.754366 -2.40839,-0.74636 0.16166,-6.422703 -5.22899,-7.006438 -2.20341,-0.2386 -3.79429,1.906877 -4.90381,2.222826 -1.10952,0.31595 -2.13333,-1.53168 -1.62956,-3.680466 2.01013,-8.574026 -0.65723,-21.959514 -13.38353,-24.249403 -12.91275,-2.323439 -30.67586,-0.644868 -50.84189,2.004021 -12.51682,1.644134 -25.47649,6.760176 -31.07175,9.599963 -5.1276,2.60244 -10.53814,-3.324265 -16.59063,-9.021166 C 122.49031,60.196744 116.58041,26.104164 113.56805,13.389194 l -22.410693,0.114044 c 0,0 4.059987,38.523604 6.44569,55.907415 2.456233,17.897722 6.687653,32.859827 10.377663,50.633147 1.96441,9.46182 1.06701,20.21036 -9.65601,34.43313 z"
       id="path3194-8"
       inkscape:connector-curvature="0"
       sodipodi:nodetypes="sssccssccssssscccsscszssssssssssssccssssssssssssssccsss" />
  </g>-->
  <g
     inkscape:groupmode="layer"
     id="layer8"
     inkscape:label="pubic bone"
     style="display:inline"
     transform="translate(72.819666,-15.626298)">
    <a class="orgaos" name="ossos" code="2"><path
       style="display:inline;fill:url(#linearGradient3954);fill-opacity:1;fill-rule:evenodd;stroke:#eeac4a;stroke-width:0.5;stroke-miterlimit:4;stroke-dasharray:none;stroke-opacity:1"
       d="m 99.811055,13.528063 c 0.01379,1.181237 1.288395,17.206279 4.815255,36.252995 1.48157,8.001196 5.52827,21.020822 8.84948,28.070945 3.59972,7.641307 19.94708,35.133477 19.94708,35.133477 l 4.72999,-2.05041 1.76075,-6.20727 c 0,0 -6.40965,-6.316323 -8.67079,-11.920855 -2.25979,-5.601202 -4.60096,-15.613577 -7.58665,-23.919314 -3.31498,-9.2218 -9.4829,-19.781433 -13.02523,-28.404439 -2.91833,-7.104016 -5.00938,-12.419835 -7.35098,-26.873353 z"
       id="path3452"
       inkscape:connector-curvature="0"
       sodipodi:nodetypes="csscccssscc" /></a>
    <a class="orgaos" name="ossos" code="2"><path
       style="display:inline;fill:url(#linearGradient3442);fill-opacity:1;fill-rule:evenodd;stroke:url(#linearGradient3450);stroke-width:0.3;stroke-linecap:butt;stroke-linejoin:miter;stroke-miterlimit:4;stroke-dasharray:none;stroke-opacity:1"
       d="m 135.27141,116.85035 c 0,0 -3.92541,-7.03732 -6.73798,-11.25991 -2.81257,-4.22257 3.87318,-8.675802 5.42634,-7.29734 1.55317,1.378463 6.65172,7.12637 8.32238,7.91858 1.67065,0.79219 -6.89355,10.81461 -7.01074,10.63867 z"
       id="path3434"
       inkscape:connector-curvature="0" /></a>
    <a class="orgaos" name="ossos" code="2"><path
       id="path3424"
       style="display:inline;fill:#f5f0e2;fill-opacity:1;stroke:#eeac4a;stroke-width:0.424196;stroke-linecap:round;stroke-linejoin:round;stroke-miterlimit:4;stroke-dasharray:none;stroke-dashoffset:0;stroke-opacity:1"
       d="m 186.21328,151.56324 c -2.60423,2.67853 -14.52295,-1.57171 -20.02215,-4.67977 -6.05697,-3.42329 -10.40836,-6.10271 -18.03041,-11.36011 -14.465,-9.97742 -14.64889,-22.65342 -9.09219,-26.84971 5.96251,-4.50274 19.55825,-0.62711 32.48076,11.28063 12.9225,11.90775 19.87244,26.25188 14.66399,31.60896 z"
       sodipodi:nodetypes="ssssss" /></a>
  </g>-->
  <!--<g
     inkscape:groupmode="layer"
     id="layer11"
     inkscape:label="bones"
     style="display:inline"
     transform="translate(72.819666,-15.626298)">
    <a class="orgaos" name="ossos" code="2"><path
       style="display:inline;fill:#fae6c8;fill-opacity:1;fill-rule:evenodd;stroke:#eeac4a;stroke-width:1.14802px;stroke-linecap:butt;stroke-linejoin:miter;stroke-opacity:1"
       d="m 260.62172,26.132868 c 4.6781,1.649259 9.01365,4.422607 12.38812,6.628278 4.33865,2.835899 6.95705,4.080302 11.29972,8.432879 1.65132,-2.517572 5.181,-5.928638 5.95622,-6.630154 1.88421,-1.705077 2.5608,-2.432382 5.13937,-4.269469 -4.17258,-4.812231 -7.73834,-7.244368 -11.71508,-10.634126 -1.86607,-1.590627 -6.3668,-4.804252 -8.85457,-6.149025 -1.94896,-0.113216 -3.42441,-0.281888 -6.32135,-0.247004 -1.69109,4.739946 -6.02544,10.980772 -7.89243,12.868621 z"
       id="path3497"
       inkscape:connector-curvature="0"
       sodipodi:nodetypes="cscscsccc"
       inkscape:transform-center-x="-2.0352175"
       inkscape:transform-center-y="-0.66367481" /></a>
    <a class="orgaos" name="ossos" code="2"><path
       style="fill:#fae6c8;fill-opacity:1;fill-rule:evenodd;stroke:#eeac4a;stroke-width:1.07376px;stroke-linecap:butt;stroke-linejoin:miter;stroke-opacity:1"
       d="m 284.6281,41.942296 c 2.67209,4.015475 2.94546,4.696132 5.51468,8.800427 1.3313,2.126735 3.98513,5.956913 4.7637,8.693609 2.32076,-0.989403 4.11839,-2.159067 5.68731,-2.884959 1.56891,-0.725895 3.75291,-0.908748 5.95458,-2.136067 -0.58894,-3.236536 -2.35414,-6.081564 -4.41146,-10.358732 -3.07553,-6.394045 -2.74787,-7.763566 -5.75833,-11.946446 -1.918,1.629554 -4.05031,4.806167 -5.91436,6.02986 -1.86406,1.223694 -5.83612,3.802308 -5.83612,3.802308 z"
       id="path3499"
       sodipodi:nodetypes="cscscscsc"
       inkscape:connector-curvature="0" /></a>
    <a class="orgaos" name="ossos" code="2"><path
       style="fill:#fae6c8;fill-opacity:1;fill-rule:evenodd;stroke:#eeac4a;stroke-width:1.07376px;stroke-linecap:butt;stroke-linejoin:miter;stroke-opacity:1"
       d="m 298.62244,69.088505 c 1.0228,3.462825 1.49229,5.438616 2.31425,9.36016 3.38206,-0.906846 6.84462,-1.476116 9.51238,-2.446429 -0.43368,-3.680108 -0.75804,-5.916114 -1.46792,-9.838384 -0.60097,-3.320509 -0.51048,-6.37665 -1.652,-9.671167 -2.81584,1.393648 -4.11612,1.4105 -6.31868,2.490302 -1.36219,0.667814 -3.02088,0.439234 -5.611,1.428227 2.09371,3.875111 2.64541,6.721874 3.22297,8.677291 z"
       id="path3501"
       sodipodi:nodetypes="sccscscs"
       inkscape:connector-curvature="0" /></a>
    <a class="orgaos" name="ossos" code="2"><path
       style="fill:#fae6c8;fill-opacity:1;fill-rule:evenodd;stroke:#eeac4a;stroke-width:1.07376px;stroke-linecap:butt;stroke-linejoin:miter;stroke-opacity:1"
       d="m 305.74705,78.067872 c -1.28825,0.217094 -2.04813,0.533484 -4.35396,0.728326 -0.15242,2.326742 0.46305,5.527235 0.29209,7.067108 -0.16644,1.499076 -1.41281,6.641507 -0.0144,6.965256 1.3287,0.307615 4.69196,0.851785 6.97079,0.74747 1.57393,-0.07205 1.40374,-1.943244 1.5543,-5.579057 0.15057,-3.635813 -0.0829,-7.407702 0.14212,-10.917723 -1.84581,0.291401 -2.67776,0.666212 -4.59094,0.98862 z"
       id="path3503"
       sodipodi:nodetypes="scsssscs"
       inkscape:connector-curvature="0"
       inkscape:transform-center-x="-4.5667949"
       inkscape:transform-center-y="1.8101688" /></a>
    <a class="orgaos" name="ossos" code="2"><path
       id="path3507"
       style="fill:#fae6c8;fill-opacity:1;fill-rule:evenodd;stroke:#eeac4a;stroke-width:1.07376px;stroke-linecap:butt;stroke-linejoin:miter;stroke-opacity:1"
       d="m 299.6487,108.4418 c -1.96234,-1.38768 -2.02877,1.2427 -2.64704,2.2515 -0.27745,0.4527 -1.09523,2.26453 -1.99257,3.68901 -0.50542,0.80231 2.70556,2.66742 3.57005,3.02649 0.89902,0.13014 1.76296,-1.55881 3.10003,-3.24328 0.46498,-0.5858 3.26406,-2.66458 1.80677,-3.69511 -1.48681,-1.0514 -2.35042,-0.97721 -3.83724,-2.02861 z"
       sodipodi:nodetypes="ssscsss" /></a>
    <a class="orgaos" name="ossos" code="2"><path
       id="path1052"
       style="fill:#fae6c8;fill-opacity:1;fill-rule:evenodd;stroke:#eeac4a;stroke-width:1.07376px;stroke-linecap:butt;stroke-linejoin:miter;stroke-opacity:1"
       d="m 301.69852,94.87616 c -1.75848,-0.165123 -1.91626,4.029108 -2.1289,5.64258 -0.33781,2.56276 -1.41357,5.72723 0.0684,6.22656 1.59867,0.53866 3.79081,1.4816 5.44141,1.83008 1.96527,0.41492 1.82803,-4.70813 2.24805,-6.14063 0.5629,-1.91982 2.18637,-6.30302 0.9707,-6.742184 -1.61532,-0.583543 -4.82337,-0.649616 -6.59961,-0.816406 z" /></a>
    <a class="orgaos" name="ossos" code="2"><path
       style="fill:#fae6c8;fill-opacity:1;fill-rule:evenodd;stroke:#eeac4a;stroke-width:1.07376px;stroke-linecap:butt;stroke-linejoin:miter;stroke-opacity:1"
       d="m 291.03358,118.70622 c 1.09507,-1.11905 2.86641,-2.9301 3.24246,-2.65691 1.50138,1.09073 3.08417,2.34025 2.71423,2.92709 -0.41161,0.65295 -2.52226,2.46931 -3.52983,2.25859 -0.57762,-0.1208 -2.6609,-2.28961 -2.42686,-2.52877 z m 1.19984,3.52547 c -0.54118,0.39134 -2.29411,0.86145 -2.86343,0.93751 -1.46831,0.19614 -3.53837,-0.84492 -2.14428,-2.19952 0.4967,-0.48263 1.49922,-0.65718 2.30264,-1.20611 0.52015,-0.0485 2.14483,1.87883 2.70507,2.46812 z"
       id="path3509"
       sodipodi:nodetypes="ssssscsscc"
       inkscape:connector-curvature="0"
       inkscape:transform-center-x="-5.6141718"
       inkscape:transform-center-y="3.5204471" /></a>
    <a class="orgaos" name="ossos" code="2"><path
       style="fill:#fae6c8;fill-opacity:1;fill-rule:evenodd;stroke:#eeac4a;stroke-width:0.948069px;stroke-linecap:butt;stroke-linejoin:miter;stroke-opacity:1"
       d="m 293.96965,13.220986 c 2.12569,2.155601 5.86904,5.665091 7.34732,7.610197 3.04376,4.004947 6.38462,11.386031 10.39704,21.162716 6.7534,16.455374 6.80266,31.659238 6.71224,35.324328 -0.0904,3.665092 0.51762,3.576279 1.95918,-0.659038 1.44157,-4.235317 2.48787,-7.523705 1.35288,-9.051405 -1.13498,-1.527699 -0.79187,-5.008195 -0.32032,-6.797714 0.4716,-1.789518 0.66387,-5.034606 -0.51237,-7.555681 -1.17625,-2.521074 -1.88349,-7.428553 -1.54303,-12.128364 0.31753,-4.383099 -3.52248,-8.789224 -4.82641,-11.4645 -1.30394,-2.675279 -3.1295,-5.819695 -4.01,-8.625578 -0.719,-2.291282 -0.44405,-5.573698 -2.24101,-7.693471 z"
       id="path3511"
       inkscape:connector-curvature="0"
       sodipodi:nodetypes="csssssssssscc" /></a>
    <a class="orgaos" name="ossos" code="2"><path
       style="display:inline;fill:#fae6c8;fill-opacity:1;fill-rule:evenodd;stroke:#eeac4a;stroke-width:1.22857px;stroke-linecap:butt;stroke-linejoin:miter;stroke-opacity:1"
       d="m 227.11014,13.240639 c -0.50442,1.010073 5.77337,1.909076 9.54913,3.177468 8.03913,2.700585 22.03145,8.070389 23.32125,9.310032 2.80492,-5.489851 3.35449,-6.531219 4.31261,-8.44484 0.83148,-1.660705 1.56124,-2.884361 2.39782,-4.036842 z"
       id="path3497-4"
       inkscape:connector-curvature="0"
       sodipodi:nodetypes="cscscc"
       inkscape:transform-center-x="-2.2603714"
       inkscape:transform-center-y="-2.1700596" /></a>
  </g>-->


  <g
     inkscape:groupmode="layer"
     id="layer6"
     inkscape:label="penis"
     style="display:inline;opacity:1"
     transform="translate(72.819666,-15.626298)">
   <a class="orgaos" name="penis" code="5"><path
       id="path1079"
       style="display:inline;fill:#e54f68;fill-opacity:1;fill-rule:evenodd;stroke:#df8c41;stroke-width:0.5;stroke-linecap:butt;stroke-linejoin:miter;stroke-miterlimit:4;stroke-dasharray:none;stroke-opacity:1"
       inkscape:label="path3410"
       d="m 161.52429,184.2154 c 11.77633,3.10453 32.81057,8.14818 41.5806,8.4373 8.9256,0.29425 15.04233,0.97062 21.9978,-3.43867 4.85796,-3.07961 5.29573,-16.47553 1.20838,-19.24342 -2.26686,-1.53508 -4.83666,-1.25947 -7.42434,-1.39097 -2.67309,-0.13584 -7.94654,-1.58187 -12.3068,-2.32411 -4.51532,-0.76864 -10.57991,0.98365 -17.31655,3.89643 -6.00536,2.5966 -14.7927,1.93172 -36.21724,-3.42012 -11.71521,-2.92645 -27.3088,-7.39644 -34.19276,-2.81448 -5.58089,3.71465 -9.78145,10.604 -13.68115,17.99464 -4.90759,9.30079 -5.399834,7.57817 -7.54962,16.68895 -2.643502,11.20314 -3.759666,13.58646 -6.306432,18.07269 -1.713039,3.01758 -5.605804,6.41522 -8.509162,2.32387 -3.192075,-4.49821 -4.504684,-9.70439 -4.07456,-13.83114 -2.883731,2.26385 -7.898446,4.27088 -6.96919,6.78031 3.63999,12.38066 2.495401,16.62471 7.828703,24.95364 2.87063,4.48301 8.067537,7.46813 12.882507,6.31142 4.25966,-1.0233 8.507804,-4.35214 10.480284,-9.09028 0.72425,-1.73972 0.8687,-5.78767 0.8519,-9.75643 0.2744,-5.36271 2.68981,-14.76955 5.91695,-23.29432 3.49172,-9.22365 3.79893,-15.85511 15.10133,-23.73788 7.79419,-5.436 25.44374,3.91532 36.69935,6.88257 z"
       sodipodi:nodetypes="sssssssssssssccssscsss" /></a>
    <a class="orgaos" name="penis" code="5"><path
       style="display:inline;fill:#e1d4d6;fill-opacity:1;fill-rule:evenodd;stroke:#df8c41;stroke-width:0.5;stroke-linecap:butt;stroke-linejoin:miter;stroke-miterlimit:4;stroke-dasharray:none;stroke-opacity:1"
       d="m 177.65513,156.79233 c 3.70393,1.16503 8.06578,2.83719 11.35937,5.49659 2.40471,1.94168 3.64953,4.93349 1.14926,6.81351 -3.84087,2.88806 -11.84019,2.43981 -19.27194,1.14692 -7.78442,-1.35425 -24.36047,-5.83258 -34.68663,-7.74337 -12.29306,-2.27475 -17.34266,-0.63464 -21.88058,4.88113 -6.27786,7.63063 -10.34597,15.15733 -14.04804,24.25027 -2.918552,7.16844 -2.984483,8.67394 -4.093811,13.15221 -2.04973,8.2746 -3.806678,12.14564 -8.2982,15.23214 -3.985718,2.73893 -7.540894,-3.58285 -8.524048,-8.49705 -0.845594,-4.22662 -0.143376,-12.31079 2.838585,-20.47842 1.505004,-4.12223 2.544584,-6.97946 5.569034,-13.60481 4.622993,-10.12712 7.717784,-15.89547 12.46933,-21.63733 14.12569,-17.06976 23.53136,-17.96039 45.17379,-10.10436 14.91584,5.41433 22.49048,8.02476 32.24388,11.09257 z"
       id="path3413"
       inkscape:connector-curvature="0"
       sodipodi:nodetypes="sssssssssssssss" /></a>
    <a class="orgaos" name="penis" code="5"><path
       id="path3421"
       style="display:inline;fill:#de4c64;fill-opacity:1;fill-rule:evenodd;stroke:none;filter:url(#filter4459)"
       d="m 94.350176,173.39744 c -3.499663,6.60895 -7.154149,13.9767 -8.235209,18.43138 -2.041801,8.41358 -4.851066,15.45005 -0.9474,20.25781 6.247232,0.21609 6.875621,-9.41759 8.456103,-13.86117 2.93461,-8.25075 4.644246,-13.42194 8.59416,-20.03532 6.01438,-10.06994 9.22772,-16.21823 13.80008,-18.95037 7.39974,-4.4216 16.94607,-2.53444 24.2085,-0.71946 5.92122,1.4798 9.63578,2.02112 20.21995,5.11615 7.28012,2.12886 14.55027,3.33669 15.49546,-0.4621 -0.41981,-3.06002 -3.01715,-3.02828 -8.23129,-4.98993 -7.79868,-2.93399 -11.79363,-5.54571 -20.67139,-7.42877 -14.87551,-3.15524 -23.96387,-8.03758 -34.43353,-0.13095 -12.935862,9.76909 -14.430579,15.54968 -18.255434,22.77273 z"
       sodipodi:nodetypes="sscssssscssss" /></a>
  </g>
  <g
     inkscape:groupmode="layer"
     id="layer9"
     inkscape:label="prostate"
     style="display:inline"
     transform="translate(72.819666,-15.626298)">
    <a class="orgaos" name="prostata" code="6"><path
       style="display:inline;fill:#dc8976;fill-opacity:1;fill-rule:evenodd;stroke:#d4853d;stroke-width:1px;stroke-linecap:butt;stroke-linejoin:miter;stroke-opacity:1"
       d="m 196.84327,129.19484 c -3.2571,0.39967 -8.05464,6.24434 0.36007,17.38493 3.29115,4.35728 5.3789,6.41522 8.79744,8.66709 4.00603,2.63886 13.67459,2.89213 16.64666,1.248 5.43019,-3.00395 13.09986,-11.37448 14.12748,-19.14807 1.2292,-9.2983 -4.94518,-14.33609 -10.34486,-13.88453 -4.54386,0.37998 -8.77477,2.42448 -15.75882,3.58182 -6.97819,1.15636 -8.82186,1.53652 -13.82797,2.15076 z"
       id="path3481"
       sodipodi:nodetypes="ssssssss"
       inkscape:connector-curvature="0" /></a>
  </g>
  <g
     inkscape:groupmode="layer"
     id="layer13"
     inkscape:label="bladder+urethra"
     style="display:inline"
     transform="translate(72.819666,-15.626298)">
    <a class="orgaos" name="bexiga" code="7"><path
       style="display:inline;fill:#d8604d;fill-opacity:1;stroke:#df9b57;stroke-width:0.985658px;stroke-opacity:1"
       d="m 204.31723,127.65526 c -4.35691,0.35478 -9.48837,-0.2525 -16.97381,-3.59575 -8.81282,-3.93611 -15.67215,-8.73514 -20.8311,-11.31969 -5.15895,-2.58456 -23.93628,-15.342804 -23.20656,-21.817932 0.97638,-8.663926 26.58095,-17.63472 51.92396,-20.077311 35.82668,-3.453021 44.28344,-1.103834 48.37376,8.045946 3.5762,7.999729 2.57606,14.517146 -2.0902,23.082057 -4.09636,7.51885 -6.11497,13.43836 -14.1307,18.75295 -3.86344,2.56154 -14.09628,6.19942 -23.06535,6.92973 z"
       id="path3814"
       sodipodi:nodetypes="sssssssss"
       inkscape:connector-curvature="0" /></a>
    <a class="orgaos" name="bexiga" code="7"><path
       style="display:inline;fill:url(#linearGradient3812);fill-opacity:1;stroke:#933710;stroke-width:1.01695px;stroke-opacity:1"
       d="m 171.25568,103.35824 c 0,0 24.79667,17.78503 40.74965,11.81645 15.6363,-5.85009 18.36663,-14.12511 20.45192,-18.32563 2.67905,-5.396566 -0.0683,-17.634708 -18.65159,-16.380508 -23.437,1.581782 -37.61036,3.668616 -46.3003,6.249833 -9.95568,2.957186 -2.16626,13.14315 3.75032,16.639855 z"
       id="path3788"
       sodipodi:nodetypes="cssssc"
       inkscape:connector-curvature="0" /></a>
    <a class="orgaos" name="uretra" code="8"><path
       style="display:inline;fill:#7b4a10;fill-opacity:1;stroke:#c97947;stroke-width:0.9;stroke-miterlimit:4;stroke-dasharray:none;stroke-opacity:1"
       d="m 187.20908,182.49584 c 4.1398,0.19658 14.41562,1.40852 20.03568,-1.8171 5.59746,-3.21265 8.16453,-6.98562 9.51836,-7.27793 4.19134,-0.90498 7.47873,-4.54494 9.42053,-6.27667 1.03758,-0.92532 -0.63468,-2.37506 -1.83313,-1.43091 -1.76255,1.38855 -5.63221,4.5107 -7.20303,4.75006 -1.05531,0.0782 0.79092,-2.59124 1.19117,-4.78802 0.35353,-1.94041 0.6137,-4.2057 0.5631,-5.60013 -0.43003,-11.84969 -1.72881,-15.72421 -0.11814,-17.23169 3.09926,-2.90071 6.77059,-5.10902 9.27067,-7.6631 3.13534,-3.20306 6.66823,-6.09918 7.86211,-7.00476 1.13958,-0.40975 4.86331,-2.84302 5.90859,-3.82835 -0.2944,-0.54902 -0.88945,-0.90724 -1.36546,-1.52524 -0.91599,0.62398 -3.43351,2.5814 -3.41394,2.10042 0.0431,-1.0602 1.51334,-4.43935 1.49334,-5.21124 -0.02,-0.77189 -1.38464,-0.86319 -1.53325,-0.8731 -0.59455,-0.0396 -2.33666,5.84288 -3.18225,6.95272 -1.69117,2.21967 -4.83722,4.26412 -8.38882,7.69046 -1.8332,1.76855 -5.28106,4.81886 -8.41042,6.47058 -0.75772,-4.02678 -2.06591,-8.49449 -2.95094,-13.34249 -0.20066,-1.16861 -0.63756,-2.61352 -0.83618,-3.53556 -0.25026,-1.16172 -0.85068,-3.36161 -1.10103,-5.11679 -0.19062,-1.33644 -0.006,-2.03667 0.43227,-3.08187 -2.30154,1.06494 -4.82381,1.4187 -6.54577,1.52116 1.79438,0.97154 1.84455,1.23277 2.12386,2.30254 0.32094,1.22915 0.81286,3.5251 1.02397,4.50484 0.27679,1.2845 0.32238,2.40181 0.72442,4.16957 2.11965,9.32006 3.20853,15.74259 3.78579,19.00895 0.65961,3.73226 1.41603,14.32715 0.57044,17.07531 -0.84559,2.74816 -1.67584,7.87357 -7.25084,11.9832 -3.92206,2.89116 -13.08288,3.33115 -23.91408,2.46792 -9.26087,-0.73807 -18.81286,-3.13339 -27.3414,-5.40603 -7.62778,-2.03261 -26.5194,-10.20436 -35.31272,-3.90056 -6.48476,4.64884 -9.51598,11.99464 -13.32815,18.7295 -1.76676,3.12129 -4.48826,10.11545 -6.21255,15.63165 -1.82454,5.83692 -3.832334,9.64348 -4.414254,11.90936 -0.672188,2.61736 -1.216004,4.03183 -2.484779,6.94771 -0.90132,2.07141 -2.500494,3.73899 -3.657611,6.40932 -0.908539,2.09668 -1.347847,4.95309 -1.360806,7.65651 -0.01085,2.26324 -0.130368,4.36472 -0.542831,7.21874 1.612295,0.26673 3.827402,-0.0623 5.108889,-0.34981 0.477822,-1.73148 1.158286,-2.73647 2.087869,-4.60193 0.998975,-2.00472 1.585665,-3.08444 2.094862,-4.97758 0.708697,-2.63486 1.215975,-5.3553 1.060853,-7.32074 -0.170746,-2.16342 1.273068,-6.35653 1.806218,-8.12809 1.83222,-6.08813 3.2708,-8.33436 4.50223,-12.68104 2.42988,-8.57696 4.29256,-12.56864 6.45314,-16.73253 3.06096,-5.89914 5.78133,-12.69782 14.26589,-16.78586 5.25142,-2.53025 25.40526,4.68011 35.01213,6.86222 3.5529,0.807 13.8992,3.53344 26.386,4.12638 z"
       id="path3816-3"
       sodipodi:nodetypes="ssssscsssscccsssssccssccsssssssssssssssccsssssssss"
       inkscape:connector-curvature="0"
       inkscape:label="path3816" /></a>
  </g>
  <g
     inkscape:groupmode="layer"
     id="layer5"
     inkscape:label="vas deferens+semen"
     style="display:inline"
     transform="translate(72.819666,-15.626298)">
    <a class="orgaos" name="deferente" code="8"><path
       style="display:inline;fill:#b45a32;fill-opacity:1;fill-rule:evenodd;stroke:#b55d31;stroke-width:0.8;stroke-linecap:butt;stroke-linejoin:miter;stroke-miterlimit:4;stroke-dasharray:none;stroke-opacity:1"
       d="m 166.05685,219.11467 c -3.07273,-6.13191 -9.12102,-13.76702 -16.58163,-17.68546 -5.74526,-3.0175 -12.75357,-8.41523 -15.42521,-12.31467 -5.09822,-7.44117 -4.63529,-18.99053 -4.25348,-33.44503 0.38181,-14.45451 1.6298,-34.28028 3.2233,-40.06378 2.243,-8.1408 3.02945,-9.1621 5.10476,-13.5475 2.07531,-4.3854 4.22907,-11.203465 5.60628,-14.680355 1.37721,-3.47689 2.92462,-16.33303 9.05828,-19.455452 7.771,-3.955934 23.61639,0.836682 34.05488,1.203927 17.297,0.608615 15.15411,-0.06684 29.44681,-0.538516 18.01737,-0.594595 26.64222,6.280082 28.81571,12.492447 2.7135,7.755872 2.39365,15.765718 0.96426,21.707709 -0.81807,4.12834 -2.02816,6.26907 -2.58968,8.60356 -0.61042,2.53778 -3.47682,7.14241 -5.38297,10.39093 -0.0686,-0.37177 -0.54617,-0.99531 -0.95589,-1.20673 -0.40971,-0.21141 -1.18912,0.13517 -1.59886,0.42016 0.31173,-3.09311 0.9073,-5.3043 1.31064,-7.86391 0.7695,-6.20847 2.36997,-7.99248 4.51835,-11.90114 3.32768,-5.878484 3.84548,-14.3393 1.56935,-19.369851 -2.85326,-6.306096 -13.21025,-11.984282 -27.14671,-11.142474 -6.65126,0.401758 -11.1023,1.070399 -28.47294,0.806957 -12.63386,-0.191604 -26.62312,-4.586268 -32.87723,-1.314699 -4.83194,2.527619 -5.60602,11.522728 -8.23308,18.222793 -2.23202,5.692559 -3.76383,10.419241 -5.80234,15.086304 -2.07298,4.746 -3.39433,5.83524 -4.99256,13.23982 -1.18819,5.50491 -2.25311,24.40799 -2.65888,38.68044 -0.40577,14.27245 -0.79983,25.46812 3.95049,32.00313 4.02823,5.54164 8.78103,7.33909 18.4206,13.87745 5.83087,3.95498 8.7755,7.73287 12.92441,13.82859 4.43556,6.51688 4.76738,15.54466 4.10597,19.00384 -1.42299,7.44225 -7.03002,9.62769 -8.64309,7.22916 -0.85074,-1.265 4.37136,-5.81825 4.80765,-9.93584 0.39756,-3.75219 0.11724,-7.57346 -2.26719,-12.33181 z"
       id="path3373"
       sodipodi:nodetypes="ssssszzsssscscscccsssssssssssssss"
       inkscape:connector-curvature="0" /></a>
    <a class="orgaos" name="deferente" code="10"><path
       id="path3377"
       style="display:inline;fill:#c2987c;fill-opacity:1;fill-rule:evenodd;stroke:none;filter:url(#filter1239)"
       d="m 209.26765,70.182118 c 13.22139,-0.993363 23.64577,0.06942 30.8227,6.214872 4.8046,4.11408 5.35758,10.584623 4.67788,16.572592 -0.49894,4.395578 -1.87768,6.610074 -2.97944,9.716778 -2.67454,3.15173 -2.04005,5.23212 -2.45438,6.5625 -0.47428,1.52287 -1.70186,6.59449 -0.91847,7.00138 0.75727,0.39332 2.61709,-4.78446 4.21808,-7.09751 0.66121,-0.95531 1.27608,-4.45549 1.48694,-5.7992 0.22959,-1.46307 2.11105,-6.437427 2.65596,-11.302658 0.53731,-4.797402 -0.42676,-10.781385 -3.43949,-14.334537 -8.20045,-9.671321 -21.80576,-10.082034 -34.30061,-8.849788 -9.1445,0.901834 -22.85464,0.781178 -28.09919,-0.02546 -10.31338,-1.586255 -22.02995,-4.048357 -28.97467,-0.381922 -4.11125,2.170512 -5.67427,9.67768 -7.47475,16.771702 -1.10587,4.357212 -7.21706,19.394833 -8.9155,22.724203 -1.95691,3.83603 -3.53197,13.96475 -4.1612,22.04494 -0.42723,5.48619 -1.00902,22.20722 -1.08102,27.62887 -0.14037,10.57005 -0.3364,24.25495 5.40992,31.11622 2.28425,2.72745 6.79535,6.86604 12.31193,10.37839 5.26045,3.34927 12.37978,7.99296 15.23462,12.23221 2.71606,4.03317 4.64297,7.97423 6.04303,12.49208 0.90797,2.92993 0.0609,5.24406 0.38983,7.09446 0.51205,2.88087 0.07,1.75953 0.55574,4.19882 1.26275,0.49908 1.69853,-1.47097 1.68833,-3.19786 -0.0169,-2.87031 0.40589,-4.82538 -0.27702,-6.99149 -1.1661,-3.69876 -3.3906,-9.57307 -6.85649,-13.98176 -5.00966,-6.37241 -9.10251,-8.60088 -16.00452,-13.18484 -5.66845,-3.76469 -9.56079,-6.98011 -12.63919,-10.86635 -4.89931,-6.18499 -4.18562,-19.90359 -4.12392,-31.34239 0.0485,-8.98499 0.3864,-13.9669 1.22427,-25.13531 0.83787,-11.1684 1.79019,-16.62938 3.68302,-20.85655 1.67155,-3.73298 8.53817,-21.138354 9.35564,-24.431402 2.01151,-8.103102 3.97587,-12.949246 5.96961,-14.850885 3.415,-3.257245 18.1342,-1.993691 28.25982,-0.0074 6.98371,0.900246 17.4317,0.734837 28.71254,-0.112727 z"
       sodipodi:nodetypes="ssscsssssssssssssssssscsssssszssscss" /></a>
  </g>
  <g
     inkscape:groupmode="layer"
     id="layer10"
     inkscape:label="cowper+seminal vesicle"
     style="display:inline"
     transform="translate(72.819666,-15.626298)">
    <ellipse
       style="display:inline;fill:url(#radialGradient1212);fill-opacity:1;stroke:none;stroke-width:0.5;stroke-linecap:round;stroke-linejoin:round;stroke-miterlimit:4;stroke-dasharray:none;stroke-dashoffset:0;stroke-opacity:1"
       id="path3484-1"
       transform="rotate(-16.200071)"
       cx="172.19112"
       cy="221.29471"
       rx="4.0953069"
       ry="3.0489581" />
    <a class="orgaos" name="vesicula" code="9"><path
       style="fill:#e48d40;fill-opacity:1;fill-rule:evenodd;stroke:none;stroke-width:1;stroke-linecap:butt;stroke-linejoin:miter;stroke-miterlimit:4;stroke-dasharray:none;stroke-opacity:1"
       d="m 238.90219,123.44495 c 1.03832,-2.74827 0.56014,-3.31171 1.01386,-5.3973 0.46095,-2.1188 2.10526,-4.65876 4.2784,-5.86711 -0.28709,-2.71293 1.17581,-5.26191 3.30198,-6.43504 -0.57524,-4.43531 2.98293,-9.243345 4.35789,-9.521034 2.58427,-0.521924 5.60358,2.531954 2.95635,6.544624 0.32573,2.26398 0.40648,4.67148 -3.09077,7.64723 0.30143,2.00586 -1.76873,5.85921 -3.93888,6.60186 0.36561,2.09505 -1.24426,3.7179 -1.85729,4.28575 -1.72259,1.59563 -2.37931,2.60761 -4.96776,4.31311 0.21073,-0.98122 -0.0368,-1.52659 -0.35198,-2.00351 -0.31522,-0.47692 -1.11308,-0.3709 -1.7018,-0.16858 z"
       id="path3486"
       inkscape:connector-curvature="0"
       sodipodi:nodetypes="csccscccscsc" /></a>
    <a class="orgaos" name="vesicula" code="9"><path
       style="display:inline;fill:#eeb17b;fill-opacity:1;fill-rule:evenodd;stroke:none;stroke-width:1;stroke-linecap:butt;stroke-linejoin:miter;stroke-miterlimit:4;stroke-dasharray:none;stroke-opacity:1;filter:url(#filter1281)"
       d="m 241.71926,117.87861 c 0.12285,-2.11881 0.8092,-3.1837 2.98234,-4.39205 0.44546,-2.20578 1.32694,-6.19537 3.50946,-6.52325 0.10097,-3.3083 2.58375,-9.816006 3.98335,-9.909509 1.90807,-0.127473 2.3512,2.036743 1.14916,5.212129 -0.5325,1.4067 -0.72451,3.81827 -3.71461,6.56862 0.86493,1.1606 -1.24564,5.72262 -3.1884,6.60982 1.09816,1.5879 -0.63635,2.86866 -1.24938,3.4365 -1.47486,0.64723 -2.88192,0.49509 -3.47192,-1.00226 z"
       id="path3486-6"
       inkscape:connector-curvature="0"
       sodipodi:nodetypes="cccsscccc" /></a>
  </g>
  <g
     inkscape:groupmode="layer"
     id="layer4"
     inkscape:label="testis"
     style="display:inline"
     transform="translate(72.819666,-15.626298)">
    <ellipse
       style="fill:url(#radialGradient3370);fill-opacity:1;stroke:none;stroke-width:0.937202"
       id="path3354"
       transform="rotate(-43.235128)"
       cx="-51.651299"
       cy="262.30386"
       rx="18.029093"
       ry="26.35021" />
    <a class="orgaos" name="epididimo" code="10"><path
       style="display:inline;fill:#b27159;fill-opacity:1;fill-rule:evenodd;stroke:none;stroke-width:0.5;stroke-linecap:butt;stroke-linejoin:miter;stroke-miterlimit:4;stroke-dasharray:none;stroke-opacity:1"
       d="m 123.04402,205.34617 c 0.0919,-3.51267 1.07306,-5.32796 5.41704,-5.73615 12.00272,-1.12785 20.76533,5.02109 25.78258,8.9175 7.75698,6.0241 9.39097,12.31709 11.85095,17.16888 2.45334,4.83869 4.33738,15.00054 -2.03865,16.99163 -4.55812,-1.90489 -1.86779,-6.49852 -5.41954,-14.74388 -3.46758,-8.04997 -7.55697,-12.27908 -13.90646,-15.78946 -3.89289,-2.15223 -7.7798,-3.63955 -13.57589,-3.19574 -5.37387,0.41147 -8.20037,-0.1597 -8.11003,-3.61278 z"
       id="path3373-3"
       sodipodi:nodetypes="sssscssss"
       inkscape:connector-curvature="0" /></a>
    <a class="orgaos" name="epididimo" code="10"><path
       style="display:inline;fill:#d1a687;fill-opacity:1;fill-rule:evenodd;stroke:none;stroke-width:0.5;stroke-linecap:butt;stroke-linejoin:miter;stroke-miterlimit:4;stroke-dasharray:none;stroke-opacity:1;filter:url(#filter1669)"
       d="m 227.38484,228.47207 c -2.89623,-4.31803 1.93775,-5.41135 3.74527,-5.51725 12.00419,-0.70332 20.1584,4.25276 24.36719,7.26197 7.97537,5.70225 10.47914,12.36786 12.40902,15.91051 2.59526,4.76408 3.09249,8.05736 1.63611,11.5811 -2.18702,-2.37664 -3.12808,-7.24834 -4.86616,-11.55458 -2.47901,-6.14195 -8.6338,-11.98996 -15.92758,-15.24747 -4.06156,-1.81395 -8.69416,-3.47669 -14.20725,-3.35026 -3.78713,0.0868 -4.75292,3.02289 -7.1566,0.91598 z"
       id="path3373-4"
       sodipodi:nodetypes="cssscsssc"
       inkscape:connector-curvature="0"
       inkscape:label="path3373-4"
       transform="rotate(5.9533336,392.01847,-757.36275)" /></a>
  </g>
  <g
     inkscape:groupmode="layer"
     id="layer7"
     inkscape:label="scalex3.5"
     style="display:none"
     transform="translate(67.321454,-1.3862936)">
  </g>
</svg>