<?xml version="1.0" encoding="utf-8"?>
<!-- Generator: Adobe Illustrator 27.5.0, SVG Export Plug-In . SVG Version: 6.00 Build 0)  -->
<svg version="1.1" id="svg-respiratorio" xmlns="http://www.w3.org/2000/svg" xmlns:xlink="http://www.w3.org/1999/xlink" x="0px" y="0px"
	 viewBox="0 0 2976.38 2976.38" style="enable-background:new 0 0 2976.38 2976.38;" xml:space="preserve">
<radialGradient id="SVGID_1_" cx="-2045.9016" cy="1488.1899" r="1488.1899" gradientTransform="matrix(-1 0 0 1 -557.7117 0)" gradientUnits="userSpaceOnUse">
	<stop  offset="0" style="stop-color:#A8D2F0"/>
	<stop  offset="1" style="stop-color:#001C50"/>
</radialGradient>
<rect x="0" width="2976.38" height="2976.38" style="fill: none"/>
<radialGradient id="SVGID_00000060024645875348317550000001500681021207184524_" cx="1521.5507" cy="1537.8901" r="1238.9879" gradientUnits="userSpaceOnUse">
	<stop  offset="0" style="stop-color:#FFFFFF"/>
	
</radialGradient>
<path style="fill:#C5A16F;" d="M2498.931,2803.075
	c13.547,67.989,20.46,115.063,24.3,172.458h-319.288c-11.793-65.851-19.789-118.013-30.479-196.503
	c-15.168-111.35-21.995-174.452-30.911-286.476c-7.71-96.831-10.737-151.608-13.741-248.695
	c-7.792,115.698-11.836,181.003-18.382,296.783c-5.856,103.656-11.208,162.07-13.739,265.867
	c-1.643,67.31-2.094,113.417-1.357,169.023H784.34c16.109-77.458,22.174-125.111,26.639-206.802
	c4.32-79.002,3.555-124.033-3.432-202.841c-40.836,21.415-18.504,310.91-40.893,409.643H520.033
	c6.461-194.74,27.848-716.692,21.644-905.823c-4.625-140.953-27.207-220.143-20.609-361.024
	c10.303-220.007,76.768-274.967,174.152-320.823c162.75-76.646,252.146-101.228,409.109-175.359
	c48.074-22.708,75.064-35.825,122.625-59.595c-53.551,10.291-92.486,1.464-136.367-30.916
	c-59.854-44.17-40.746-108.991-66.465-178.793c-22.055-59.826-50.629-90.025-56.168-153.541
	c-4.539-52.076,14.746-80.719,17.174-132.935c5.231-112.57-66.189-177.424-37.781-286.478
	c58.004-222.66,312.369-312.846,533.965-250.921c214.704,59.993,330.295,244.582,328.902,467.497
	c-0.778,124.535-94.222,177.388-105.456,301.423c-9.917,109.464-23.925,187.171,35.556,279.609
	c66.971,104.079,168.753,95.07,279.605,150.109c127.388,63.247,244.872,37.972,332.339,150.107
	c71.36,91.481,60.207,172.191,80.204,286.478c31.748,181.405,5.709,287.982,6.874,472.141c0.895,141.671-23.922,223.602,0,363.248
	C2453.907,2675.012,2482.065,2718.429,2498.931,2803.075z"/>
<g>
	<g>
		<a class="orgaos" name="cavidades" code="1"><path style="fill:#F26B7A;" d="M1153.473,903.398c28.166-29.217,53.814-40.626,93.279-41.493
			c47.588-1.047,74.9,13.215,102.826,53.937c23.236,33.877,30.082,63.979,29.137,105.808
			c-0.912,40.334-24.195,59.812-24.502,100.152c-0.225,29.122,1.584,46.587,11.801,73.632c7.07,18.687,9.201,21.775,19.852,43.511
			l73.029-9.318c8.82-32.187,14.068-48.615,14.584-81.927c0.639-42.416-18.736-63.421-27.459-104.832
			c-13.33-63.225-29.063-100.067-22.137-164.425c3.701-34.425,16.246-53.42,5.377-86.115c-5.541-16.691-13.814-23.727-25.082-36.812
			c-11.258-13.066-95.174-63.015-146.201-65.838c-53.467-2.957-84.945,0.863-136.389,16.542
			c21.313-4.756,38.227,0.676,53.439,17.156c16.551,17.948,21.014,39.026,13.279,62.715c19.502-17.25,33.639-24.646,58.445-30.575
			c31.809-7.606,59.018-5.743,84.441,6.354c-0.26,1.5-0.461,3.019-0.598,4.564c-2.16,25.017,24.266,30.233,35.418,52.411
			c16.334,32.461,22.395,48.774,15.393,66.052c-11.461,28.256-15.279-32.292-64.988-47.95
			c-71.199-22.431-138.041-13.059-185.084,47.737L1153.473,903.398z"/></a>
		<a class="orgaos" name="cavidades" code="1"><path style="fill:#F48182;" d="M1189.887,748.99c13.385-4.447,27.619-7.288,45.115-9.408
			c48.988-5.938,87.34-12.396,124.764,21.528c36.088,32.726,46.51,71.848,40.199,121.667c-1.879,14.874,1.648,28.013-9.648,37.101
			c-18.207,14.655-25.354-27.192-44.559-40.364c-40.049-27.469-69.703-43.631-117.123-37.674
			c-39.654,4.983-64.951,18.07-91.424,47.812l11.65,9.855c22.908-27.507,46.244-40.244,82.322-45.556
			c42.963-6.326,73.877,2.618,106.936,32.291c19.535,17.532,27.063,32.11,38.195,56.511c15.008,32.924,17.643,54.984,19.092,91.495
			c2.063,51.411-35.504,78.822-25.461,129.167c4.193,20.977,7.625,40.499,18.129,58.84c11.727-11.021,22.076-13.507,37.723-12.13
			c9.395,0.826,19.609,1.794,27.59,7.087c1.799-47.239-2.576-82.262-8.326-129.146c-5.945-48.484-18.621-74.081-25.461-122.44
			c-5.457-38.575-8.885-60.558-8.916-99.564c-0.014-25.764,11.422-41.454,3.818-65.929c-7.688-24.773-21.924-34.271-40.732-51.132
			c-42.271-37.882-79.637-43.31-134.943-47.092c-32.742-2.235-53.746-0.605-82.674,7.114c6.662,3.115,12.898,7.883,18.875,14.356
			C1182.342,731.315,1187.307,739.869,1189.887,748.99"/></a>
		<g>
			<a class="orgaos" name="diafragma" code="2"><path style="fill:#F2775E;" d="M1155.453,2540.807c43.58,40.1,99.357,47.605,164.648,44.229
				c31.639-1.64,27.596,25.683,53.455,6.345c54.748-40.94-8.867-329.927,60.752-271.031c32.392,27.394,24.637,63.216,36.734,105.149
				c24.25,84.039-85.336,207.73-4.008,225.863c47.449,10.579,81.947-129.739,166.961-131.283
				c59.916-1.089,92.136,82.659,140.084,93.986c-4.25-30.945-9.826-62.768-23.874-89.756
				c-52.912-101.683-81.46-162.753-156.944-247.018c-29.781-33.243-38.368-84.141-81.479-79.767
				c-24.771,2.513-30.092,31.129-54.744,34.595c-27.529,3.869-41.139-33.314-67.473-24.013
				c-29.412,10.392-22.234,45.66-38.738,73.415c-53.178,89.462-119.094,111.521-170.953,201.844
				C1167.92,2504.195,1161.918,2522.742,1155.453,2540.807 M1707.915,2561.79c-24.587-61.392-44.188-100.434-80.416-161.572
				c-30.561-51.577-63.809-70.598-86.279-126.625c-11.571-28.849-18.488-51.619-22.334-76.284c-2.261-0.102-4.624-0.034-7.103,0.216
				c-4.498,0.461-8.359,1.782-11.813,3.654c2.398,22.22-6.914,46.267-25.918,57.177c-23.781,13.652-55.771-18.166-65.811-49.519
				c-5.662-2.403-11.727-3.185-18.676-0.73c-1.283,0.454-2.496,0.956-3.65,1.503c-2.271,16.671-5.412,29.767-11.311,48.746
				c-18.838,60.644-50.762,84.224-85.029,136.784c-42.855,65.764-70.707,106.313-112.117,162.604
				c29.141,18.525,62.723,26.068,100.111,27.674c15.303-60.938,30.566-102.22,59.957-164.995
				c20.609-44.007,16.557-91.042,59.855-108.856c22.682-9.33,38.879-9.296,62.357-2.537c58.451,16.813,50.164,86.138,69.467,146.829
				c13.42,42.204,21.556,75.857,25.756,110.809c21.308-25.042,46.465-45.998,79.033-46.589
				C1663.672,2519.539,1686.553,2539.809,1707.915,2561.79"/></a>
			<a class="orgaos" name="diafragma" code="2"><path style="fill:#AC2B35;" d="M1807.359,2675.873c-38.861-57.243-44.49-104.869-83.359-165.254
				c-40.03-62.174-77.94-84.797-118.693-146.435c-35.151-53.172-17.537-141.93-78.884-143.925
				c-23.757-0.771-34.515,16.706-58.151,19.324c-24.996,2.763-40.381-16.199-64.063-7.308
				c-31.256,11.741-28.328,46.094-49.379,73.184c-36.582,47.094-68.508,62.487-106.658,108.172
				c-30.814,36.896-43.402,61.849-72.852,99.972c-20.881,27.042-32.959,42.061-54.859,68.194l35.006-208.482l234.063-214.372
				l213.186,16.436l149.855,151.229l79.75,307.784L1807.359,2675.873z"/></a>
			<a class="orgaos" name="diafragma" code="2"><path style="fill:#F26867;" d="M1179.875,2483.365c51.859-90.322,117.781-112.382,170.961-201.844
				c16.496-27.755,9.318-63.023,38.73-73.418c26.328-9.299,39.947,27.885,67.467,24.021c24.658-3.471,29.988-32.087,54.75-34.593
				c43.12-4.378,51.699,46.517,81.479,79.76c75.493,84.265,104.039,145.335,156.944,247.018
				c42.963,82.561,6.743,210.456,95.491,219.512c76.682,7.824,133.658-61.316,144.937-141.864
				c16.007-114.36,37.149-178.254,1.998-281.607c-77.754-228.623-318.062-228.233-547.664-239.994
				c-177.725-9.104-336.01-28.943-452.771,112.938c-59.295,72.057-78.896,131.023-89.486,225.859
				c-12.551,112.491-22.719,204.705,58.752,283.725c55.361,53.688,117.936-43.229,164.957-105.149
				C1155.883,2558.932,1155.461,2525.894,1179.875,2483.365"/></a>
		</g>
		<a class="orgaos" name="pulmao" code="6"><path style="fill:#E8E0EF;" d="M1518.191,1690.342c5.852-104.283-16.744-188.362,35.147-265.276
			c62.626-92.833,176.112-54.841,242.622,29.612c147.579,187.378,191.246,339.492,216.291,581.859
			c12.957,125.354,11.053,198.783-8.368,323.199c-32.373-29.166-53.848-42.9-93.299-59.688
			c-65.935-28.05-115.411,7.369-181.134-21.23c-118.869-51.718-159.811-147.268-201.215-275.891
			C1491.051,1887.438,1511.35,1812.11,1518.191,1690.342"/></a>
		<a class="orgaos" name="pulmao" code="6"><path style="fill:#DEA8CA;" d="M1518.346,1590.99c18.278-28.89,29.537-47.774,47.613-79.668
			c22.665-40.005,14.708-85.754,55.146-104.387c48.668-22.422,81.99,24.004,125.097,56.761
			c87.781,66.715,88.837,153.036,130.856,258.338c64.071,160.582,96.421,258.222,107.806,432.081
			c3.524,53.814,43.951,108.447,1.443,138.307c-39.012,27.4-70.581-20.888-115.011-36.542
			c-56.847-20.027-92.94-23.726-143.823-57.185c-111.239-73.139-130.139-171.222-182.083-298.347
			c-16.011-39.185-26.196-67.228-35.905-100.409c-5.285,66.907-6.034,126.038,18.742,202.987
			c41.414,128.623,82.355,224.173,201.224,275.894c65.73,28.596,115.199-6.823,181.134,21.227
			c39.458,16.787,60.926,30.521,93.299,59.688c19.421-124.412,21.316-197.849,8.368-323.199
			c-25.045-242.367-68.703-394.48-216.282-581.859c-66.519-84.453-180.005-122.445-242.631-29.612
			C1518.991,1475.972,1517.285,1530.019,1518.346,1590.99"/></a>
		<a class="orgaos" name="pulmao" code="6"><path style="fill:#DCC8DF;" d="M1515.133,1739.207c28.145-32.358,42.682-52.227,65.234-89.16
			c47.296-77.473,171.658-234.627,85.799-218.326c-21.713,4.124-34.296,9.322-52.268,22.842
			c-40.135,30.194-25.164,78.071-52.259,121.553c-15.097,24.228-26.587,40.022-42.486,57.465
			c0.234,18.266,0.138,37.159-0.972,56.762c-0.922,16.5-2.096,32.143-3.336,47.145L1515.133,1739.207z"/></a>
		<a class="orgaos" name="pulmao" code="6"><path style="fill:#DFC8DE;" d="M1594.153,1780.063c4.163-66.552-11.916-119.973,25.022-168.962
			c44.573-59.131,125.348-34.934,172.691,18.855c105.036,119.345,136.328,213.864,153.933,370.607
			c8.959,79.761,7.604,126.816-5.95,205.854c-23.594-18.642-38.75-27.322-66.406-38.015c-47.446-18.344-81.936,6.119-128.92-13.519
			c-79.586-33.274-114.032-90.694-143.223-175.73C1576.234,1906.104,1589.302,1857.596,1594.153,1780.063"/></a>
		<a class="orgaos" name="pulmao" code="6"><path style="fill:#EFE6F2;" d="M1620.995,1782.06c2.815-50.167-8.055-90.619,16.908-127.619
			c30.133-44.661,84.729-26.386,116.727,14.244c70.994,90.141,92.002,163.323,104.047,279.926
			c6.235,60.3,5.322,95.626-4.026,155.478c-15.57-14.024-25.898-20.636-44.881-28.712c-31.721-13.492-55.522,3.544-87.138-10.214
			c-57.185-24.88-76.883-70.857-96.802-132.728C1607.941,1876.887,1617.701,1840.638,1620.995,1782.06"/></a>
		<a class="orgaos" name="bronquiolos" code="3"><path style="fill:#CFBDD5;" d="M1497.157,1756.883c23.329,29.832,36.998,46.26,62.011,74.527
			c12.739,14.397,21.998,20.62,33.203,36.375c20.921,29.419,23.646,51.95,35.87,86.409c8.569,24.163,17.364,37.112,19.707,62.792
			c1.655,18.136-3.092,28.414-2.718,46.629c0.473,22.842,2.037,35.873,6.977,58.117c1.878,5.765,3.488,8.937,6.999,13.775
			c11.219,15.463-4.895-30.167-5.402-49.651c-0.428-15.999-0.052-25.099,1.675-41.002c4.055,13.457,6.139,21.134,9.416,34.831
			c6.57,27.451,4.827,44.29,12.762,71.335c4.222,14.418,3.309,47.371,12.928,36.211c7.916-9.179-1.132-19.405-2.539-31.74
			c-3.908-34.188-10.27-52.783-18.18-86.19c-2.815-11.894-4.463-18.591-7.485-30.429c5.771,9.236,8.937,14.513,14.37,23.968
			c8.586,14.93,14.568,22.828,20.929,38.95c5.006,12.669,4.685,46.22,9.857,33.625c1.961-4.768,1.625-7.977,2.013-13.156
			c2.142-28.084-12.708-42.197-24.632-67.402c-9.042-19.109-17.073-28.183-26.445-47.114
			c-11.353-22.934-15.747-36.904-25.463-60.668c-14.617-35.767-22.573-56.078-36.189-92.289
			c25.457,33.076,38.704,52.861,59.787,89.212c19.522,33.661,28.805,53.798,44.95,89.407
			c26.637,58.738,39.588,93.153,58.386,155.187l5.548-11.296c-10.688-27.076-16.249-42.586-25.208-70.356
			c-7.03-21.79-8.063-35.182-16.632-56.344c-11.399-28.146-20.083-43.447-38.212-67.327c21.573,24.625,32.854,39.562,50.802,67.241
			c18.802,29.002,29.222,45.906,42.702,78.05c6.317,15.066,7.911,24.43,14.348,39.444c10.95,25.591,18.579,39.547,34.078,62.361
			l5.231-5.814c-9.44-17.313-14.618-27.186-23.501-44.824c-9.223-18.313-14.26-28.742-22.882-47.38
			c22.73,15.667,34.423,27.705,49.834,51.297c13.585,20.779,19.537,34.385,25.733,58.772l4.401-9.477
			c-6.236-18.723-10.958-29.021-21.003-45.788c-17.529-29.255-38.733-36.208-58.014-64.199
			c-19.178-27.854-21.835-48.92-39.806-77.656c-20.494-32.786-40.567-44.754-60.215-78.118
			c-12.232-20.778-19.176-32.799-27.291-55.716c-4.349-12.279-6.392-19.402-9.221-32.157c23.765,9.025,36.818,17.771,54.684,36.613
			c21.213,22.363,24.927,42.04,38.52,70.26c9.423,19.571,14.354,30.843,22.356,51.107l2.799-6.93
			c-6.273-28.886-12.058-45.038-25.463-71.069c-9.162-17.787-15.293-27.413-27.411-43.099c10.569,5.349,16.294,9.091,25.555,16.669
			c21.532,17.641,28.732,33.663,42.961,58.222c12.928,22.307,16.946,36.784,27.432,60.474c5.262,11.891,8.21,18.61,13.369,30.546
			l5.366-1.052c-7.484-20.558-11.888-32.083-20-52.367c-9.109-22.759-11.534-37.238-24.362-57.891
			c-14.028-22.586-24.505-34.265-45.096-50.276c36.412,14.151,56.397,25.021,88.447,48.132
			c30.352,21.882,39.438,45.626,71.112,65.288c27.307,16.943,44.687,24.126,75.628,31.225l-1.42-11.361
			c-30.203-11.278-46.842-19.683-74.125-37.427c-37.003-24.07-56.517-41.285-85.537-75.471c22.439-3.688,35.747-3.783,58.231-0.406
			c50.053,7.502,80.373,23.955,115.312,62.57l-1.632-14.834c-33-35.006-60.087-50.089-106.068-59.053
			c-28.148-5.488-45.259-5.467-73.4,0.078c-19.223-6.611-29.913-10.999-48.31-19.853c-47.983-23.088-70.223-45.793-113.455-77.694
			c-39.685-29.281-61.6-46.567-99.452-78.448c96.075-9.101,75.314,51.659,129.017,50.922c26.465-0.365,40.319-10.567,66.615-13.714
			c37.836-4.528,61.136-11.272,97.643,0.181c41.494,13.01,65.184,30.727,90.602,67.76c-9.266-21.694-17.619-33.346-34.878-48.64
			c-12.102-10.724-20.068-15.787-34.708-22.05c12.006-4.921,19.91-6.052,32.73-4.679c19.775,2.128,32.156,8.772,45.442,24.402
			c-13.617-22.524-29.012-33.394-53.899-38.078c-20.937-3.941-32.566,7.594-53.733,9.608c-34.453,3.289-54.228-7.231-88.627-3.432
			c-24.612,2.722-38.623,21.808-62.133,13.639c-14.91-5.187-23.303-11.791-32.284-25.393c17.725-16.514,28.099-25.416,47.028-40.349
			c31.116-24.54,49.647-37.212,83.585-57.157c1.526,10.756,4.483,17.162,11.548,25.061c14.625,16.34,35.539,19.58,53.98,8.366
			l-3.938-15.646c-11.908,7.758-24.08,7.656-35.866-0.29c-8.698-5.859-12.918-12.369-14.946-23.061
			c7.439-2.857,11.592-4.624,18.831-8.008c10.32-4.824,19.693-3.716,25.867-13.693c6.871-11.111,6.685-23.159-0.515-34.031
			l-9.41-1.979c2.23,10.535,1.671,17.597-2.223,27.582c-8.833,22.698-33.51,14.909-54.18,26.09
			c-29.798,16.107-46.333,26.103-73.689,46.489c-24.655,18.385-31.227,42.091-60.03,51.61
			c-41.563,13.729-70.328-53.871-107.85-30.521C1512.302,1733.181,1504.943,1741.324,1497.157,1756.883"/></a>
		<a class="orgaos" name="bronquiolos" code="3"><path style="fill:#0074B4;" d="M1510.242,1656.104c26.18,4.616,41.883,4.616,68.066,0c27.342-4.812,48.688-2.935,67.051-24.874
			c12.551-15.002,7.424-31.144,18.225-47.592c7.724-11.762,15.568-15.316,24.033-26.486c18.24-24.064,26.369-40.499,34.662-70.062
			l6.834,11.237c-5.028,12.69-8.219,19.721-14.423,31.82c-10.232,19.935-19.658,28.872-30.11,48.675
			c-10,18.942-10.646,32.581-22.516,50.272c-10.128,15.11-17.245,22.935-31.129,34.23c21.324-7.372,34.257-9.752,56.682-10.433
			c24.872-0.743,38.673,12.901,63.254,8.831c18.053-2.99,26.055-12.949,43.771-17.658c7.328-1.939,11.518-2.831,18.988-4.013
			l-1.518,8.831c-8.167,0.687-12.83,1.783-20.502,4.815c-11.384,4.5-15.187,12.491-26.317,17.658
			c-33.771,15.667-57.663-10.101-94.386-6.42c-12.109,1.209-18.934,2.273-30.867,4.808c17.546,7.547,27.156,12.871,43.016,23.798
			c15.068,10.385,25.037,15.303,36.188,30.218c5.599,7.5,5.57,14.312,12.148,20.864c9.209,9.18,18.855,6.704,30.104,12.84
			c15.569,8.493,23.938,14.612,36.947,27.009l-3.803,4.814c-13.721-11.795-22.724-17.32-39.213-24.074
			c-11.34-4.647-19.792-1.748-30.112-8.551c-12.86-8.479-12.283-21.862-23.277-32.902c-13.294-13.358-23.617-17.439-39.977-26.205
			c-14.482-7.755-23.032-11.502-38.458-16.853c-19.4,2.575-30.373,3.808-49.85,5.62c-29.645,2.757-46.418,3.814-76.159,4.813
			L1510.242,1656.104z"/></a>
		<a class="orgaos" name="bronquiolos" code="3"><path style="fill:#0074B4;" d="M1520.248,1746.781c20.785,17.456,34.52,25.498,59.534,34.882
			c26.124,9.794,43.937,22.381,70.059,12.598c17.86-6.686,20.779-23.433,37.77-32.291c12.146-6.327,20.642-5.415,33.166-10.845
			c26.989-11.71,41.639-21.913,62.452-43.519l0.832,13.328c-10.225,8.523-16.243,13.034-27.215,20.441
			c-18.092,12.2-30.433,15.179-48.666,27.141c-17.433,11.446-24.25,23.047-42.746,32.438c-15.793,8.021-25.614,11.221-42.935,13.987
			c22.037,4.477,34.432,9.021,54.363,19.918c22.096,12.092,27.902,31.096,51.27,40.131c17.166,6.64,28.729,2.026,46.386,6.99
			c7.299,2.053,11.369,3.425,18.441,6.219l-5.373,6.942c-7.455-3.586-12.042-5.017-20.141-6.294
			c-12.021-1.896-19.012,3.149-31.107,1.961c-36.73-3.606-45.808-38.38-79.608-53.979c-11.152-5.146-17.606-7.714-29.207-11.604
			c11.879,15.585,17.852,25.167,26.714,42.853c8.406,16.802,14.881,26.205,17.783,44.967c1.461,9.431-1.69,15.37,1.055,24.477
			c3.84,12.748,13.413,15.524,20.443,26.66c9.715,15.397,14.226,25.034,19.915,42.549l-5.523,2.26
			c-6.602-17.347-11.94-26.793-23.265-41.151c-7.783-9.868-16.503-11.668-22.408-22.906c-7.359-14.002-0.718-25.418-5.264-40.698
			c-5.508-18.499-12.656-27.353-22.948-43.402c-9.108-14.21-14.864-21.862-25.903-34.448c-18.569-6.479-28.84-11.075-46.177-20.63
			c-25.633-14.123-39.421-24.102-61.158-44.239L1520.248,1746.781z"/></a>
		<a class="orgaos" name="bronquiolos" code="3"><path style="fill:#F15D66;" d="M1545.203,1707.59c23.967,12.061,39.057,16.634,65.433,19.829
			c27.537,3.34,47.566,11.361,70.941-4.381c15.973-10.76,15.254-27.77,29.933-40.442c10.478-9.049,18.95-10.18,30.005-18.449
			c23.802-17.826,35.906-31.253,51.595-57.25l3.637,12.791c-8.151,10.729-13.046,16.566-22.171,26.384
			c-15.023,16.19-26.412,22.025-41.632,38.018c-14.556,15.294-18.725,28.213-34.759,41.772
			c-13.675,11.567-22.56,17.017-38.844,23.832c22.415-0.877,35.468,0.603,57.205,6.481c24.103,6.526,33.809,23.665,58.502,26.916
			c18.129,2.387,28.419-4.855,46.684-4.22c7.545,0.262,11.803,0.635,19.287,1.672l-3.756,8.043
			c-8.03-1.722-12.801-2.026-20.964-1.346c-12.118,1.014-17.853,7.587-29.896,9.313c-36.555,5.221-52.8-26.503-89.057-33.674
			c-11.959-2.36-18.801-3.326-30.926-4.361c14.895,12.365,22.753,20.274,35.142,35.409c11.771,14.365,20.081,21.994,26.899,39.584
			c3.429,8.842,1.625,15.38,6.243,23.594c6.452,11.511,16.377,11.938,25.589,21.12c12.749,12.693,19.193,21.008,28.467,36.717
			l-4.903,3.523c-10.121-15.339-17.335-23.271-31.422-34.567c-9.692-7.766-18.571-7.444-26.713-16.986
			c-10.158-11.9-6.106-24.601-13.795-38.41c-9.296-16.716-18.143-23.641-31.593-36.832c-11.895-11.683-19.14-17.774-32.573-27.407
			c-19.319-3.187-30.193-5.19-49.387-9.121c-29.212-5.986-45.612-9.855-74.466-17.563L1545.203,1707.59z"/></a>
		<a class="orgaos" name="bronquiolos" code="3"><path style="fill:#F15D66;" d="M1531.176,1797.668c15.433,22.829,26.526,34.565,48.134,50.875
			c22.553,17.02,36.393,34.309,64.055,32.516c18.91-1.226,26.077-16.47,44.725-20.038c13.321-2.544,21.255,0.813,34.711-0.761
			c28.998-3.392,45.742-8.938,71.386-23.635l-2.688,13.048c-12.052,5.214-19.013,7.8-31.488,11.72
			c-20.569,6.461-33.211,5.73-53.855,11.918c-19.743,5.918-29.327,15.087-49.556,18.724c-17.277,3.114-27.539,3.323-44.917,0.938
			c20.023,10.72,30.754,18.7,47.064,34.985c18.083,18.062,18.714,38.021,38.817,53.514c14.767,11.378,27.089,10.309,42.768,20.229
			c6.482,4.094,10.038,6.604,16.108,11.352l-6.983,5.108c-6.227-5.621-10.262-8.336-17.718-11.921
			c-11.061-5.324-19.091-2.515-30.409-7.179c-34.372-14.165-34.02-50.225-62.447-75.075c-9.378-8.195-14.917-12.543-25.044-19.662
			c7.351,18.439,10.591,29.388,14.491,48.973c3.707,18.596,7.47,29.526,5.375,48.404c-1.056,9.49-5.637,14.284-5.375,23.832
			c0.374,13.373,8.854,18.836,12.703,31.58c5.32,17.638,7.146,28.217,8.054,46.705l-5.906,0.566
			c-1.819-18.594-4.484-29.23-11.625-46.328c-4.909-11.762-12.828-16.029-15.575-28.549c-3.42-15.605,5.942-24.641,5.563-40.66
			c-0.473-19.386-5.038-29.976-10.743-48.405c-5.052-16.312-8.583-25.349-15.918-40.657c-16.476-11.125-25.248-18.606-39.005-33.28
			c-32.888-35.073-47.468-62.382-58.876-110.262L1531.176,1797.668z"/></a>
		<a class="orgaos" name="bronquiolos" code="3"><path style="fill:#A788B7;" d="M1494.471,1741.371c21.676,5.011,33.906,7.793,55.613,12.649
			c11.205,2.507,18.254,1.499,28.734,6.375c17.468,8.124,22.821,20.564,35.29,35.836c8.78,10.764,16.378,15.664,20.765,29.105
			c3.613,11.074-0.038,18.464,2.108,29.955c2.457,13.096,4.86,20.451,10.584,32.355c1.9,2.708,3.586,4.005,6.609,5.098
			c8.908,3.21-2.251-15.384-4.189-25.115c-2.255-11.331-3.765-17.683-6.827-28.798c4.333,6.368,6.623,10.094,10.351,16.872
			c7.68,13.96,7.359,24.537,16.203,37.696c4.543,6.751,6.536,20.421,13.183,16.033c5.97-3.958-0.053-11.758-1.52-19.052
			c-3.878-19.399-15.367-26.424-24.985-43.449c-3.324-5.874-5.194-9.197-8.48-15.095c5.226,2.876,8.126,4.597,13.174,7.814
			c7.873,5.009,13.144,6.918,19.557,13.863c5.023,5.43,7.371,22.702,10.592,15.92c1.495-3.162,0.674-5.535,0.359-9.053
			c-1.372-15.384-13.617-19.814-24.963-29.566c-8.757-7.522-16.346-8.004-24.52-16.225c-8.706-8.762-9.857-16.978-17.283-26.97
			c-9.35-12.59-15.27-19.26-26.572-29.917c14.828,5.986,23.003,10.132,36.691,18.614c17.807,11.033,26.849,19.105,42.521,33.308
			c25.638,23.244,38.87,38.399,58.743,67.265l3.233-9.605c-6.789-13.28-11.324-20.469-20.314-32.202
			c-8.209-10.723-13.69-16.042-23.173-25.519c-5.008-5-7.896-7.741-13.127-12.461c9.079,1.472,14.19,2.896,22.775,6.352
			c17.305,6.96,26.354,13.915,39.766,27.418c6.2,6.228,8.286,11.184,14.552,17.33c10.854,10.633,18.187,15.694,31.757,21.923
			l3.488-6.089c-9.042-5.61-13.946-9.22-22.058-16.24c-4.768-4.122-7.356-6.588-11.75-11.15c10.806,0.701,17.006,2.029,27.208,5.856
			c12.948,4.86,20.052,9.146,30.59,18.471l2.521-7.939c-6.698-8.301-11.36-12.453-20.232-18.029
			c-17.244-10.843-32.026-2.697-50.262-11.542c-16.391-7.946-21.607-19.595-37.52-28.563c-19.333-10.896-34.362-7.229-53.21-19.034
			c-10.989-6.881-17.621-10.876-25.95-21.104c-4.475-5.49-6.714-8.937-9.962-15.328c16.183-7.581,28.128-8.582,45.231-3.805
			c16.13,4.508,22.775,13.714,35.861,24.642c8.943,7.472,13.771,12.043,21.75,20.642l1.518-5.602
			c-7.246-14.338-13.465-21.874-25.92-31.416c-8.808-6.747-14.533-9.808-24.9-13.297c8.016-2.117,12.852-2.585,21.101-2.049
			c15.867,1.024,24.6,6.365,38.187,15.103c11.616,7.476,16.294,14.445,26.481,23.959c5.106,4.774,7.965,7.488,13.002,12.342
			l4.025-3.235c-7.589-9.021-12.004-13.993-20.059-22.548c-9.034-9.611-12.867-16.951-23.894-23.855
			c-10.477-6.553-17.504-9.046-29.607-10.494c23.622-8.024,37.866-10.681,62.663-11.676c23.645-0.948,36.831,7.938,60.418,5.905
			c24.466-2.11,38.612-6.106,60.813-17.201l-3.48-10.347c-21.131,11.512-35.111,15.479-58.854,16.716
			c-21.312,1.106-33.998-0.807-54.153-8.192c9.012-8.554,14.617-12.907,25.029-19.447c32.808-20.598,57.415-26.499,95.417-22.876
			l-2.582-8.325c-34.185-2.043-54.821,1.472-86.668,14.738c-23.749,9.903-36.699,18.037-56.278,35.36
			c-14.887,5.225-23.479,7.67-38.84,11.044c-35.979,7.902-57.751,0.471-94.001,6.839c-17.149,3.013-26.775,5.182-43.592,9.825
			c29.738-10.723,46.1-19.819,71.308-39.648c18.123-14.251,24.246-27.479,42.335-41.781c25.681-20.311,41.9-31.103,72.655-40.729
			c29.244-9.151,47.455-11.043,77.826-8.089c-10.487-8.236-18.149-11.471-31.128-13.103c-11.137-1.41-17.979-0.652-28.599,3.145
			c8.076-9.127,13.883-13.505,24.676-18.613c13.382-6.339,22.42-8.016,37.05-6.875c-16.78-7.584-29.07-8.492-46.698-3.455
			c-18.149,5.193-23.493,18.809-39.555,29.152c-24.553,15.808-43.251,15.909-66.288,34.083
			c-21.611,17.043-20.965,47.097-47.274,53.299c-10.292,2.435-16.76,2.417-27.042-0.064c12.006-18.971,19.159-29.423,32.44-47.418
			c21.136-28.648,33.995-44.134,58.119-70.015c4.334,2.527,7.08,3.568,11.953,4.527c17.837,3.528,33.264-4.098,42.149-20.82
			l-4.433-7.725c-4.357,12.325-15.224,19.069-27.53,17.078c-5.807-0.942-9.265-2.722-13.538-6.977
			c5.449-5.344,8.47-8.421,13.726-13.983c7.472-7.919,16.362-9.934,18.6-20.861c1.638-7.997,0.674-13.74-3.456-20.658l-7.397,3.311
			c-2.791,9.188-4.961,14.263-9.654,22.541c-8.249,14.561-16.85,19.69-27.805,32.085c-21.895,24.772-37.164,35.965-57.298,62.349
			c-16.653,21.824-19.056,40.216-38.553,59.224c-26.685,26.007-60.494,12.703-84.303,41.65
			C1504.933,1716.659,1500.039,1725.405,1494.471,1741.371"/></a>
		<a class="orgaos" name="bronquios" code="4"><path style="fill:#4A60AC;" d="M1510.145,1655.644c-7.234,9.021-11.492,13.973-19.297,22.452
			c-10.877,11.814-17.338,18.184-29.234,28.845c22.068,33.472,35.363,51.806,60.229,83.018
			c31.894,40.046,62.26,52.299,87.318,97.445c7.702,13.851,13.458,21.347,17.351,36.873c5.613,22.382,1.084,36.402-1.944,59.329
			c-2.039,15.374,0.89,26.425-7.802,38.943c-6.58,9.47-15.314,9.213-23.195,17.505c-9.065,9.548-13.398,16.24-18.519,28.636
			c-1.144,3.852-0.866,6.765,0.973,10.299c4.546,8.715,11.005-10.359,17.546-17.507c7.648-8.347,11.737-13.314,18.525-22.457
			c-1.812,8.173-3.107,12.734-5.852,20.603c-5.449,15.608-14.566,21.803-18.52,37.908c-2.191,8.942-11.294,20.823-2.924,23.48
			c6.773,2.154,9.639-6.027,14.617-11.327c14.017-14.94,9.813-31.232,16.377-51.093c2.258-6.834,3.546-10.685,5.844-17.515
			c1.73,7.509,2.588,11.77,3.9,19.365c2,11.57,4.895,18.164,3.9,29.877c-0.696,8.171-12.635,20.628-4.871,20.393
			c3.396-0.099,5.021-2.035,7.795-4.118c13.34-10.036,5.481-26.793,4.868-44.089c-0.51-14.571-6.64-22.315-5.839-36.876
			c0.741-13.64,6.319-20.37,8.766-33.783c3.248-17.74,4.116-28.083,3.9-46.148c6.72,19.919,9.713,31.553,13.447,52.325
			c4.607,25.608,5.412,40.483,5.848,66.549c0.673,40.191-1.482,63.3-9.55,102.587l10.523-1.03c5.65-15.06,8.054-24.01,10.727-39.961
			c2.572-15.4,2.52-24.341,2.919-39.971c0.216-8.431,0.216-13.193,0-21.625c5.964,11.099,8.795,17.773,12.671,29.869
			c7.23,22.545,9.469,36.573,8.576,60.354c-0.381,10.111-2.672,15.646-2.925,25.758c-0.48,19,1.107,30.184,6.824,48.203l7.802,1.035
			c-2.485-13.096-3.355-20.655-3.909-33.998c-0.307-7.543-0.307-11.818,0-19.365c7.966,12.659,11.698,20.517,16.573,34.821
			c5.753,16.899,7.753,27.185,8.771,45.113l8.578-1.027c1.206-12.717,0.989-20.145-0.98-32.756
			c-4.313-27.725-23.111-37.557-30.014-64.69c-5.614-22.077-1.16-35.979-5.844-58.301c-6.162-29.324-21.131-42.327-26.122-71.896
			c-2.659-15.783-5.197-25.146-2.919-40.998c1.106-7.725,2.201-12.071,4.864-19.365c19.841,14.602,29.61,27.462,38.792,51.093
			c7.719,19.847,6.596,32.973,7.802,54.385c0.778,13.96,0.778,21.893,0,35.849l5.844-1.028c5.705-17.122,7.045-28.06,5.651-46.147
			c-1.106-14.377-3.084-22.647-8.571-35.849c8.153,8.253,12.29,13.608,18.317,23.691c10.945,18.307,14.235,30.963,17.544,52.326
			c2.568,16.581,0.846,26.266,0.973,43.063c0.068,8.349,0.068,13.065,0,21.418l5.854,3.094c1.51-13.536,2.155-21.209,2.919-34.82
			c0.875-15.565,3.389-24.577,0.973-39.961c-2.59-16.486-6.04-25.929-14.617-39.97c25.438,23.756,38.672,38.891,59.063,67.571
			c19.161,26.961,22.724,47.453,42.685,73.75c20.958,27.623,35.073,41.832,62.177,62.632l5.853-9.271
			c-26.728-19.396-40.576-33.318-60.23-60.569c-17.336-24.03-25.494-39.41-35.87-67.571c14.477,6.553,22.434,10.896,35.87,19.573
			c44.483,28.742,67.311,53.073,94.145,100.328l4.871-7.213c-25.313-41.637-43.86-63.324-80.5-94.144
			c-26.444-22.246-43.052-33.113-73.679-48.21c-16.124-14.875-24.895-23.695-39.768-39.96
			c-34.857-38.147-45.943-67.508-79.721-106.721c-15.995-18.565-25.359-28.738-42.491-46.145
			c31.45,29.324,51.614,43.733,89.078,63.66c25.507,13.566,42.489,15.124,68.028,28.636c38.246,20.24,59.384,34.258,91.022,64.688
			c30.831,29.651,46.338,49.512,68.03,87.14c-2.162-17.563-5.366-27.664-13.644-43.058c-7.574-14.083-13.414-21.497-25.142-31.933
			c14.513,5.454,22.484,9.924,34.886,19.574c16.169,12.566,24.334,21.93,34.895,39.967c-7.551-24.828-15.865-38.666-33.921-56.45
			c-17.963-17.703-34.346-18.283-55.358-31.725c-32.969-21.089-45.956-42.511-80.499-60.567
			c-30.015-15.691-57.401-4.04-81.48-28.634c-10.305-10.538-15.269-17.945-21.242-31.728c25.479,4.655,39.784,7.79,64.909,14.216
			c41.116,10.515,64.093,17.802,103.898,32.96c1.475,6.58,2.747,10.252,5.643,16.279c11.063,22.957,26.431,34.807,50.486,38.932
			l2.927-9.063c-16.49-0.578-28.151-8.281-35.866-23.692c-3.461-6.904-4.627-11.553-4.875-19.362
			c8.684,3.691,13.624,5.686,22.419,9.063c12.363,4.736,19.715,16.367,31.966,11.327c7.216-2.964,11.221-6.97,14.424-14.417
			l-8.571-7.008c-10.209,1.147-16.115,1.147-26.314,0c-19.775-2.213-29.663-9.879-48.541-16.48
			c-38-13.283-58.091-25.376-96.876-35.845c-30.553-8.244-49.982-3.794-79.526-15.452c-45.667-18.017-65.42-42.613-100.964-77.872
			C1568.479,1767.024,1541.901,1728.129,1510.145,1655.644"/></a>
		<a class="orgaos" name="bronquios" code="4"><path style="fill:#9873AB;" d="M1573.077,2068.153c-1.295,4.334-0.981,7.629,1.032,11.491c4.971,9.544,12.725-6.908,14.867-10.467
			c1.601-2.659,3.165-5.084,4.7-6.761c6.227-6.795,10.103-11.358,14.978-17.727c-3.51,14.089-6.678,21.114-14.102,32.96
			c-3.474,5.546-6.834,11.269-8.872,19.546c-1.188,4.87-3.778,9.262-5.379,13.984c-1.492,4.374-2.127,9.394,3.322,11.125
			c4.977,1.578,8.204-1.659,10.952-5.296l1.614-2.195c1.078-1.483,2.15-2.92,3.325-4.18c14.035-14.951,10.703-33.521,16.667-51.592
			l4.417-13.206c1.1,5.014,1.855,8.91,2.882,14.853c1.951,11.333,7.102,24.638,1.863,35.698
			c-1.505,3.172-10.307,15.937-1.549,15.674c3.778-0.116,5.643-2.224,8.494-4.371c14.146-10.637,5.935-30.245,5.413-45.229
			c-0.449-12.642-6.557-23.979-5.854-36.75c0.659-11.965,6.63-22.02,8.749-33.609c2.757-15.052,3.81-24.812,3.946-38.412
			c5.005,15.561,7.678,26.655,10.903,44.59c4.588,25.52,5.389,40.346,5.824,66.316c0.688,41.142-1.595,63.713-9.888,104.076
			l13.033-1.272c5.859-15.627,8.322-24.52,11.075-40.995c2.591-15.473,2.544-24.461,2.943-40.162
			c0.163-6.481,0.209-10.794,0.119-16.255c4.296,8.397,6.819,14.715,10.075,24.888c7.177,22.408,9.393,36.272,8.51,59.879
			c-0.38,10.111-2.672,15.649-2.926,25.765c-0.493,19.676,1.206,30.757,7.147,49.478l10.343,1.361
			c-3.172-16.745-4.862-33.573-4.376-50.651c6.452,10.604,9.886,18.174,14.25,30.999c5.988,17.57,7.716,27.433,8.778,46.159
			l10.93-1.312c1.287-13.509,1.197-20.857-0.882-34.192c-4.162-26.729-23.623-39.571-30.044-64.817
			c-4.902-19.297-1.759-38.829-5.831-58.243c-2.718-12.966-7.925-24.449-13.607-36.172c-5.13-10.604-10.045-21.098-12.501-35.669
			c-2.528-15.015-5.149-25.018-2.917-40.561c1.009-7.021,2.004-11.218,4.221-17.466c18.741,14.044,28.122,26.648,37.005,49.504
			c7.583,19.516,6.558,33.623,7.702,53.954c0.822,14.644,0.734,22.638-0.09,37.372l8.158-1.434
			c5.93-17.802,7.418-28.695,5.976-47.457c-0.936-12.132-2.493-20.003-6.223-30.046c5.322,5.809,8.871,10.767,13.616,18.716
			c10.816,18.109,14.077,30.57,17.364,51.827c2.232,14.387,0.853,28.408,0.958,42.85c0.062,7.42,0.055,14.823-0.007,22.243
			l8.182,4.324c1.385-12.359,2.447-24.376,3.143-36.795c0.784-13.939,3.174-26.195,0.96-40.268
			c-2.119-13.472-4.822-22.336-10.352-32.734c21.359,20.414,33.949,35.247,52.518,61.367c8.241,11.597,14.634,24.105,20.929,36.936
			c5.794,11.791,11.722,23.586,21.789,36.849c21.533,28.371,35.552,42.263,63.493,63.697l7.277-11.539
			c-27.329-19.823-40.935-33.244-60.974-61.026c-16.63-23.061-24.759-38.078-34.573-64.24c12.688,5.84,20.419,10.146,32.896,18.208
			c45.368,29.306,67.312,53.354,94.723,101.629l6.497-9.623c-25.712-42.293-44.087-63.987-81.242-95.239
			c-26.474-22.268-43.157-33.192-73.771-48.293c-16.001-14.769-24.752-23.569-39.55-39.762
			c-17.356-18.993-28.794-35.798-40.141-52.8c-12.455-18.655-24.983-36.969-39.557-53.883c-7.873-9.146-14.148-16.255-20.524-23.187
			c20.052,16.617,38.233,28.247,65.599,42.805c25.507,13.567,42.491,15.121,68.029,28.637
			c38.174,20.195,59.206,34.148,90.738,64.482c30.742,29.564,46.175,49.327,67.799,86.842l2.35-0.873
			c-2.186-17.73-5.443-27.999-13.801-43.547c-6.432-11.951-11.646-19.181-20.171-27.438c10.545,4.409,17.73,8.803,28.058,16.825
			c16.026,12.47,24.088,21.701,34.558,39.591l2.298-1.12c-7.619-25.048-16.054-39.079-34.265-57.021
			c-17.171-16.918-36.533-19.721-55.562-31.891c-14.22-9.098-26.763-20.131-39.502-31.304c-18.855-16.531-38.976-31.96-63.42-37.068
			c-21.646-4.525-41.161-2.596-58.832-20.649c-9.602-9.808-14.482-16.824-19.946-28.988c23.967,4.411,38.128,7.539,62.425,13.758
			c40.844,10.442,63.763,17.695,103.117,32.67c1.431,6.245,2.747,9.965,5.592,15.865c11.586,24.058,27.373,35.53,52.477,39.834
			l3.825-11.856c-16.977-0.598-28.413-6.888-36.498-23.037c-3.052-6.092-4.258-10.315-4.63-16.708
			c7.588,3.221,12.438,5.167,20.614,8.305c10.881,4.167,20.147,16.549,32.864,11.32c7.523-3.097,11.783-7.351,15.119-15.125
			l-2.318-1.112c-3.062,7.133-6.822,10.89-13.729,13.728c-8.779,3.609-15.417-2.305-22.357-6.747
			c-2.648-1.698-5.51-3.368-8.712-4.594c-8.136-3.125-16.159-6.402-24.184-9.821c0.285,9.203,0.98,13.813,5.083,22.012
			c7.665,15.302,19.191,23.266,35.239,24.324l-2.028,6.286c-23.056-4.22-37.786-15.792-48.496-38.03
			c-2.993-6.208-4.176-9.869-5.702-16.678c-40.27-15.34-63.143-22.63-104.676-33.254c-22.807-5.836-44.236-10.442-67.372-14.666
			c6.663,15.359,11.054,22.732,22.53,34.451c18.287,18.689,37.814,16.691,60.102,21.354c32.62,6.819,55.187,31.443,80.351,52.124
			c11.467,9.436,23.547,17.925,36.885,24.129c15.083,7.024,27.185,10.702,40.008,23.34c15.194,14.968,23.397,27.057,30.102,45.428
			c-8.231-12.498-16.195-20.704-29.452-31.017c-12.507-9.723-20.584-14.257-35.214-19.755l-1.25,2.299
			c11.615,10.329,17.355,17.62,24.856,31.569c7.131,13.25,10.44,22.494,12.588,36.111c-20.118-34.198-35.644-53.619-65.006-81.859
			c-31.742-30.531-52.984-44.614-91.314-64.896c-25.531-13.513-42.514-15.066-68.022-28.634
			c-37.364-19.874-57.438-34.223-88.808-63.465l-1.728,1.978c22.753,23.119,45.102,47.173,64.16,73.839
			c6.33,8.848,11.958,17.375,17.633,25.867c11.354,17.02,22.888,33.972,40.387,53.117c14.94,16.348,23.772,25.216,39.979,40.172
			c30.672,15.118,47.131,25.868,73.591,48.122c36.301,30.539,54.759,52.039,79.758,93.052l-3.249,4.804
			c-26.503-46.295-49.46-70.529-93.568-99.025c-13.25-8.562-24.543-14.463-38.816-20.924c11.129,30.225,18.623,45.22,37.132,70.885
			c19.481,27.012,33.323,41.022,59.491,60.108l-4.419,7.004c-26.314-20.285-40.251-34.397-60.857-61.563
			c-13.585-17.891-20.21-35.275-30.636-54.381c-3.36-6.167-7.209-12.546-12.028-19.335c-20.441-28.757-33.726-43.955-59.236-67.768
			l-1.907,1.738c8.473,13.882,11.864,23.152,14.431,39.459c2.146,13.669-0.233,26.075-0.997,39.662
			c-0.717,12.929-1.338,20.482-2.701,32.834l-3.519-1.857c0.06-7.848,0.06-12.525-0.005-20.609
			c-0.105-14.591,1.255-28.722-0.99-43.259c-3.322-21.476-6.667-34.321-17.723-52.826c-6.084-10.183-10.285-15.62-18.517-23.949
			l-2.043,1.513c5.425,13.066,7.372,21.19,8.463,35.416c1.362,17.63,0.106,28.333-5.327,44.843l-3.533,0.615
			c0.696-12.994,0.665-20.875-0.09-34.316c-1.167-20.724-0.15-34.906-7.891-54.821c-9.686-24.888-19.662-37.272-40.567-52.663
			c-5.044,13.762-7.528,27.326-5.928,42.125c0.681,6.321,1.983,12.632,3.322,20.557c3.579,21.238,12.703,34.152,20.226,52.746
			c6.886,17.033,8.106,30.152,8.449,48.183c0.554,28.883,4.648,39.292,19.476,61.925c6.086,9.285,11.722,18.471,13.833,32.018
			c1.885,12.136,2.148,19.372,1.062,31.321l-6.218,0.748c-1.051-17.198-3.123-27.501-8.768-44.076
			c-5.627-16.545-9.669-23.928-18.867-38.54c-0.78,18.916-0.046,37.308,3.414,55.97l-5.257-0.693
			c-5.462-17.401-6.966-28.381-6.501-46.938c0.253-10.107,2.542-15.636,2.925-25.736c0.897-23.966-1.368-38.157-8.645-60.842
			c-3.9-12.188-6.759-18.915-12.768-30.105l-2.38,0.7c0.217,8.4,0.217,13.15,0,21.557c-0.398,15.552-0.347,24.447-2.904,39.767
			c-2.599,15.578-4.955,24.436-10.361,38.939l-8.016,0.782c7.792-38.325,9.874-61.405,9.215-101.109
			c-0.442-26.148-1.25-41.077-5.875-66.767c-3.75-20.855-6.752-32.534-13.504-52.531l-2.469,0.471
			c0.217,17.963-0.654,28.241-3.871,45.876c-2.162,11.818-8.121,21.67-8.795,33.963c-0.726,13.216,5.388,24.126,5.846,37.003
			c0.3,8.653,2.417,17.174,2.791,24.785c0.509,10.248-2.761,15.794-10.718,20.902c-0.922,0.594-3.765,1.697-4.775,0.881
			c0.068-3.646,6.91-12.358,7.441-18.683c0.994-11.675-2-19.184-3.909-30.234c-1.391-8.028-3.106-15.921-4.93-23.842l-7.28,21.778
			c-5.778,17.492-2.858,36.512-16.068,50.592c-1.309,1.393-2.469,2.964-3.54,4.439l-1.579,2.15c-2.066,2.729-4.43,5.604-8.233,4.398
			c-5.598-1.775-0.261-11.245,1.159-14.571c1.064-2.488,2.066-4.985,2.635-7.283c3.464-14.142,13.75-24.246,18.473-37.782
			c2.778-7.929,4.081-12.525,5.898-20.758l-2.247-1.138c-6.745,9.101-10.814,14.042-18.426,22.35
			c-3.601,3.924-10.21,17.556-13.438,19.175c-0.513,0.259-1.128,0.434-2.071-1.376c-1.663-3.18-1.925-5.683-0.929-9.114
			c4.933-11.938,13.106-25.979,24.027-32.923c6.607-4.2,12.544-5.771,17.544-12.969c8.93-12.85,6.117-24.993,8.038-39.541
			c2.927-22.189,7.606-37.173,1.917-59.864c-3.855-15.382-10.104-23.928-17.485-37.208c-18.135-32.674-39.128-47.899-63.989-71.988
			c-7.693-7.459-15.529-15.688-23.457-25.643c-24.834-31.177-38.112-49.487-60.154-82.926l-2.086,1.537
			c22.083,33.517,35.4,51.867,60.295,83.121c14.05,17.645,30.091,31.791,46.354,46.95c14.662,13.673,28.413,27.913,40.846,50.307
			c7.208,12.979,13.456,21.551,17.215,36.543c5.555,22.128,0.89,37.111-1.986,58.8c-2.61,19.748,2.172,36.091-18.218,47.12
			c-4.692,2.531-8.592,4.546-12.408,8.558C1582.686,2048.768,1578.264,2055.598,1573.077,2068.153"/></a>
		<a class="orgaos" name="pulmao" code="6"><path style="fill:#E8E0EF;" d="M1394.596,1672.516c-5.859-104.289,16.748-188.366-35.145-265.282
			c-62.635-92.833-176.111-54.839-242.627,29.613c-147.582,187.376-191.24,339.489-216.287,581.86
			c-12.953,125.354-11.055,198.78,8.369,323.199c32.373-29.17,53.842-42.9,93.303-59.688c65.934-28.053,115.4,7.369,181.131-21.23
			c118.859-51.721,159.809-147.271,201.217-275.89C1421.738,1869.612,1401.439,1794.277,1394.596,1672.516"/></a>
		<a class="orgaos" name="pulmao" code="6"><path style="fill:#DEA8CA;" d="M1394.432,1573.161c-18.27-28.886-29.531-47.773-47.609-79.672
			c-22.664-40.003-14.697-85.752-55.139-104.385c-48.668-22.42-81.99,24.004-125.092,56.765
			c-87.789,66.71-88.844,153.033-130.863,258.332c-64.068,160.586-96.418,258.223-107.805,432.089
			c-3.529,53.807-43.949,108.444-1.441,138.304c39.012,27.4,70.578-20.889,115.012-36.542
			c56.85-20.028,92.943-23.727,143.822-57.185c111.24-73.14,130.139-171.227,182.084-298.347
			c16.01-39.188,26.199-67.228,35.904-100.413c5.285,66.91,6.037,126.038-18.748,202.991
			c-41.41,128.619-82.352,224.169-201.217,275.894c-65.73,28.596-115.197-6.826-181.131,21.227
			c-39.461,16.787-60.93,30.518-93.303,59.688c-19.424-124.412-21.322-197.845-8.367-323.199
			c25.045-242.371,68.703-394.484,216.285-581.86c66.516-84.453,180.002-122.445,242.627-29.613
			C1393.795,1458.142,1395.506,1512.193,1394.432,1573.161"/></a>
		<a class="orgaos" name="pulmao" code="6"><path style="fill:#DCC8DF;" d="M1397.646,1721.375c-28.143-32.359-42.672-52.226-65.223-89.161
			c-47.297-77.469-171.658-234.625-85.799-218.321c21.705,4.121,34.297,9.319,52.268,22.838
			c40.135,30.195,25.152,78.072,52.254,121.551c15.104,24.229,26.59,40.025,42.48,57.466c-0.223,18.266-0.127,37.16,0.969,56.764
			c0.934,16.497,2.102,32.141,3.352,47.148L1397.646,1721.375z"/></a>
		<a class="orgaos" name="pulmao" code="6"><path style="fill:#CBB3D1;" d="M904.84,2314.819c16.258-7.577,30.572-14.048,50.854-23.053
			c26.447-11.747,40.383-21.575,68.111-29.356c48.811-13.694,81.061,10.841,129.416-4.566
			c54.848-17.478,79.646-45.592,122.215-86.115c27.094-25.785,48.848-49.491,67.139-74.091
			c-33.438,72.527-78.246,128.116-159.234,163.351c-65.73,28.603-115.197-6.822-181.131,21.23
			c-39.461,16.79-60.93,30.521-93.303,59.688C907.455,2332.604,906.103,2323.593,904.84,2314.819"/></a>
		<a class="orgaos" name="pulmao" code="6"><path style="fill:#DFC8DE;" d="M1318.633,1762.229c-4.166-66.551,11.912-119.973-25.016-168.958
			c-44.574-59.135-125.352-34.938-172.691,18.854c-105.037,119.345-136.33,213.863-153.943,370.607
			c-8.957,79.759-7.598,126.819,5.959,205.854c23.586-18.641,38.74-27.325,66.408-38.016c47.441-18.346,81.932,6.118,128.916-13.521
			c79.586-33.271,114.031-90.69,143.225-175.73C1336.555,1888.274,1323.486,1839.764,1318.633,1762.229"/></a>
		<a class="orgaos" name="pulmao" code="6"><path style="fill:#EFE6F2;" d="M1291.793,1764.228c-2.82-50.164,8.049-90.616-16.914-127.618
			c-30.125-44.66-84.721-26.387-116.717,14.242c-71.002,90.145-92.004,163.324-104.055,279.928
			c-6.229,60.298-5.316,95.625,4.033,155.477c15.568-14.025,25.898-20.637,44.877-28.712c31.725-13.492,55.521,3.545,87.141-10.21
			c57.188-24.881,76.885-70.857,96.799-132.729C1304.852,1859.054,1295.082,1822.809,1291.793,1764.228"/></a>
		<path style="fill:#B491BD;" d="M906.318,2324.9c15.652-7.287,29.715-13.639,49.375-22.37
			c26.447-11.748,40.391-21.578,68.111-29.354c24.553-6.892,44.912-4.105,65.24-1.599c-27.568-1.674-55.32-2.77-86.836,10.641
			c-39.461,16.787-60.93,30.518-93.303,59.688L906.318,2324.9z"/>
		<path style="fill:#B491BD;" d="M1137.992,2272.315c4.916-0.833,9.973-2.034,15.229-3.708
			c54.857-17.478,79.646-45.595,122.215-86.112c20.074-19.112,37.223-37.074,52.199-55.111
			c-31.895,58.097-74.768,103.356-144.295,133.604C1167.426,2267.914,1152.461,2271.086,1137.992,2272.315"/>
		<path style="fill:#D2BDD5;" d="M932.072,1817.332c50.494,52.772,89.934,76.092,158.906,93.951
			c54.486,14.11,88.41,13.728,143.791,4.275c71.875-12.266,113.625-31.208,171.555-77.827l-0.086,11.263
			c-85.836,67.489-157.119,89.027-263.734,79.688c-89.633-7.848-144.205-31.181-213.799-91.4L932.072,1817.332z"/>
		<path style="fill:#D2BDD5;" d="M907.994,1955.052c1.086,40.435,5.047,63.778,17.334,102.089
			c10.873,33.882,22.77,50.533,38.438,82.25c17.281,34.995,23.33,57.509,46.414,88.553c13.543,18.208,22.189,27.831,38.707,43.054
			l-19.156,3.563c-12.502-17.474-19.258-27.593-30.621-45.906c-19.461-31.348-28.631-50.259-45.459-83.26
			c-15.627-30.651-28.231-46.469-38.045-79.706c-8.707-29.494-11.367-47.362-11.654-78.271L907.994,1955.052z"/>
		<path style="fill:#BC9DC3;" d="M1406.238,1848.994c-85.732,67.746-156.352,89.286-263.729,79.688
			c-89.631-8.004-144.121-31.3-213.805-91.4l1.676-9.944c50.328,48.624,91.479,70.953,160.598,88.222
			c54.107,13.517,87.408,13.974,142.441,5.699c72.463-10.89,112.994-30.152,172.777-74.767L1406.238,1848.994z"/>
		<path style="fill:#BC9DC3;" d="M1039.393,2272.767l-9.662,1.79c-12.502-17.468-19.258-27.59-30.621-45.906
			c-19.461-31.345-28.631-50.256-45.465-83.261c-15.621-30.647-27.279-46.789-38.039-79.698
			c-9.99-30.559-9.119-46.049-11.654-78.271l1.605-12.87c4.719,34.958,6.502,56.447,19.771,93.358
			c12.02,33.441,22.77,50.529,38.438,82.249c17.281,34.992,23.33,57.509,46.414,88.546
			C1020.875,2253.086,1028.518,2262.105,1039.393,2272.767"/>
		<a class="orgaos" name="bronquiolos" code="3"><path style="fill:#CFBDD5;" d="M1418.469,1756.883c-23.332,29.832-37.006,46.26-62.01,74.527
			c-12.74,14.397-22,20.62-33.209,36.375c-20.916,29.419-23.641,51.95-35.871,86.409c-8.559,24.156-17.359,37.108-19.697,62.792
			c-1.656,18.136,3.086,28.414,2.715,46.629c-0.469,22.838-2.035,35.873-6.975,58.117c-1.881,5.765-3.488,8.937-7.006,13.775
			c-11.223,15.463,4.893-30.167,5.41-49.651c0.418-15.999,0.043-25.099-1.682-41.006c-4.064,13.461-6.129,21.138-9.41,34.835
			c-6.57,27.448-4.836,44.29-12.766,71.332c-4.217,14.421-3.309,47.371-12.926,36.214c-7.918-9.183,1.131-19.405,2.541-31.74
			c3.906-34.193,10.268-52.783,18.17-86.193c2.824-11.891,4.461-18.588,7.486-30.426c-5.764,9.236-8.93,14.513-14.371,23.965
			c-8.584,14.926-14.561,22.831-20.924,38.953c-5.004,12.669-4.684,46.22-9.859,33.625c-1.961-4.768-1.615-7.977-2.016-13.156
			c-2.141-28.087,12.717-42.197,24.641-67.402c9.033-19.112,17.066-28.183,26.445-47.114c11.355-22.934,15.75-36.904,25.455-60.668
			c14.619-35.767,22.582-56.078,36.193-92.289c-25.451,33.076-38.707,52.858-59.787,89.209
			c-19.529,33.664-28.805,53.801-44.953,89.41c-26.639,58.738-39.584,93.153-58.391,155.187l-5.541-11.3
			c10.691-27.072,16.248-42.582,25.205-70.353c7.027-21.79,8.068-35.182,16.641-56.347c11.395-28.143,20.076-43.447,38.203-67.33
			c-21.564,24.627-32.852,39.567-50.793,67.247c-18.811,29.002-29.225,45.903-42.703,78.046c-6.318,15.07-7.92,24.434-14.346,39.448
			c-10.951,25.591-18.588,39.54-34.092,62.361l-5.221-5.814c9.436-17.313,14.613-27.186,23.498-44.824
			c9.227-18.313,14.26-28.742,22.879-47.38c-22.723,15.667-34.418,27.705-49.828,51.297c-13.574,20.779-19.533,34.381-25.742,58.772
			l-4.391-9.477c6.234-18.723,10.957-29.021,21.004-45.788c17.52-29.255,38.734-36.208,58.008-64.199
			c19.174-27.854,21.838-48.92,39.811-77.656c20.496-32.786,40.568-44.754,60.207-78.118c12.238-20.778,19.184-32.799,27.299-55.719
			c4.344-12.276,6.385-19.399,9.211-32.158c-23.752,9.029-36.811,17.771-54.68,36.614c-21.207,22.366-24.918,42.043-38.514,70.263
			c-9.426,19.571-14.355,30.84-22.363,51.107l-2.789-6.93c6.266-28.889,12.047-45.044,25.463-71.072
			c9.156-17.784,15.281-27.41,27.4-43.096c-10.561,5.349-16.291,9.091-25.553,16.669c-21.537,17.637-28.729,33.663-42.957,58.222
			c-12.926,22.307-16.945,36.784-27.443,60.474c-5.258,11.891-8.201,18.607-13.357,30.546l-5.373-1.052
			c7.486-20.558,11.895-32.083,20.008-52.367c9.098-22.759,11.525-37.238,24.355-57.891c14.035-22.586,24.504-34.268,45.102-50.276
			c-36.418,14.146-56.395,25.021-88.457,48.132c-30.344,21.882-39.428,45.626-71.104,65.288
			c-27.313,16.943-44.682,24.126-75.635,31.225l1.428-11.364c30.203-11.275,46.834-19.68,74.119-37.424
			c37.01-24.07,56.525-41.285,85.545-75.474c-22.449-3.685-35.754-3.777-58.24-0.41c-50.047,7.506-80.363,23.962-115.305,62.577
			l1.633-14.834c32.996-35.009,60.08-50.086,106.066-59.053c28.148-5.491,45.254-5.467,73.395,0.075
			c19.23-6.608,29.918-10.996,48.318-19.85c47.98-23.088,70.221-45.803,113.453-77.697c39.684-29.278,61.6-46.571,99.449-78.445
			c-96.082-9.101-75.32,51.659-129.021,50.918c-26.469-0.361-40.313-10.563-66.617-13.71c-37.832-4.528-61.129-11.272-97.641,0.181
			c-41.492,13.01-65.182,30.727-90.605,67.764c9.275-21.698,17.629-33.35,34.891-48.647c12.096-10.72,20.064-15.783,34.705-22.046
			c-12.01-4.924-19.916-6.052-32.729-4.679c-19.779,2.128-32.164,8.772-45.451,24.402c13.625-22.524,29.016-33.394,53.91-38.078
			c20.926-3.941,32.557,7.591,53.736,9.608c34.438,3.285,54.221-7.231,88.613-3.432c24.617,2.722,38.625,21.808,62.133,13.632
			c14.92-5.18,23.311-11.784,32.295-25.393c-17.73-16.507-28.107-25.413-47.039-40.342c-31.117-24.543-49.648-37.219-83.576-57.157
			c-1.535,10.753-4.492,17.162-11.559,25.061c-14.607,16.333-35.523,19.58-53.967,8.366l3.934-15.649
			c11.9,7.758,24.07,7.659,35.865-0.287c8.697-5.859,12.912-12.369,14.947-23.061c-7.445-2.857-11.594-4.624-18.84-8.008
			c-10.32-4.824-19.686-3.716-25.857-13.693c-6.873-11.111-6.693-23.162,0.506-34.031l9.414-1.979
			c-2.232,10.535-1.666,17.597,2.221,27.582c8.834,22.695,33.516,14.909,54.189,26.09c29.797,16.107,46.332,26.103,73.682,46.489
			c24.662,18.385,31.229,42.091,60.037,51.61c41.555,13.725,70.328-53.871,107.85-30.521
			C1403.318,1733.181,1410.684,1741.324,1418.469,1756.883"/></a>
		<a class="orgaos" name="bronquiolos" code="3"><path style="fill:#0074B4;" d="M1411.113,1660.059c-28.688,2.909-45.543,2.008-73.805-3.951
			c-27.178-5.733-48.684-2.939-67.045-24.881c-12.553-14.998-7.428-31.14-18.229-47.592c-7.715-11.758-15.566-15.313-24.027-26.482
			c-18.238-24.067-26.369-40.499-34.668-70.062l-6.836,11.237c5.041,12.69,8.227,19.721,14.434,31.817
			c10.225,19.938,19.65,28.872,30.102,48.678c10.002,18.942,10.643,32.581,22.516,50.276c10.135,15.104,17.254,22.931,31.135,34.227
			c-21.332-7.376-34.258-9.752-56.682-10.429c-24.871-0.752-38.672,12.895-63.254,8.827c-18.053-2.99-26.055-12.949-43.781-17.654
			c-7.316-1.946-11.514-2.831-18.979-4.017l1.523,8.831c8.164,0.687,12.822,1.775,20.498,4.813
			c11.381,4.503,15.18,12.494,26.309,17.654c33.783,15.667,57.666-10.095,94.383-6.417c12.119,1.208,18.945,2.274,30.869,4.812
			c-17.539,7.547-27.154,12.867-43.016,23.798c-15.061,10.381-25.039,15.298-36.184,30.214c-5.598,7.504-5.566,14.309-12.146,20.868
			c-9.213,9.183-18.863,6.704-30.113,12.84c-15.561,8.493-23.928,14.605-36.934,27.009l3.789,4.811
			c13.732-11.791,22.734-17.319,39.221-24.074c11.344-4.641,19.793-1.744,30.115-8.547c12.859-8.479,12.283-21.865,23.268-32.906
			c13.301-13.358,23.617-17.436,39.979-26.201c14.484-7.759,23.033-11.502,38.465-16.853c19.396,2.571,30.373,3.808,49.85,5.62
			c29.641,2.757,46.414,3.812,76.16,4.813L1411.113,1660.059z"/></a>
		<a class="orgaos" name="bronquiolos" code="3"><path style="fill:#0074B4;" d="M1395.379,1746.781c-20.787,17.453-34.52,25.498-59.541,34.882
			c-26.123,9.794-43.93,22.378-70.053,12.595c-17.859-6.683-20.777-23.437-37.77-32.288c-12.146-6.324-20.641-5.415-33.17-10.845
			c-26.994-11.71-41.641-21.913-62.457-43.519l-0.822,13.328c10.229,8.521,16.234,13.034,27.217,20.441
			c18.09,12.197,30.432,15.179,48.66,27.141c17.436,11.446,24.256,23.043,42.75,32.438c15.795,8.021,25.605,11.221,42.928,13.987
			c-22.035,4.473-34.436,9.019-54.357,19.918c-22.094,12.092-27.912,31.096-51.273,40.131c-17.16,6.64-28.723,2.026-46.389,6.99
			c-7.289,2.05-11.369,3.422-18.441,6.219l5.379,6.942c7.457-3.586,12.037-5.017,20.145-6.294
			c12.02-1.896,19.002,3.145,31.109,1.957c36.715-3.603,45.795-38.369,79.598-53.975c11.154-5.146,17.613-7.714,29.203-11.604
			c-11.871,15.582-17.838,25.167-26.699,42.855c-8.418,16.794-14.885,26.202-17.785,44.964c-1.461,9.431,1.691,15.366-1.055,24.474
			c-3.846,12.751-13.412,15.524-20.445,26.659c-9.721,15.401-14.234,25.042-19.922,42.545l5.533,2.268
			c6.59-17.347,11.928-26.793,23.25-41.151c7.793-9.873,16.516-11.668,22.412-22.906c7.367-14.005,0.717-25.418,5.27-40.698
			c5.504-18.502,12.656-27.353,22.941-43.402c9.111-14.205,14.871-21.865,25.91-34.448c18.564-6.485,28.84-11.075,46.176-20.633
			c25.629-14.12,39.422-24.099,61.16-44.239L1395.379,1746.781z"/></a>
		<a class="orgaos" name="bronquiolos" code="3"><path style="fill:#F15D66;" d="M1370.426,1707.59c-23.975,12.061-39.068,16.64-65.441,19.829
			c-27.529,3.336-47.568,11.361-70.936-4.381c-15.982-10.76-15.262-27.77-29.932-40.435c-10.486-9.061-18.959-10.188-30.006-18.457
			c-23.809-17.826-35.906-31.253-51.592-57.253l-3.639,12.792c8.146,10.731,13.047,16.565,22.162,26.389
			c15.031,16.188,26.424,22.022,41.633,38.015c14.559,15.294,18.723,28.213,34.756,41.77c13.684,11.57,22.566,17.016,38.854,23.835
			c-22.424-0.883-35.469,0.598-57.203,6.481c-24.104,6.526-33.818,23.665-58.504,26.916c-18.139,2.387-28.418-4.855-46.68-4.22
			c-7.545,0.262-11.813,0.635-19.299,1.669l3.764,8.046c8.021-1.722,12.803-2.026,20.967-1.346
			c12.109,1.014,17.854,7.587,29.895,9.308c36.549,5.221,52.789-26.502,89.047-33.663c11.967-2.367,18.799-3.333,30.936-4.368
			c-14.898,12.362-22.754,20.277-35.148,35.409c-11.775,14.365-20.08,21.994-26.902,39.581c-3.426,8.845-1.625,15.376-6.236,23.597
			c-6.457,11.507-16.373,11.938-25.59,21.113c-12.748,12.693-19.197,21.015-28.463,36.724l4.9,3.523
			c10.123-15.339,17.326-23.271,31.424-34.567c9.688-7.766,18.563-7.444,26.703-16.989c10.16-11.895,6.113-24.602,13.797-38.407
			c9.305-16.716,18.152-23.641,31.6-36.839c11.898-11.676,19.131-17.768,32.578-27.4c19.314-3.187,30.18-5.194,49.375-9.121
			c29.213-5.989,45.623-9.855,74.467-17.56L1370.426,1707.59z"/></a>
		<a class="orgaos" name="bronquiolos" code="3"><path style="fill:#F15D66;" d="M1384.451,1797.668c-15.436,22.829-26.533,34.565-48.135,50.872
			c-22.553,17.026-36.393,34.309-64.061,32.519c-18.904-1.226-26.082-16.473-44.723-20.038c-13.324-2.544-21.252,0.813-34.711-0.761
			c-28.996-3.392-45.74-8.938-71.381-23.635l2.688,13.048c12.041,5.214,19.004,7.8,31.488,11.717
			c20.57,6.464,33.199,5.729,53.844,11.921c19.756,5.918,29.328,15.083,49.568,18.724c17.264,3.11,27.533,3.329,44.908,0.938
			c-20.016,10.72-30.748,18.696-47.061,34.985c-18.088,18.062-18.721,38.021-38.824,53.514
			c-14.762,11.375-27.086,10.316-42.766,20.229c-6.477,4.094-10.037,6.604-16.107,11.352l6.982,5.104
			c6.232-5.617,10.262-8.332,17.717-11.914c11.063-5.327,19.102-2.518,30.418-7.182c34.363-14.165,34.02-50.232,62.447-75.078
			c9.367-8.192,14.91-12.54,25.041-19.659c-7.355,18.439-10.59,29.388-14.496,48.973c-3.705,18.596-7.471,29.526-5.365,48.404
			c1.057,9.49,5.635,14.281,5.365,23.832c-0.365,13.376-8.844,18.836-12.697,31.58c-5.326,17.638-7.15,28.214-8.047,46.705
			l5.9,0.566c1.813-18.594,4.486-29.23,11.623-46.336c4.914-11.754,12.824-16.021,15.572-28.541
			c3.418-15.605-5.945-24.645-5.553-40.66c0.457-19.386,5.027-29.976,10.732-48.405c5.051-16.312,8.588-25.349,15.92-40.657
			c16.48-11.125,25.246-18.606,39.012-33.28c32.889-35.073,47.467-62.382,58.865-110.265L1384.451,1797.668z"/></a>
		<a class="orgaos" name="bronquiolos" code="3"><path style="fill:#A788B7;" d="M1421.16,1741.371c-21.678,5.008-33.912,7.793-55.621,12.649
			c-11.199,2.503-18.252,1.496-28.738,6.372c-17.467,8.124-22.814,20.567-35.283,35.839c-8.789,10.764-16.387,15.664-20.76,29.102
			c-3.617,11.077,0.025,18.467-2.119,29.958c-2.447,13.092-4.857,20.451-10.574,32.352c-1.912,2.708-3.596,4.009-6.615,5.102
			c-8.902,3.21,2.246-15.387,4.186-25.115c2.262-11.331,3.764-17.683,6.834-28.798c-4.334,6.368-6.625,10.094-10.357,16.872
			c-7.684,13.96-7.357,24.529-16.199,37.693c-4.543,6.754-6.533,20.424-13.178,16.029c-5.984-3.951,0.043-11.754,1.51-19.045
			c3.885-19.399,15.367-26.424,24.992-43.449c3.32-5.878,5.184-9.197,8.479-15.095c-5.23,2.876-8.135,4.597-13.178,7.814
			c-7.871,5.009-13.143,6.918-19.557,13.863c-5.02,5.427-7.373,22.702-10.586,15.917c-1.496-3.159-0.672-5.532-0.357-9.05
			c1.369-15.384,13.613-19.819,24.959-29.566c8.752-7.522,16.346-8.004,24.521-16.227c8.703-8.76,9.857-16.976,17.285-26.968
			c9.34-12.59,15.268-19.263,26.561-29.921c-14.826,5.99-22.996,10.132-36.682,18.618c-17.809,11.033-26.854,19.105-42.525,33.308
			c-25.631,23.244-38.871,38.399-58.748,67.265l-3.23-9.605c6.785-13.28,11.33-20.473,20.314-32.202
			c8.217-10.726,13.697-16.042,23.176-25.519c5-5,7.893-7.741,13.127-12.461c-9.08,1.472-14.188,2.896-22.77,6.352
			c-17.311,6.96-26.367,13.915-39.775,27.411c-6.191,6.234-8.281,11.19-14.551,17.337c-10.85,10.63-18.188,15.694-31.752,21.923
			l-3.486-6.089c9.039-5.607,13.943-9.22,22.049-16.24c4.768-4.122,7.367-6.588,11.748-11.15
			c-10.805,0.697-16.996,2.029-27.199,5.856c-12.949,4.86-20.059,9.146-30.594,18.468l-2.527-7.942
			c6.707-8.295,11.365-12.447,20.24-18.026c17.238-10.84,32.031-2.694,50.264-11.539c16.391-7.946,21.609-19.595,37.521-28.563
			c19.328-10.896,34.359-7.229,53.209-19.034c10.98-6.881,17.611-10.876,25.943-21.104c4.484-5.493,6.721-8.939,9.967-15.328
			c-16.178-7.581-28.127-8.586-45.236-3.805c-16.125,4.504-22.768,13.714-35.861,24.642c-8.943,7.472-13.766,12.043-21.75,20.642
			l-1.52-5.602c7.25-14.338,13.473-21.874,25.93-31.416c8.807-6.747,14.527-9.811,24.895-13.297
			c-8.02-2.117-12.854-2.588-21.102-2.049c-15.867,1.024-24.604,6.358-38.18,15.1c-11.619,7.475-16.299,14.448-26.488,23.962
			c-5.105,4.769-7.965,7.481-12.994,12.342l-4.02-3.231c7.58-9.025,12-13.997,20.041-22.552c9.043-9.611,12.867-16.951,23.9-23.855
			c10.477-6.561,17.504-9.046,29.611-10.494c-23.629-8.028-37.865-10.681-62.67-11.676c-23.641-0.951-36.826,7.938-60.41,5.905
			c-24.475-2.11-38.613-6.106-60.82-17.201l3.48-10.347c21.131,11.504,35.115,15.479,58.852,16.716
			c21.309,1.106,33.998-0.813,54.16-8.192c-9.014-8.561-14.609-12.911-25.039-19.447c-32.805-20.602-57.404-26.499-95.416-22.88
			l2.592-8.325c34.176-2.039,54.811,1.473,86.658,14.745c23.752,9.9,36.701,18.034,56.285,35.354
			c14.883,5.228,23.48,7.673,38.84,11.047c35.979,7.902,57.752,0.471,94,6.839c17.15,3.013,26.779,5.178,43.598,9.825
			c-29.75-10.732-46.107-19.819-71.322-39.648c-18.119-14.251-24.242-27.483-42.33-41.785c-25.68-20.307-41.893-31.102-72.65-40.726
			c-29.244-9.151-47.459-11.043-77.834-8.089c10.486-8.244,18.16-11.471,31.139-13.103c11.129-1.41,17.973-0.652,28.598,3.145
			c-8.084-9.124-13.889-13.509-24.684-18.613c-13.383-6.346-22.418-8.019-37.051-6.875c16.787-7.584,29.074-8.492,46.695-3.455
			c18.16,5.19,23.504,18.809,39.57,29.152c24.549,15.808,43.246,15.909,66.285,34.08c21.598,17.039,20.957,47.097,47.271,53.305
			c10.295,2.432,16.76,2.414,27.039-0.067c-12.006-18.971-19.154-29.426-32.436-47.418c-21.133-28.648-34.004-44.144-58.125-70.015
			c-4.334,2.527-7.08,3.568-11.949,4.527c-17.832,3.524-33.268-4.098-42.146-20.823l4.422-7.722
			c4.369,12.325,15.229,19.065,27.539,17.075c5.811-0.939,9.26-2.719,13.543-6.977c-5.457-5.341-8.484-8.418-13.729-13.984
			c-7.471-7.915-16.371-9.927-18.604-20.857c-1.637-7.997-0.678-13.74,3.455-20.658l7.4,3.311c2.783,9.188,4.965,14.263,9.65,22.541
			c8.256,14.561,16.852,19.683,27.813,32.085c21.883,24.772,37.16,35.963,57.299,62.342c16.65,21.831,19.043,40.223,38.543,59.23
			c26.686,26,60.494,12.703,84.301,41.65C1410.689,1716.659,1415.58,1725.405,1421.16,1741.371"/></a>
		<a class="orgaos" name="bronquios" code="4"><path style="fill:#4A60AC;" d="M1411.113,1660.059c4.986,7.312,8.002,11.3,13.656,18.033
			c10.361,12.331,16.896,18.771,29.244,28.846c-22.072,33.475-35.367,51.809-60.227,83.021
			c-31.895,40.042-62.266,52.299-87.33,97.442c-7.684,13.851-13.447,21.354-17.348,36.88c-5.613,22.374-1.076,36.398,1.953,59.325
			c2.027,15.371-0.898,26.428,7.789,38.937c6.59,9.469,15.322,9.22,23.197,17.512c9.072,9.544,13.402,16.237,18.521,28.632
			c1.141,3.853,0.865,6.766-0.977,10.3c-4.545,8.715-10.998-10.36-17.545-17.504c-7.643-8.35-11.736-13.312-18.52-22.457
			c1.807,8.17,3.098,12.728,5.848,20.605c5.449,15.603,14.566,21.797,18.525,37.897c2.191,8.944,10.336,17.133,1.967,19.797
			c-6.771,2.147-8.688-2.333-13.666-7.64c-14.02-14.933-9.809-31.229-16.367-51.089c-2.266-6.837-3.549-10.692-5.848-17.508
			c-1.73,7.499-2.592,11.771-3.906,19.365c-2,11.563-4.896,18.153-3.889,29.87c0.693,8.168,12.621,20.628,4.869,20.39
			c-3.398-0.1-5.029-2.036-7.799-4.118c-13.346-10.03-5.482-26.79-4.873-44.086c0.508-14.571,6.648-22.319,5.846-36.876
			c-0.752-13.643-6.318-20.366-8.773-33.783c-3.24-17.74-4.113-28.08-3.898-46.148c-6.721,19.919-9.713,31.553-13.447,52.325
			c-4.611,25.604-5.406,40.49-5.844,66.541c-0.68,40.196,1.479,63.305,9.545,102.595l-10.518-1.03
			c-5.656-15.06-8.059-24.013-10.727-39.964c-2.574-15.397-2.521-24.338-2.924-39.968c-0.211-8.438-0.211-13.198,0-21.633
			c-5.959,11.106-8.793,17.781-12.664,29.874c-7.23,22.548-9.477,36.576-8.578,60.363c0.375,10.102,2.674,15.633,2.916,25.748
			c0.484,19.007-1.1,30.184-6.816,48.206l-7.799,1.032c2.484-13.096,3.354-20.652,3.898-33.991c0.314-7.547,0.314-11.826,0-19.365
			c-7.967,12.659-11.697,20.509-16.57,34.814c-5.748,16.899-7.75,27.188-8.773,45.112l-8.568-1.027
			c-1.215-12.718-0.99-20.141,0.975-32.755c4.316-27.722,23.117-37.554,30.012-64.688c5.621-22.084,1.172-35.979,5.855-58.301
			c6.15-29.324,21.129-42.327,26.113-71.896c2.664-15.786,5.201-25.146,2.924-40.995c-1.117-7.728-2.199-12.081-4.869-19.365
			c-19.836,14.595-29.604,27.462-38.795,51.093c-7.711,19.84-6.588,32.967-7.791,54.385c-0.785,13.952-0.785,21.885,0,35.845
			l-5.855-1.034c-5.697-17.108-7.043-28.06-5.645-46.141c1.102-14.377,3.086-22.65,8.574-35.849
			c-8.15,8.249-12.293,13.601-18.324,23.691c-10.928,18.307-14.236,30.959-17.545,52.332c-2.561,16.572-0.848,26.253-0.971,43.055
			c-0.064,8.352-0.064,13.064,0,21.421l-5.852,3.09c-1.51-13.536-2.158-21.205-2.924-34.813
			c-0.867-15.568-3.391-24.587-0.977-39.967c2.596-16.487,6.051-25.93,14.629-39.967c-25.447,23.753-38.672,38.891-59.063,67.575
			c-19.164,26.95-22.732,47.448-42.686,73.75c-20.967,27.612-35.076,41.825-62.184,62.628l-5.846-9.271
			c26.727-19.39,40.574-33.318,60.231-60.569c17.326-24.033,25.494-39.413,35.857-67.571c-14.467,6.546-22.432,10.893-35.857,19.573
			c-44.488,28.742-67.32,53.073-94.148,100.328l-4.875-7.216c25.32-41.634,43.863-63.325,80.504-94.146
			c26.445-22.238,43.051-33.107,73.686-48.204c16.107-14.878,24.891-23.695,39.752-39.964
			c34.861-38.144,45.953-67.507,79.723-106.713c16.006-18.574,25.369-28.742,42.494-46.148
			c-31.451,29.324-51.611,43.73-89.072,63.655c-25.51,13.571-42.494,15.125-68.027,28.638
			c-38.256,20.243-59.387,34.258-91.031,64.686c-30.834,29.655-46.34,49.519-68.027,87.144c2.162-17.559,5.367-27.66,13.648-43.058
			c7.578-14.087,13.414-21.497,25.144-31.933c-14.519,5.454-22.484,9.924-34.887,19.571c-16.17,12.569-24.338,21.93-34.897,39.967
			c7.553-24.83,15.865-38.667,33.912-56.444c17.967-17.701,34.35-18.289,55.359-31.728c32.973-21.089,45.959-42.507,80.508-60.567
			c30.014-15.691,57.393-4.034,81.475-28.638c10.305-10.534,15.277-17.942,21.24-31.724c-25.479,4.658-39.773,7.786-64.914,14.213
			c-41.107,10.518-64.078,17.809-103.885,32.963c-1.475,6.58-2.746,10.252-5.652,16.275c-11.051,22.961-26.416,34.811-50.481,38.936
			l-2.924-9.063c16.482-0.578,28.148-8.285,35.863-23.692c3.455-6.904,4.627-11.553,4.869-19.365
			c-8.682,3.698-13.615,5.692-22.408,9.066c-12.365,4.74-19.717,16.371-31.973,11.331c-7.217-2.968-11.217-6.978-14.418-14.425
			l8.572-7.001c10.207,1.145,16.113,1.145,26.316,0c19.773-2.212,29.658-9.885,48.535-16.483
			c38.004-13.29,58.088-25.371,96.869-35.841c30.557-8.251,49.986-3.802,79.527-15.456c45.674-18.017,64.953-43.153,100.973-77.868
			C1347.879,1767.844,1375.404,1730.476,1411.113,1660.059"/></a>
		<a class="orgaos" name="bronquios" code="4"><path style="fill:#4B70AF;" d="M1342.541,2068.153c1.299,4.334,0.986,7.629-1.025,11.484c-4.979,9.545-12.732-6.901-14.871-10.46
			c-1.598-2.659-3.158-5.084-4.701-6.761c-6.219-6.795-10.102-11.358-14.967-17.727c3.506,14.089,6.668,21.114,14.092,32.96
			c3.473,5.546,6.84,11.269,8.867,19.543c1.203,4.873,3.791,9.265,5.393,13.983c1.488,4.378-7.402,10.323-12.852,12.055
			c-4.979,1.577,1.324-2.593-1.432-6.222l-1.615-2.195c-1.076-1.483-2.141-2.924-3.322-4.18
			c-14.035-14.951-10.695-33.524-16.672-51.592l-4.404-13.212c-1.107,5.019-1.857,8.916-2.887,14.858
			c-1.957,11.327-7.102,24.634-1.861,35.698c1.496,3.165,10.307,15.937,1.547,15.674c-3.775-0.116-5.648-2.227-8.498-4.371
			c-14.148-10.637-5.932-30.245-5.406-45.229c0.443-12.642,6.551-23.979,5.846-36.75c-0.652-11.965-6.631-22.02-8.752-33.609
			c-2.746-15.052-3.807-24.812-3.934-38.412c-5.018,15.561-7.68,26.655-10.91,44.59c-4.594,25.52-5.393,40.346-5.818,66.313
			c-0.693,41.146,1.594,63.717,9.885,104.08l-13.037-1.272c-5.859-15.627-8.322-24.52-11.068-40.995
			c-2.598-15.473-2.545-24.461-2.949-40.165c-0.164-6.479-0.205-10.791-0.125-16.252c-4.291,8.397-6.807,14.711-10.068,24.884
			c-7.178,22.412-9.398,36.271-8.508,59.875c0.377,10.115,2.664,15.654,2.92,25.772c0.492,19.676-1.193,30.757-7.141,49.474
			l-10.342,1.365c3.174-16.745,4.855-33.576,4.371-50.651c-6.445,10.604-9.885,18.174-14.25,30.996
			c-5.984,17.573-7.711,27.436-8.781,46.161l-10.93-1.313c-1.285-13.51-1.189-20.854,0.887-34.189
			c4.16-26.729,23.621-39.571,30.041-64.82c4.91-19.294,1.758-38.83,5.84-58.24c2.717-12.966,7.926-24.449,13.607-36.18
			c5.125-10.6,10.039-21.09,12.502-35.661c2.527-15.019,5.148-25.018,2.916-40.561c-1.01-7.024-2.004-11.218-4.221-17.466
			c-18.744,14.044-28.121,26.648-37.014,49.501c-7.58,19.519-6.557,33.626-7.699,53.957c-0.816,14.644-0.729,22.638,0.096,37.368
			l-8.162-1.438c-5.936-17.794-7.414-28.688-5.969-47.449c0.932-12.132,2.492-20.003,6.215-30.049
			c-5.314,5.812-8.863,10.77-13.619,18.719c-10.814,18.109-14.072,30.57-17.367,51.827c-2.223,14.387-0.844,28.408-0.957,42.85
			c-0.051,7.42-0.041,14.823,0.008,22.24l-8.18,4.323c-1.385-12.355-2.438-24.372-3.141-36.791
			c-0.781-13.939-3.168-26.195-0.963-40.268c2.121-13.472,4.822-22.336,10.363-32.734c-21.363,20.414-33.959,35.247-52.523,61.367
			c-8.236,11.597-14.637,24.105-20.939,36.932c-5.781,11.795-11.709,23.59-21.775,36.853
			c-21.535,28.371-35.563,42.263-63.496,63.697l-7.279-11.543c27.324-19.819,40.936-33.24,60.967-61.022
			c16.635-23.061,24.768-38.078,34.582-64.24c-12.686,5.837-20.416,10.143-32.895,18.208
			c-45.369,29.306-67.316,53.354-94.723,101.629l-6.506-9.623c25.713-42.293,44.094-63.987,81.252-95.239
			c26.471-22.268,43.156-33.192,73.77-48.293c16.006-14.769,24.752-23.572,39.541-39.762c17.363-18.996,28.801-35.798,40.15-52.8
			c12.447-18.655,24.977-36.969,39.553-53.883c7.877-9.146,14.143-16.255,20.521-23.187c-20.051,16.613-38.225,28.247-65.588,42.805
			c-25.51,13.563-42.502,15.121-68.033,28.637c-38.174,20.195-59.203,34.148-90.736,64.475
			c-30.75,29.571-46.178,49.334-67.801,86.849l-2.35-0.873c2.182-17.737,5.443-27.999,13.803-43.55
			c6.42-11.948,11.637-19.178,20.16-27.435c-10.537,4.404-17.732,8.797-28.053,16.825c-16.029,12.467-24.084,21.701-34.56,39.591
			l-2.295-1.124c7.621-25.044,16.057-39.075,34.262-57.021c17.166-16.914,36.537-19.721,55.563-31.892
			c14.227-9.093,26.762-20.126,39.512-31.303c18.854-16.527,38.971-31.956,63.418-37.064c21.639-4.532,41.158-2.596,58.822-20.649
			c9.604-9.808,14.482-16.829,19.951-28.992c-23.967,4.415-38.131,7.543-62.43,13.752c-40.834,10.449-63.752,17.705-103.111,32.68
			c-1.424,6.245-2.75,9.961-5.59,15.865c-11.588,24.058-27.369,35.53-52.477,39.834l-3.824-11.856
			c16.969-0.598,28.404-6.888,36.494-23.04c3.049-6.092,4.256-10.313,4.635-16.705c-7.598,3.218-12.438,5.167-20.619,8.305
			c-10.883,4.167-20.15,16.549-32.857,11.32c-7.533-3.104-11.785-7.355-15.123-15.125l2.316-1.112
			c3.066,7.133,6.816,10.883,13.729,13.728c8.777,3.609,15.422-2.305,22.353-6.751c2.647-1.697,5.508-3.364,8.715-4.593
			c8.137-3.122,16.154-6.399,24.19-9.821c-0.293,9.206-0.982,13.816-5.084,22.015c-7.662,15.302-19.197,23.266-35.244,24.324
			l2.035,6.283c23.043-4.217,37.785-15.789,48.486-38.027c2.992-6.212,4.178-9.869,5.715-16.682
			c40.26-15.336,63.129-22.63,104.674-33.25c22.797-5.836,44.236-10.442,67.367-14.67c-6.658,15.363-11.055,22.735-22.527,34.455
			c-18.283,18.687-37.813,16.691-60.102,21.354c-32.621,6.819-55.193,31.443-80.35,52.124
			c-11.475,9.436-23.557,17.921-36.889,24.129c-15.086,7.021-27.184,10.702-40.01,23.337c-15.19,14.971-23.393,27.06-30.105,45.431
			c8.24-12.498,16.197-20.704,29.459-31.017c12.508-9.726,20.586-14.257,35.217-19.758l1.25,2.301
			c-11.617,10.33-17.359,17.618-24.865,31.57c-7.125,13.25-10.434,22.49-12.588,36.111c20.121-34.199,35.646-53.619,65.012-81.859
			c31.744-30.531,52.977-44.614,91.309-64.896c25.539-13.513,42.521-15.066,68.029-28.634
			c37.365-19.874,57.439-34.223,88.811-63.465l1.717,1.978c-22.746,23.116-45.096,47.173-64.156,73.839
			c-6.324,8.848-11.959,17.375-17.627,25.867c-11.355,17.02-22.898,33.972-40.398,53.117
			c-14.939,16.348-23.764,25.216-39.979,40.172c-30.664,15.118-47.131,25.868-73.582,48.122
			c-36.307,30.536-54.756,52.039-79.756,93.051l3.236,4.805c26.516-46.295,49.471-70.529,93.576-99.025
			c13.254-8.562,24.537-14.463,38.816-20.927c-11.133,30.228-18.627,45.219-37.139,70.885
			c-19.486,27.014-33.322,41.025-59.486,60.111l4.416,7c26.324-20.277,40.25-34.4,60.865-61.556
			c13.578-17.891,20.205-35.278,30.627-54.384c3.367-6.167,7.209-12.546,12.031-19.335c20.443-28.757,33.732-43.956,59.232-67.768
			l1.916,1.738c-8.479,13.882-11.869,23.149-14.432,39.454c-2.154,13.674,0.223,26.084,0.99,39.667
			c0.725,12.922,1.35,20.482,2.699,32.83l3.52-1.854c-0.051-7.848-0.051-12.525,0.008-20.609c0.115-14.591-1.258-28.722,0.99-43.259
			c3.318-21.479,6.67-34.321,17.719-52.826c6.088-10.183,10.293-15.627,18.521-23.952l2.049,1.516
			c-5.432,13.066-7.379,21.19-8.471,35.412c-1.355,17.634-0.105,28.336,5.33,44.847l3.537,0.615
			c-0.695-12.994-0.666-20.875,0.09-34.319c1.16-20.721,0.15-34.906,7.895-54.818c9.674-24.894,19.65-37.276,40.564-52.663
			c5.037,13.762,7.525,27.326,5.926,42.125c-0.678,6.321-1.988,12.632-3.32,20.554c-3.588,21.241-12.709,34.155-20.236,52.749
			c-6.881,17.033-8.096,30.152-8.447,48.183c-0.553,28.883-4.648,39.292-19.473,61.918c-6.092,9.292-11.719,18.478-13.83,32.023
			c-1.891,12.131-2.154,19.373-1.061,31.322l6.219,0.747c1.051-17.2,3.121-27.503,8.762-44.075
			c5.635-16.545,9.678-23.928,18.867-38.54c0.777,18.916,0.047,37.304-3.404,55.97l5.252-0.693
			c5.463-17.401,6.959-28.381,6.498-46.94c-0.256-10.104-2.545-15.637-2.92-25.733c-0.908-23.972,1.369-38.157,8.639-60.846
			c3.908-12.188,6.766-18.915,12.77-30.102l2.379,0.7c-0.209,8.4-0.209,13.15,0,21.551c0.406,15.558,0.346,24.453,2.904,39.772
			c2.611,15.571,4.953,24.433,10.367,38.939l8.018,0.782c-7.793-38.328-9.877-61.405-9.215-101.109
			c0.441-26.148,1.248-41.077,5.863-66.767c3.76-20.855,6.76-32.534,13.508-52.531l2.471,0.471
			c-0.219,17.963,0.656,28.241,3.875,45.876c2.166,11.818,8.125,21.67,8.795,33.96c0.727,13.219-5.395,24.129-5.844,37.006
			c-0.311,8.653-2.428,17.174-2.803,24.785c-0.502,10.248,2.771,15.794,10.729,20.902c0.92,0.594,3.754,1.697,4.775,0.881
			c-0.076-3.646-6.908-12.358-7.449-18.686c-0.994-11.672,2.004-19.181,3.916-30.235c1.381-8.024,3.105-15.917,4.922-23.838
			l7.277,21.778c5.777,17.492,2.861,36.512,16.076,50.588c1.313,1.396,2.467,2.968,3.541,4.439l1.578,2.154
			c2.07,2.729,1.957,1.101,5.758-0.105c5.6-1.782,2.729-6.741,1.307-10.07c-1.061-2.485-2.061-4.982-2.625-7.284
			c-3.473-14.138-13.754-24.245-18.48-37.778c-2.77-7.929-4.078-12.525-5.891-20.762l2.24-1.134
			c6.744,9.101,10.824,14.042,18.426,22.347c3.602,3.927,10.211,17.559,13.443,19.178c0.516,0.259,1.135,0.434,2.074-1.376
			c1.652-3.18,1.922-5.683,0.922-9.114c-4.936-11.938-13.109-25.979-24.031-32.926c-6.607-4.2-12.543-5.768-17.545-12.966
			c-8.916-12.85-6.105-24.993-8.027-39.544c-2.934-22.187-7.605-37.17-1.92-59.861c3.855-15.385,10.102-23.928,17.484-37.208
			c18.139-32.674,39.127-47.899,63.986-71.988c7.693-7.462,15.531-15.691,23.465-25.643c24.824-31.181,38.111-49.487,60.15-82.926
			l2.094,1.537c-22.098,33.517-35.414,51.867-60.299,83.121c-14.055,17.645-30.092,31.791-46.355,46.95
			c-14.672,13.673-28.412,27.913-40.842,50.307c-7.209,12.979-13.463,21.551-17.215,36.536c-5.555,22.135-0.891,37.115,1.971,58.803
			c2.615,19.747-2.168,36.095,18.229,47.124c4.686,2.531,8.586,4.539,12.402,8.558
			C1332.939,2048.768,1337.357,2055.598,1342.541,2068.153"/></a>
		<a class="orgaos" name="traqueia" code="5"><path style="fill:#4A60AC;" d="M1466.785,1215.703c-13.078,10.331-22.428,14.52-38.543,17.291
			c-21.225,3.644-35.35,1.271-54.449-9.155c12.318,122.62,18.854,191.848,29.695,314.617c3.965,44.807,23.631,72.319,9.906,114.927
			c-2.502,7.759-4.23,12.044-7.779,19.327l52.691,37.966c12.658-12.215,19.902-19.003,32.879-30.85
			c8.349-7.614,13.098-11.865,21.57-19.324c-5.695-26.673-8.496-41.842-12.73-68.822c-13.823-88.13-6.297-139.661-15.206-228.503
			C1479.039,1305.51,1475.07,1273.029,1466.785,1215.703"/></a>
		<a class="orgaos" name="traqueia" code="5"><path style="fill:#8E8CBB;" d="M1469.814,1236.955c-13.068,6.364-25.494,9.785-43.074,12.427
			c-19.605,2.944-34.408,3.182-50.371,0.165l0.947,9.519c16.393,2.421,29.85,2.553,49.424,0.94
			c18.188-1.498,30.146-3.548,45.146-8.102L1469.814,1236.955z"/></a>
		<a class="orgaos" name="traqueia" code="5"><path style="fill:#8E8CBB;" d="M1473.558,1264.343c-12.405,5.797-24.464,9.021-41.196,11.536
			c-20.844,3.132-36.262,3.201-53.418-0.444l0.955,9.659c17.813,2.87,31.689,3.12,52.463,1.411
			c17.348-1.434,29.035-3.362,43.094-7.494L1473.558,1264.343z"/></a>
		<a class="orgaos" name="traqueia" code="5"><path style="fill:#8E8CBB;" d="M1495.316,1556.142c-12.156,5.59-24.084,8.746-40.506,11.211
			c-17.965,2.698-31.902,3.122-46.389,0.854c0.738,3.243,1.508,6.42,2.268,9.544c14.117,1.711,26.701,1.659,44.121,0.222
			c16.998-1.399,28.543-3.281,42.227-7.232C1496.402,1565.766,1495.826,1560.902,1495.316,1556.142"/></a>
		<a class="orgaos" name="traqueia" code="5"><path style="fill:#8E8CBB;" d="M1493.02,1530.671c-11.383,4.962-22.822,7.871-38.209,10.187
			c-19.898,2.984-34.852,3.186-51.086,0.027c0.334,3.281,0.754,6.475,1.232,9.592c16.59,2.477,30.113,2.626,49.854,1.001
			c15.807-1.305,26.905-3.022,39.393-6.44C1493.752,1540.164,1493.363,1535.383,1493.02,1530.671"/></a>
		<a class="orgaos" name="traqueia" code="5"><path style="fill:#8E8CBB;" d="M1491.506,1504.821c-10.891,4.571-21.992,7.327-36.695,9.536
			c-20.873,3.135-36.307,3.201-53.498-0.461l0.861,9.647c17.9,2.893,31.803,3.152,52.637,1.435
			c14.973-1.236,25.727-2.838,37.436-5.912C1491.967,1514.259,1491.721,1509.522,1491.506,1504.821"/></a>
		<a class="orgaos" name="traqueia" code="5"><path style="fill:#8E8CBB;" d="M1490.594,1478.702c-10.604,4.347-21.489,7.009-35.783,9.157
			c-21.842,3.285-37.734,3.201-55.908-0.997l0.875,9.779c19.078,3.272,33.281,3.638,55.033,1.841
			c14.458-1.194,24.982-2.729,36.224-5.6L1490.594,1478.702z"/></a>
		<a class="orgaos" name="traqueia" code="5"><path style="fill:#8E8CBB;" d="M1489.928,1452.479c-10.395,4.179-21.123,6.783-35.117,8.883
			c-22.822,3.429-39.135,3.188-58.35-1.583l0.898,9.944c20.324,3.658,34.783,4.13,57.451,2.258
			c14.137-1.162,24.511-2.658,35.469-5.407L1489.928,1452.479z"/></a>
		<a class="orgaos" name="traqueia" code="5"><path style="fill:#8E8CBB;" d="M1489.105,1426.309c-10.143,3.993-20.674,6.508-34.295,8.558
			c-23.787,3.574-40.518,3.159-60.814-2.214l0.922,10.123c21.629,4.068,36.326,4.657,59.893,2.71
			c13.836-1.135,24.066-2.595,34.77-5.233L1489.105,1426.309z"/></a>
		<a class="orgaos" name="traqueia" code="5"><path style="fill:#8E8CBB;" d="M1487.808,1400.31c-9.743,3.707-19.953,6.096-32.997,8.056
			c-24.762,3.723-41.873,3.118-63.332-2.899l0.961,10.335c23.012,4.495,37.924,5.205,62.371,3.187
			c13.396-1.105,23.408-2.506,33.755-4.989C1488.348,1409.517,1488.094,1404.959,1487.808,1400.31"/></a>
		<a class="orgaos" name="traqueia" code="5"><path style="fill:#8E8CBB;" d="M1485.891,1374.524c-9.175,3.306-18.887,5.512-31.08,7.344
			c-25.742,3.868-43.205,3.064-65.893-3.637l1.004,10.575c24.467,4.936,39.561,5.775,64.889,3.684
			c12.709-1.048,22.37-2.36,32.16-4.611C1486.646,1383.516,1486.287,1379.068,1485.891,1374.524"/></a>
		<a class="orgaos" name="traqueia" code="5"><path style="fill:#8E8CBB;" d="M1483.17,1346.939c-10.035,3.92-20.488,6.408-33.973,8.433
			c-24.523,3.684-41.535,3.132-62.711-2.728l0.99,10.289c22.641,4.383,37.498,5.056,61.721,3.065
			c14.092-1.165,24.445-2.655,35.373-5.39L1483.17,1346.939z"/></a>
		<a class="orgaos" name="traqueia" code="5"><path style="fill:#8E8CBB;" d="M1480.233,1319.36c-10.876,4.555-21.968,7.312-36.655,9.514
			c-23.303,3.502-39.816,3.174-59.566-1.892l0.969,10.045c20.936,3.849,35.508,4.374,58.598,2.473
			c15.297-1.26,26.178-2.909,38.178-6.11L1480.233,1319.36z"/></a>
		<a class="orgaos" name="traqueia" code="5"><path style="fill:#8E8CBB;" d="M1477.047,1291.814c-11.672,5.19-23.303,8.194-39.078,10.562
			c-22.074,3.317-38.059,3.2-56.475-1.129l0.967,9.834c19.316,3.342,33.566,3.725,55.508,1.92
			c16.391-1.354,27.721-3.147,40.771-6.826L1477.047,1291.814z"/></a>
		<a class="orgaos" name="traqueia" code="5"><path style="fill:#8E8CBB;" d="M1498.448,1581.146c-13.284,6.543-25.813,10.021-43.638,12.703
			c-15.271,2.298-27.629,2.946-39.9,1.696c0.678,3.111,1.277,6.216,1.779,9.334c11.826,1.04,23.195,0.822,38.121-0.407
			c18.5-1.522,30.549-3.616,45.916-8.339l-0.701-4.453L1498.448,1581.146z"/></a>
		<a class="orgaos" name="traqueia" code="5"><path style="fill:#8E8CBB;" d="M1502.269,1605.684c-14.758,7.831-27.933,11.73-47.458,14.664
			c-13.885,2.086-25.361,2.813-36.547,1.99c0.035,2.992-0.07,6.03-0.35,9.143c11.395,0.914,22.488,0.679,36.896-0.513
			c20.164-1.659,32.662-3.999,50.139-9.672C1504.053,1616.301,1503.181,1611.203,1502.269,1605.684"/></a>
		<a class="orgaos" name="traqueia" code="5"><path style="fill:#8E8CBB;" d="M1506.531,1629.844c-16.583,9.418-30.341,13.789-51.721,17.002
			c-15.303,2.299-27.686,2.947-39.971,1.685c-0.434,1.595-0.912,3.216-1.445,4.853l-1.338,4.019
			c13.566,1.551,25.891,1.455,42.754,0.065c21.961-1.811,34.83-4.419,54.941-11.272
			C1508.572,1640.426,1507.514,1635.092,1506.531,1629.844"/></a>
		<g>
			
			<path style="fill:#CBB3D1;" d="M2007.947,2332.648c-16.258-7.573-30.577-14.045-50.85-23.05
				c-26.454-11.75-40.391-21.579-68.114-29.357c-48.811-13.696-81.063,10.843-129.413-4.564
				c-54.85-17.478-79.655-45.599-122.214-86.116c-27.093-25.792-48.846-49.49-67.138-74.095
				c33.434,72.53,78.245,128.118,159.233,163.355c65.723,28.603,115.199-6.823,181.134,21.227
				c39.458,16.787,60.926,30.524,93.299,59.688C2005.336,2350.437,2006.688,2341.422,2007.947,2332.648"/>
			<path style="fill:#B491BD;" d="M2006.472,2342.729c-15.649-7.284-29.714-13.636-49.375-22.37
				c-26.444-11.747-40.391-21.576-68.114-29.352c-24.551-6.891-44.917-4.107-65.247-1.604c27.576-1.671,55.33-2.763,86.849,10.64
				c39.451,16.791,60.926,30.525,93.299,59.691L2006.472,2342.729z"/>
			<path style="fill:#B491BD;" d="M1774.794,2290.145c-4.911-0.83-9.976-2.032-15.224-3.705
				c-54.856-17.481-79.655-45.596-122.22-86.115c-20.074-19.109-37.217-37.071-52.192-55.108
				c31.893,58.097,74.757,103.35,144.293,133.605C1745.363,2285.746,1760.326,2288.919,1774.794,2290.145"/>
			<path style="fill:#D2BDD5;" d="M1980.716,1835.16c-50.493,52.772-89.938,76.097-158.91,93.952
				c-54.484,14.11-88.412,13.73-143.787,4.275c-71.877-12.27-113.626-31.208-171.561-77.824l0.092,11.259
				c85.829,67.491,157.122,89.028,263.729,79.691c89.64-7.854,144.211-31.181,213.804-91.401L1980.716,1835.16z"/>
			<path style="fill:#D2BDD5;" d="M2004.795,1972.884c-1.086,40.432-5.051,63.775-17.335,102.089
				c-10.866,33.883-22.768,50.532-38.434,82.247c-17.289,34.998-23.33,57.512-46.413,88.553
				c-13.55,18.211-22.193,27.831-38.719,43.054l19.159,3.565c12.509-17.474,19.26-27.592,30.629-45.905
				c19.461-31.352,28.628-50.264,45.455-83.261c15.63-30.651,28.234-46.469,38.046-79.705c8.699-29.501,11.363-47.367,11.654-78.275
				L2004.795,1972.884z"/>
			<path style="fill:#BC9DC3;" d="M1506.551,1866.822c85.732,67.75,156.352,89.291,263.729,79.691
				c89.631-8.011,144.113-31.303,213.804-91.401l-1.675-9.947c-50.328,48.628-91.489,70.953-160.603,88.223
				c-54.101,13.516-87.401,13.977-142.438,5.702c-72.469-10.893-112.993-30.152-172.779-74.77L1506.551,1866.822z"/>
			<path style="fill:#BC9DC3;" d="M1873.399,2290.592l9.662,1.796c12.5-17.466,19.251-27.588,30.621-45.905
				c19.461-31.348,28.628-50.26,45.455-83.264c15.63-30.645,27.283-46.789,38.04-79.698c9.999-30.56,9.131-46.046,11.661-78.271
				l-1.61-12.874c-4.715,34.96-6.503,56.449-19.768,93.363c-12.027,33.442-22.768,50.529-38.434,82.247
				c-17.289,34.994-23.33,57.512-46.413,88.549C1891.917,2270.919,1884.274,2279.938,1873.399,2290.592"/>
		</g>
		<g>
			<path style="fill:#CBB3D1;" d="M904.84,2314.819c16.258-7.577,30.572-14.048,50.854-23.053
				c26.447-11.747,40.383-21.575,68.111-29.356c48.811-13.694,81.061,10.841,129.416-4.566
				c54.848-17.478,79.646-45.592,122.215-86.115c27.094-25.785,48.848-49.491,67.139-74.091
				c-33.438,72.527-78.246,128.116-159.234,163.351c-65.73,28.603-115.197-6.822-181.131,21.23
				c-39.461,16.79-60.93,30.521-93.303,59.688C907.455,2332.604,906.103,2323.593,904.84,2314.819"/>
			<path style="fill:#B491BD;" d="M906.318,2324.9c15.652-7.287,29.715-13.639,49.375-22.37
				c26.447-11.748,40.391-21.578,68.111-29.354c24.553-6.892,44.912-4.105,65.24-1.599c-27.568-1.674-55.32-2.77-86.836,10.641
				c-39.461,16.787-60.93,30.518-93.303,59.688L906.318,2324.9z"/>
			<path style="fill:#B491BD;" d="M1137.992,2272.315c4.916-0.833,9.973-2.034,15.229-3.708
				c54.857-17.478,79.646-45.595,122.215-86.112c20.074-19.112,37.223-37.074,52.199-55.111
				c-31.895,58.097-74.768,103.356-144.295,133.604C1167.426,2267.914,1152.461,2271.086,1137.992,2272.315"/>
			<path style="fill:#D2BDD5;" d="M932.072,1817.332c50.494,52.772,89.934,76.092,158.906,93.951
				c54.486,14.11,88.41,13.728,143.791,4.275c71.875-12.266,113.625-31.208,171.555-77.827l-0.086,11.263
				c-85.836,67.489-157.119,89.027-263.734,79.688c-89.633-7.848-144.205-31.181-213.799-91.4L932.072,1817.332z"/>
			<path style="fill:#D2BDD5;" d="M907.994,1955.052c1.086,40.435,5.047,63.778,17.334,102.089
				c10.873,33.882,22.77,50.533,38.438,82.25c17.281,34.995,23.33,57.509,46.414,88.553c13.543,18.208,22.189,27.831,38.707,43.054
				l-19.156,3.563c-12.502-17.474-19.258-27.593-30.621-45.906c-19.461-31.348-28.631-50.259-45.459-83.26
				c-15.627-30.651-28.231-46.469-38.045-79.706c-8.707-29.494-11.367-47.362-11.654-78.271L907.994,1955.052z"/>
			<path style="fill:#BC9DC3;" d="M1406.238,1848.994c-85.732,67.746-156.352,89.286-263.729,79.688
				c-89.631-8.004-144.121-31.3-213.805-91.4l1.676-9.944c50.328,48.624,91.479,70.953,160.598,88.222
				c54.107,13.517,87.408,13.974,142.441,5.699c72.463-10.89,112.994-30.152,172.777-74.767L1406.238,1848.994z"/>
			<path style="fill:#BC9DC3;" d="M1039.393,2272.767l-9.662,1.79c-12.502-17.468-19.258-27.59-30.621-45.906
				c-19.461-31.345-28.631-50.256-45.465-83.261c-15.621-30.647-27.279-46.789-38.039-79.698
				c-9.99-30.559-9.119-46.049-11.654-78.271l1.605-12.87c4.719,34.958,6.502,56.447,19.771,93.358
				c12.02,33.441,22.77,50.529,38.438,82.249c17.281,34.992,23.33,57.509,46.414,88.546
				C1020.875,2253.086,1028.518,2262.105,1039.393,2272.767"/>
		</g>
	</g>
</g>
</svg>
