<?xml version="1.0" encoding="utf-8"?>
<!-- Generator: Adobe Illustrator 27.5.0, SVG Export Plug-In . SVG Version: 6.00 Build 0)  -->
<svg version="1.1" xmlns="http://www.w3.org/2000/svg" xmlns:xlink="http://www.w3.org/1999/xlink" x="0px" y="0px"
	 viewBox="0 0 750 500" style="enable-background:new 0 0 750 500;" xml:space="preserve">
<g id="OBJECTS">
	<g>
		<g id="Kidneys">
			<a class="orgaos" name="artéria renal" code="1"><path style="fill:#D7EAF8;" d="M342.386,120.668c-11.113-4.789-12.933-4.829-14.379-10.394l-2.019,11.702
				c2.912-2.683,6.722-1.331,11.785,0.807c4.348,2.251-0.3,4.003-8.433,8.34c-8.137,4.339-9.528,3.585-10.535,1.595l1.584,9.507
				c0.237-1.336,1.926-3.918,9.552-7.913c11.984-6.277,15.542-8.87,20.977-5.741c5.759,3.142,11.213,7.74,11.213,14.754V109.47
				C362.131,119.589,353.767,125.573,342.386,120.668z M320.572,143.325l-0.183-1.101
				C320.258,142.965,320.572,143.325,320.572,143.325z"/></a>
			<a class="orgaos" name="arteria renal" code="1"><path style="fill:#F0F7FC;" d="M407.614,141.002c11.289,4.357,29.401,11.201,30.847,16.766v-10.967
				c-2.912,2.684-21.171-5.776-26.234-7.914c-4.348-2.251,0.3-4.003,8.433-8.34c8.137-4.339,9.528-3.585,10.535-1.595l-1.584-9.506
				c-0.237,1.336-1.926,3.918-9.552,7.913c-11.984,6.277-15.542,8.87-20.977,5.741c-5.759-3.142-11.213-7.74-11.213-14.754v33.854
				C387.869,142.081,394.907,136.097,407.614,141.002z M429.428,118.345l0.183,1.101
				C429.742,118.704,429.428,118.345,429.428,118.345z"/></a>
			<a class="orgaos" name="cava inferior" code="6"><path style="fill:#D7EAF8;" d="M380.48,227.868c-6.114-7.948-7.633-10.852-7.633-21.245V89.636c0-4.152-10.717-4.152-10.717,0
				v116.987c0,10.393-1.519,13.297-7.632,21.245c-6.114,7.948-8.1,19.257-8.1,26.899h6.113c0-12.38,7.336-28.428,14.978-29.039
				c7.642,0.611,14.978,16.659,14.978,29.039h6.113C388.581,247.126,386.594,235.816,380.48,227.868z"/></a>
			<a class="orgaos" name="artéria ilíaca" code="7"><path style="fill:#F0F7FC;" d="M377.152,187.543v19.081c0,10.393-1.519,13.297-7.633,21.245c-6.113,7.948-8.1,19.257-8.1,26.899
				h6.113c0-12.38,7.336-28.428,14.978-29.039c7.642,0.611,14.978,16.659,14.978,29.039h6.113c0-7.642-1.987-18.952-8.1-26.899
				c-6.114-7.948-7.633-10.852-7.633-21.245V89.636c0-4.152-10.717-4.152-10.717,0v74.4"/></a>
			<a class="orgaos" name="artérias renais" code="1"><path style="fill:#F0F7FC;" d="M377.152,164.036c0,8.877-2.024,8.877-12.38,7.233c-10.356-1.644-25.677-4.909-28.602-5.918
				c-2.926-1.009-22.271-18.411-22.271-18.411l-2.88,4.603c0,0,7.397,6.411,11.342,9.699c3.945,3.288,5.191,5.67,1.692,7.191
				c-3.5,1.521-9.253,6.617-9.253,6.617l-0.901,7.199c8.134-11.802,18.819-12.131,29.174-9.994
				c10.356,2.137,21.205,4.274,25.972,5.425c4.767,1.151,8.106,4.931,8.106,9.863"/></a>
			<a class="orgaos" name="artérias renais" code="1"><path style="fill:#D7EAF8;" d="M372.848,182.352c0,8.877,2.42,10.512,12.38,7.233c13.101-4.313,19.85-6.285,27.11-8.94
				c12.173-4.451,22.054-25.938,22.054-25.938l2.88,4.603c0,0-4.285,6.58-8.789,13.158c-4.504,6.578-1.621,6.506,1.592,6.506
				s13.367-0.257,13.367-0.257l0.415,4.093c-12.913,0.352-21.23-0.368-31.261,2.976c-11.953,3.984-24.726,8.533-31.641,10.925
				c-4.635,1.603-8.106,4.217-8.106,9.148"/></a>
			<g>
				<a class="orgaos" name="ureter" code="3"><path style="fill:#E1B1A0;" d="M328.506,268.443c-2.759-2.99-6.673-12.654,0.919-27.608
					c7.592-14.954,19.555-28.987,19.555-53.834s-12.193-34.049-19.095-41.641c-6.902-7.592-8.282-15.644-6.902-22.316
					c-20.245,0-24.846,38.65-9.893,46.932c1.15-7.822,14.703-17.398,23.999-0.171c8.36,15.493,5.897,34.514-1.235,48.317
					c-7.132,13.803-15.282,26.163-15.282,37.665s6.208,17.919,6.208,17.919L328.506,268.443z"/></a>
				<a class="orgaos" name="rim" code="4"><path style="fill:#CF5F74;" d="M312.993,156.937c0,0,13.203,26.23-12.668,36.623c-13.331,5.355-31.731-3.894-38.618-16.976
					c-17.653-33.534-0.229-63.277,12.949-73.72c17.214-13.642,33.318-13.564,44.017-7.08c14.415,8.736,10.92,28.829-0.874,34.945
					C322.593,139.033,321.292,150.385,312.993,156.937z"/></a>
				
					<linearGradient id="SVGID_00000072991703999654991180000002542331504859019655_" gradientUnits="userSpaceOnUse" x1="254.229" y1="158.3299" x2="320.5723" y2="158.3299">
					<stop  offset="0" style="stop-color:#CF5F74"/>
					<stop  offset="0.9721" style="stop-color:#A73244"/>
				</linearGradient>
				<a class="orgaos" name="rim" code="4"><path style="fill:url(#SVGID_00000072991703999654991180000002542331504859019655_);" d="M319.83,135.617
					c-0.365,3.966-1.44,7.871-4.68,9.919c-2.842,1.796-6.482,1.524-9.811,1.062c-2.41-0.335-5.233-0.604-6.917,1.153
					c-0.716,0.748-1.095,1.767-1.247,2.791c-0.769,5.182,3.713,10.737,1.21,15.34c-1.432,2.635-4.69,3.731-7.688,3.837
					c-6.135,0.217-12.047-2.758-16.567-6.912c-9.177-8.432-13.15-21.278-13.869-33.719c-0.143-2.478-0.145-5.015,0.042-7.534
					c-6.907,14.243-9.732,33.879,1.403,55.03c6.887,13.082,25.287,22.331,38.618,16.976c25.872-10.393,12.669-36.623,12.669-36.623
					C319.752,151.6,321.867,143.081,319.83,135.617z"/></a>
			</g>
			<g>
				<a class="orgaos" name="ureter" code="3"><path style="fill:#E1B1A0;" d="M421.494,268.443c2.759-2.99,6.673-12.654-0.919-27.608
					c-7.592-14.954-19.555-28.987-19.555-53.834s12.193-34.049,19.095-41.641c6.902-7.592,8.282-15.644,6.902-22.316
					c20.245,0,24.846,38.65,9.892,46.932c-1.15-7.822-14.703-17.398-23.999-0.171c-8.36,15.493-5.897,34.514,1.235,48.317
					c7.132,13.803,15.282,26.163,15.282,37.665s-6.208,17.919-6.208,17.919L421.494,268.443z"/></a>
				<a class="orgaos" name="rim" code="4"><path style="fill:#CF5F74;" d="M437.007,156.937c0,0-13.203,26.23,12.668,36.623c13.331,5.355,31.731-3.894,38.618-16.976
					c17.653-33.534,0.229-63.277-12.949-73.72c-17.214-13.642-33.318-13.564-44.016-7.08c-14.415,8.736-10.92,28.829,0.874,34.945
					C427.407,139.033,428.708,150.385,437.007,156.937z"/></a>
				
					<a class="orgaos" name="rim" code="4"><linearGradient id="SVGID_00000098928492082278752090000012483678542152166067_" gradientUnits="userSpaceOnUse" x1="3334.229" y1="158.3299" x2="3400.5723" y2="158.3299" gradientTransform="matrix(-1 0 0 1 3830 0)">
					<stop  offset="0" style="stop-color:#CF5F74"/>
					<stop  offset="0.9721" style="stop-color:#A73244"/>
				</linearGradient></a>
				<a class="orgaos" name="rim" code="4"><path style="fill:url(#SVGID_00000098928492082278752090000012483678542152166067_);" d="M430.17,135.617
					c0.365,3.966,1.44,7.871,4.68,9.919c2.842,1.796,6.482,1.524,9.811,1.062c2.41-0.335,5.233-0.604,6.917,1.153
					c0.716,0.748,1.095,1.767,1.247,2.791c0.769,5.182-3.713,10.737-1.21,15.34c1.432,2.635,4.69,3.731,7.688,3.837
					c6.135,0.217,12.047-2.758,16.567-6.912c9.177-8.432,13.15-21.278,13.869-33.719c0.143-2.478,0.145-5.015-0.042-7.534
					c6.907,14.243,9.732,33.879-1.403,55.03c-6.887,13.082-25.287,22.331-38.618,16.976c-25.872-10.393-12.668-36.623-12.668-36.623
					C430.248,151.6,428.133,143.081,430.17,135.617z"/></a>
			</g>
			<a class="orgaos" name="bexiga" code="5"><path style="fill:#CF5F74;" d="M375,243.717c-31.003,0-51.804,16.535-51.804,35.432c0,18.897,15.649,31.003,21.259,33.66
				c5.61,2.657,12.696,5.61,12.992,12.106c0.295,6.496,3.543,10.039,7.086,11.515c3.543,1.476,5.02,4.724,5.02,8.858v0.753
				c0,3.008,2.439,5.447,5.447,5.447l0,0c3.008,0,5.447-2.439,5.447-5.447v-0.753c0-4.134,1.476-7.382,5.02-8.858
				c3.543-1.476,6.791-5.02,7.086-11.515c0.295-6.496,7.382-9.448,12.992-12.106c5.61-2.657,21.259-14.763,21.259-33.66
				C426.804,260.252,406.003,243.717,375,243.717z"/></a>
			
			<a class="orgaos" name="bexiga" code="5"><path style="fill: rgb(209, 214, 59);" d="M420.04,285.552c0,0.01,0,0.01,0,0.02c-0.05,0.24-0.11,0.47-0.17,0.7
				c-0.01,0.01-0.01,0.01-0.01,0.01c-3.23,12.12-13.9,19.69-16.88,21.1l-0.94,0.44c-5.99,2.82-15.04,7.07-15.48,16.82
				c-0.1,2.25-0.78,5.16-3.4,6.25c-4.19,1.74-7.03,5.17-8.16,9.7c-1.13-4.53-3.97-7.96-8.16-9.7c-2.62-1.09-3.3-4-3.4-6.25
				c-0.44-9.75-9.5-14-15.48-16.82l-0.94-0.44c-3.53-1.67-17.82-11.96-17.82-28.23c0-0.93,0.07-1.87,0.21-2.81
				c0.11-0.71,0.26-1.41,0.45-2.12c0-0.01,0-0.02,0.01-0.03c0.48-1.16,1.45-2.6,3.44-3.85c11.14-7.03,28.28-6.85,45.93,2.91
				c14.44,8,27.93,10.29,35.13,10.14C419.25,283.292,420.04,284.662,420.04,285.552z"/></a>
			<a class="orgaos" name="bexiga" code="5"><path style="fill:#D7FD63;" d="M420.04,285.552c0,0.01,0,0.01,0,0.02c-0.01,0.36-0.14,0.63-0.17,0.7
				c-0.01,0.01-0.01,0.01-0.01,0.01c-15.75,11.14-35.31,3.77-48.85-3.26c-13.54-7.02-28.27-10.45-41.6-6.68c0,0-0.05-0.9,0.45-2.12
				c0-0.01,0-0.02,0.01-0.03c0.48-1.16,1.45-2.6,3.44-3.85c11.14-7.03,28.28-6.85,45.93,2.91c14.44,8,27.93,10.29,35.13,10.14
				C419.25,283.292,420.04,284.662,420.04,285.552z"/></a>
		</g>
	</g>
</g>
</svg>
