<svg width="46" height="47" viewBox="0 0 46 47" fill="none" xmlns="http://www.w3.org/2000/svg">
<path d="M45.1138 5.74701C46.4674 4.3392 46.2518 2.24818 44.6226 1.07846C42.9935 -0.0912704 40.5737 0.0950575 39.22 1.50287L23.0002 18.3242L6.78045 1.50287C5.4268 0.0950575 3.00701 -0.0912704 1.37784 1.07846C-0.251324 2.24818 -0.466949 4.3392 0.886697 5.74701L18.0049 23.4999L0.886697 41.2529C-0.466949 42.6607 -0.251324 44.7517 1.37784 45.9214C3.00701 47.0912 5.4268 46.9048 6.78045 45.497L23.0002 28.6757L39.22 45.497C40.5737 46.9048 42.9935 47.0912 44.6226 45.9214C46.2518 44.7517 46.4674 42.6607 45.1138 41.2529L27.9956 23.4999L45.1138 5.74701Z" fill="#10293D"/>
</svg>
