<?xml version="1.0" encoding="UTF-8"?>
<!DOCTYPE svg PUBLIC "-//W3C//DTD SVG 1.1//EN" "http://www.w3.org/Graphics/SVG/1.1/DTD/svg11.dtd">
<svg id="svg-urinario" version="1.1" xmlns="http://www.w3.org/2000/svg" xmlns:xlink="http://www.w3.org/1999/xlink" x="0" y="0" width="841.89" height="595.276" viewBox="0, 0, 841.89, 595.276">
  <g id="Layer_1">
    <a class="orgaos" name="bexiga" code="1"><path d="M277.665,434.976 C277.665,471.042 253.355,484.388 222.413,485.664 C220.741,485.733 219.037,513.28 217.321,513.28 C214.851,513.28 212.411,485.695 210.029,485.545 C180.137,483.728 156.984,470.174 156.984,434.976 C156.984,396.956 183.99,366.127 217.321,366.127 C250.652,366.127 277.665,396.956 277.665,434.976" fill="#000000"/></a>
    <a class="orgaos" name="bexiga" code="1"><path d="M215.743,458.425 C227.423,458.425 242.435,455.401 242.435,459.494 C242.435,463.077 220.112,478.334 219.106,483.646 C218.899,484.721 217.158,486.676 216.573,486.676 L216.428,486.676 C215.837,486.676 214.096,484.721 213.895,483.646 C212.883,478.334 190.566,463.077 190.566,459.494 C190.566,455.401 205.584,458.425 217.271,458.425 L215.743,458.425 z" fill="#454444"/></a>
    <a class="orgaos" name="bexiga" code="1"><path d="M216.243,458.925 C227.923,458.925 242.935,455.901 242.935,459.994 C242.935,463.577 220.612,478.834 219.606,484.146 C219.399,485.221 217.658,487.176 217.073,487.176 L216.928,487.176 C216.337,487.176 214.596,485.221 214.395,484.146 C213.383,478.834 191.066,463.577 191.066,459.994 C191.066,455.901 206.084,458.925 217.771,458.925 L216.243,458.925 z" fill-opacity="0" stroke="#757474" stroke-width="0.25" stroke-miterlimit="10"/></a>
    <a class="orgaos" name="rim" code="2"><path d="M166.42,184.468 C175.02,200.461 154.947,204.667 156.531,218.78 C157.317,225.745 93.001,264.639 117.631,166.181 C130.669,114.048 155.808,127.092 160.573,136.402 C168.746,152.32 161.529,175.372 166.42,184.468" fill="#E2E1E1"/></a>
    <a class="orgaos" name="rim" code="2"><path d="M158.87,200.895 C140.029,203.699 148.095,234.772 130.719,222.684 C117.342,213.386 118.637,205.962 122.233,194.175 C131.348,164.352 121.17,147.328 147.693,140.419 C170.003,125.634 143.053,177.157 165.603,180.778 C180.69,179.15 181.47,135.56 160.24,115.035 C141.538,96.961 123.685,118.706 117.97,133.24 C106.164,163.289 79.296,204.981 107.56,233.515 C117.009,243.058 132.58,249.357 146.561,244.227 C159.184,239.588 184.148,200.624 158.87,200.895" fill="#D4D4D4"/></a>
    <a class="orgaos" name="rim" code="2"><path d="M123.144,160.385 C130.166,162.504 142.739,170.997 140.79,176.183 C138.841,181.375 123.106,181.306 116.091,179.194 C109.069,177.069 110.609,172.845 112.564,167.652 C114.506,162.46 116.128,158.273 123.144,160.385" fill="#B0B0B0"/></a>
    <a class="orgaos" name="rim" code="2"><path d="M117.172,223.142 C121.025,218.39 132.234,211.054 136.465,213.82 C140.696,216.592 136.346,228.417 132.505,233.163 C128.651,237.909 125.187,235.703 120.963,232.937 C116.732,230.158 113.325,227.895 117.172,223.142" fill="#B0B0B0"/></a>
    <a class="orgaos" name="rim" code="2"><path d="M155.161,130.135 C155.972,135.371 153.438,146.498 148.284,147.133 C143.141,147.787 137.339,137.704 136.515,132.467 C135.711,127.211 139.879,126.665 145.027,126.011 C150.176,125.376 154.344,124.892 155.161,130.135" fill="#B0B0B0"/></a>
    <a class="orgaos" name="rim" code="2"><path d="M126.784,143.795 C130.738,144.92 137.729,149.943 136.528,153.3 C135.327,156.676 126.394,157.11 122.446,155.978 C118.498,154.853 119.448,152.118 120.636,148.743 C121.849,145.373 122.849,142.651 126.784,143.795" fill="#B0B0B0"/></a>
    <a class="orgaos" name="rim" code="2"><path d="M108.484,204.616 C112.03,204.095 119.894,205.635 120.774,208.791 C121.648,211.959 115.198,215.567 111.652,216.089 C108.107,216.605 107.378,214.033 106.51,210.878 C105.63,207.697 104.945,205.132 108.484,204.616" fill="#B0B0B0"/></a>
    <a class="orgaos" name="rim" code="2"><path d="M113.513,185.11 C117.04,185.128 123.213,187.863 122.063,191.182 C120.906,194.489 112.872,197.117 109.352,197.092 C105.825,197.066 106.736,194.376 107.893,191.069 C109.044,187.756 109.999,185.072 113.513,185.11" fill="#B0B0B0"/></a>
    <a class="orgaos" name="rim" code="2"><path d="M109.301,194.891 C115.512,194.256 128.274,195.633 128.55,198.871 C128.827,202.108 116.524,205.999 110.313,206.628 C104.109,207.238 103.845,204.623 103.568,201.385 C103.279,198.141 103.09,195.501 109.301,194.891" fill="#B0B0B0"/></a>
    <a class="orgaos" name="ureter" code="3"><path d="M174.397,334.079 C177.132,289.728 179.911,244.41 170.318,212.996 C169.978,203.013 168.293,193.552 165.515,184.116 C162.126,172.587 157.122,161.108 151.031,148.787 C152.376,148.02 153.57,146.693 154.495,144.908 C155.62,142.733 156.173,140.199 155.896,138.445 L154.495,138.621 C154.344,141.639 152.319,146.272 149.069,147.171 C148.881,147.24 148.686,147.29 148.491,147.303 C148.296,147.322 148.095,147.341 147.888,147.309 C145.272,147.284 142.663,144.933 141.123,142.525 C140.884,142.833 140.608,143.11 140.281,143.349 C140.149,143.456 140.011,143.544 139.872,143.632 C141.545,146.549 144.713,149.591 148.139,149.591 C148.315,149.591 148.485,149.572 148.661,149.553 C154.224,160.806 158.889,171.349 162.214,181.847 C164.547,189.233 164.301,198.104 162.617,195.363 C157.757,187.404 151.351,181.187 143.053,177.151 C143.694,174.718 142.764,171.858 140.363,169.004 C139.985,168.551 139.596,168.136 139.181,167.721 C139.099,167.96 138.999,168.168 138.848,168.363 C138.672,168.583 138.452,168.771 138.2,168.928 C139.539,170.619 140.482,172.505 140.551,174.297 C140.809,175.29 140.809,176.208 140.52,177 C139.256,180.37 132.932,181.897 128.701,181.727 C128.029,181.746 127.387,181.734 126.778,181.702 C127.199,182.381 127.513,183.123 127.614,183.909 C128.167,183.959 128.739,183.991 129.349,183.991 C133.825,183.991 139.596,182.532 142.054,179.244 C149.076,182.689 154.671,187.825 159.084,194.344 C160.624,196.626 157.059,199.468 156.261,199.537 C150.962,199.946 144.543,204.176 136.792,212.355 C134.441,211.318 131.304,211.343 127.79,212.456 C126.25,212.952 124.766,213.619 123.458,214.379 C123.854,214.763 124.188,215.196 124.42,215.687 C124.477,215.819 124.527,215.951 124.577,216.102 C127.274,214.668 130.7,213.644 133.624,213.908 C133.68,213.908 133.724,213.908 133.768,213.908 C134.919,214.027 135.981,214.354 136.886,214.945 C139.401,216.592 140.136,219.936 139.872,223.168 C140.338,222.904 140.796,222.728 141.255,222.684 C141.626,219.383 141.06,215.863 138.816,213.7 C146.957,205.132 153.476,201.134 158.178,201.825 C161.743,202.353 164.628,205.547 167.262,211.871 L167.369,211.833 C167.514,212.286 167.665,212.751 167.822,213.216 C167.822,213.336 167.822,213.436 167.834,213.549 L167.929,213.543 C177.402,244.523 174.624,289.722 171.902,333.941 C168.325,391.99 164.949,446.814 191.974,459.764 L193.156,457.771 C167.533,445.506 170.864,391.386 174.397,334.079" fill="#000000"/></a>
    <a class="orgaos" name="ureter" code="3"><path d="M174.897,334.579 C177.632,290.228 180.411,244.91 170.818,213.496 C170.478,203.513 168.793,194.052 166.015,184.616 C162.626,173.087 157.622,161.608 151.531,149.287 C152.876,148.52 154.07,147.193 154.995,145.408 C156.12,143.233 156.673,140.699 156.396,138.945 L154.995,139.121 C154.844,142.139 152.819,146.772 149.569,147.671 C149.381,147.74 149.186,147.79 148.991,147.803 C148.796,147.822 148.595,147.841 148.388,147.809 C145.772,147.784 143.163,145.433 141.623,143.025 C141.384,143.333 141.108,143.61 140.781,143.849 C140.649,143.956 140.511,144.044 140.372,144.132 C142.045,147.049 145.213,150.091 148.639,150.091 C148.815,150.091 148.985,150.072 149.161,150.053 C154.724,161.306 159.389,171.849 162.714,182.347 C165.047,189.733 164.801,198.604 163.117,195.863 C158.257,187.904 151.851,181.687 143.553,177.651 C144.194,175.218 143.264,172.358 140.863,169.504 C140.485,169.051 140.096,168.636 139.681,168.221 C139.599,168.46 139.499,168.668 139.348,168.863 C139.172,169.083 138.952,169.271 138.7,169.428 C140.039,171.119 140.982,173.005 141.051,174.797 C141.309,175.79 141.309,176.708 141.02,177.5 C139.756,180.87 133.432,182.397 129.201,182.227 C128.529,182.246 127.887,182.234 127.278,182.202 C127.699,182.881 128.013,183.623 128.114,184.409 C128.667,184.459 129.239,184.491 129.849,184.491 C134.325,184.491 140.096,183.032 142.554,179.744 C149.576,183.189 155.171,188.325 159.584,194.844 C161.124,197.126 157.559,199.968 156.761,200.037 C151.462,200.446 145.043,204.676 137.292,212.855 C134.941,211.818 131.804,211.843 128.29,212.956 C126.75,213.452 125.266,214.119 123.958,214.879 C124.354,215.263 124.688,215.696 124.92,216.187 C124.977,216.319 125.027,216.451 125.077,216.602 C127.774,215.168 131.2,214.144 134.124,214.408 C134.18,214.408 134.224,214.408 134.268,214.408 C135.419,214.527 136.481,214.854 137.386,215.445 C139.901,217.092 140.636,220.436 140.372,223.668 C140.838,223.404 141.296,223.228 141.755,223.184 C142.126,219.883 141.56,216.363 139.316,214.2 C147.457,205.632 153.976,201.634 158.678,202.325 C162.243,202.853 165.128,206.047 167.762,212.371 L167.869,212.333 C168.014,212.786 168.165,213.251 168.322,213.716 C168.322,213.836 168.322,213.936 168.334,214.049 L168.429,214.043 C177.902,245.023 175.124,290.222 172.402,334.441 C168.825,392.49 165.449,447.314 192.474,460.264 L193.656,458.271 C168.033,446.006 171.364,391.886 174.897,334.579 z" fill-opacity="0" stroke="#FFFFFF" stroke-width="0.25" stroke-miterlimit="10"/></a>
    <a class="orgaos" name="ureter" code="3"><path d="M196.934,459.336 C196.777,460.091 195.237,460.462 193.502,460.185 C191.767,459.89 190.484,459.047 190.629,458.299 C190.786,457.545 192.32,457.161 194.061,457.45 C195.803,457.74 197.085,458.576 196.934,459.336" fill="#000000"/></a>
    <a class="orgaos" name="ureter" code="3"><path d="M197.434,459.836 C197.277,460.591 195.737,460.962 194.002,460.685 C192.267,460.39 190.984,459.547 191.129,458.799 C191.286,458.045 192.82,457.661 194.561,457.95 C196.303,458.24 197.585,459.076 197.434,459.836 z" fill-opacity="0" stroke="#FFFFFF" stroke-width="0.25"/></a>
    <a class="orgaos" name="ureter" code="3"><path d="M242.234,457.947 C242.492,458.676 241.335,459.663 239.644,460.141 C237.959,460.625 236.382,460.418 236.124,459.701 C235.866,458.959 237.023,457.972 238.714,457.494 C240.392,457.004 241.97,457.224 242.234,457.947" fill="#000000"/></a>
    <a class="orgaos" name="ureter" code="3"><path d="M242.734,458.447 C242.992,459.176 241.835,460.163 240.144,460.641 C238.459,461.125 236.882,460.918 236.624,460.201 C236.366,459.459 237.523,458.472 239.214,457.994 C240.892,457.504 242.47,457.724 242.734,458.447 z" fill-opacity="0" stroke="#FFFFFF" stroke-width="0.25"/></a>
    <a class="orgaos" name="uretra" code="4"><path d="M216.498,555.311 C215.523,555.311 214.725,554.576 214.725,553.664 L214.725,497.627 C214.725,496.709 215.517,495.967 216.498,495.967 C217.478,495.967 218.264,496.709 218.264,497.627 L218.264,553.664 C218.264,554.57 217.472,555.311 216.498,555.311" fill="#000000"/></a>
    <a class="orgaos" name="uretra" code="4"><path d="M216.998,555.811 C216.023,555.811 215.225,555.076 215.225,554.164 L215.225,498.127 C215.225,497.209 216.017,496.467 216.998,496.467 C217.978,496.467 218.764,497.209 218.764,498.127 L218.764,554.164 C218.764,555.07 217.972,555.811 216.998,555.811 z" fill-opacity="0" stroke="#9A9A99" stroke-width="2"/></a>
    <a class="orgaos" name="rim" code="2"><path d="M291.765,154.796 C280.927,172.493 301.654,178.968 298.429,195.067 C296.851,203.038 360.476,252.99 345.275,137.716 C337.216,76.669 309.254,89.656 303.2,99.96 C292.84,117.625 297.919,144.738 291.765,154.796" fill="#E2E1E1"/></a>
    <a class="orgaos" name="rim" code="2"><path d="M297.932,174.322 C317.514,179.056 305.589,214.147 325.265,201.655 C340.403,192.043 339.869,183.393 337.348,169.544 C330.986,134.516 343.609,115.751 316.364,105.655 C294.43,86.834 317.231,148.296 293.029,150.622 C277.281,147.529 275.515,78.869 305.897,75.436 C360.231,69.295 381.491,185.468 348.525,216.001 C337.511,226.21 320.375,232.182 306.192,225.154 C293.355,218.799 271.278,171.965 297.932,174.322" fill="#D4D4D4"/></a>
    <a class="orgaos" name="rim" code="2"><path d="M324.291,209.425 C321.324,203.334 319.884,189.259 325.473,187.065 C331.068,184.877 341.579,195.388 344.54,201.473 C347.507,207.571 342.981,209.375 337.392,211.582 C331.803,213.769 327.246,215.511 324.291,209.425" fill="#B0B0B0"/></a>
    <a class="orgaos" name="rim" code="2"><path d="M340.894,152.734 C335.11,153.765 322.606,152.112 321.607,147.529 C320.601,142.959 331.483,137.182 337.26,136.17 C343.056,135.139 343.905,138.841 344.904,143.424 C345.904,148.007 346.696,151.716 340.894,152.734" fill="#B0B0B0"/></a>
    <a class="orgaos" name="rim" code="2"><path d="M339.435,127.752 C336.065,128.877 328.025,128.758 326.479,125.81 C324.932,122.849 330.471,118.178 333.834,117.059 C337.197,115.921 338.467,118.316 340.02,121.265 C341.566,124.219 342.798,126.614 339.435,127.752" fill="#B0B0B0"/></a>
    <a class="orgaos" name="rim" code="2"><path d="M346.47,168.759 C348.406,172.298 348.092,180.106 342.855,180.917 C337.618,181.715 329.459,175.208 327.51,171.657 C325.567,168.111 329.798,167.438 335.041,166.634 C340.271,165.848 344.527,165.207 346.47,168.759" fill="#B0B0B0"/></a>
    <a class="orgaos" name="rim" code="2"><path d="M345.376,161.529 C347.318,165.068 347.004,172.87 341.767,173.681 C336.531,174.485 328.365,167.973 326.422,164.433 C324.467,160.882 328.704,160.209 333.941,159.411 C339.171,158.606 343.427,157.99 345.376,161.529" fill="#B0B0B0"/></a>
    <a class="orgaos" name="ureter" code="3"><path d="M323.631,188.567 L324.995,187.995 C324.995,187.995 324.983,187.97 324.976,187.957 C327.862,187.436 332.501,190.623 336.311,194.539 L338.995,193.936 C334.563,189.095 328.459,184.594 323.914,185.87 C319.664,177.578 314.811,169.513 303.533,166.634 C301.892,166.219 300.126,165.905 298.202,165.722 C295.336,165.446 293.821,160.498 296.719,158.38 C298.448,157.104 300.245,155.947 302.1,154.916 C307.651,151.804 313.761,149.761 320.425,148.724 C321.776,151.351 325.982,152.885 330.408,153.621 L330.295,151.295 C326.347,150.553 322.939,149.183 322.531,147.328 C322.066,145.159 325.63,142.205 329.773,140.036 L329.647,137.528 C325.001,139.74 320.362,143.11 319.997,146.523 C314.157,147.41 308.726,149.057 303.709,151.471 C301.836,152.357 301.214,151.056 302.615,149.308 C308.412,142.022 313.202,133.938 315.993,121.573 C316.213,121.591 316.452,121.61 316.684,121.61 C320.023,121.61 324.128,119.498 327.485,117.021 L325.24,115.758 C321.462,118.354 317.137,120.177 315.1,118.995 C313.095,117.813 313.17,113.633 314.226,109.547 L312.001,108.283 C310.561,113.136 310.279,118.675 313.598,120.78 C309.788,137.986 301.968,146.737 292.947,156.814 C289.804,160.328 286.566,163.949 283.322,168.117 C282.838,168.733 282.367,169.349 281.889,169.984 C281.556,170.424 281.229,170.871 280.889,171.336 L280.902,171.336 C272.969,182.589 266.965,197.613 262.753,216.491 C254.449,253.833 254.279,301.559 254.134,343.66 C253.933,397.61 253.77,444.18 238.173,458.613 L239.977,460.185 C256.278,445.104 256.442,398.1 256.643,343.679 C256.787,301.673 256.957,254.065 265.211,216.938 C269.517,197.632 275.709,182.469 283.907,171.355 C284.894,170.022 287.025,168.18 287.025,168.18 C309.562,165.59 315.93,175.711 321.732,187.058 C319.256,189.29 318.602,193.81 318.885,198.399 L321.343,197.858 C321.198,193.766 321.82,190.026 323.631,188.567" fill="#000000"/></a>
    <a class="orgaos" name="ureter" code="3"><path d="M324.131,189.067 L325.495,188.495 C325.495,188.495 325.483,188.47 325.476,188.457 C328.362,187.936 333.001,191.123 336.811,195.039 L339.495,194.436 C335.063,189.595 328.959,185.094 324.414,186.37 C320.164,178.078 315.311,170.013 304.033,167.134 C302.392,166.719 300.626,166.405 298.702,166.222 C295.836,165.946 294.321,160.998 297.219,158.88 C298.948,157.604 300.745,156.447 302.6,155.416 C308.151,152.304 314.261,150.261 320.925,149.224 C322.276,151.851 326.482,153.385 330.908,154.121 L330.795,151.795 C326.847,151.053 323.439,149.683 323.031,147.828 C322.566,145.659 326.13,142.705 330.273,140.536 L330.147,138.028 C325.501,140.24 320.862,143.61 320.497,147.023 C314.657,147.91 309.226,149.557 304.209,151.971 C302.336,152.857 301.714,151.556 303.115,149.808 C308.912,142.522 313.702,134.438 316.493,122.073 C316.713,122.091 316.952,122.11 317.184,122.11 C320.523,122.11 324.628,119.998 327.985,117.521 L325.74,116.258 C321.962,118.854 317.637,120.677 315.6,119.495 C313.595,118.313 313.67,114.133 314.726,110.047 L312.501,108.783 C311.061,113.636 310.779,119.175 314.098,121.28 C310.288,138.486 302.468,147.237 293.447,157.314 C290.304,160.828 287.066,164.449 283.822,168.617 C283.338,169.233 282.867,169.849 282.389,170.484 C282.056,170.924 281.729,171.371 281.389,171.836 L281.402,171.836 C273.469,183.089 267.465,198.113 263.253,216.991 C254.949,254.333 254.779,302.059 254.634,344.16 C254.433,398.11 254.27,444.68 238.673,459.113 L240.477,460.685 C256.778,445.604 256.942,398.6 257.143,344.179 C257.287,302.173 257.457,254.565 265.711,217.438 C270.017,198.132 276.209,182.969 284.407,171.855 C285.394,170.522 287.525,168.68 287.525,168.68 C310.062,166.09 316.43,176.211 322.232,187.558 C319.756,189.79 319.102,194.31 319.385,198.899 L321.843,198.358 C321.698,194.266 322.32,190.526 324.131,189.067 z" fill-opacity="0" stroke="#ACACAC" stroke-width="0.25" stroke-miterlimit="10"/></a>
  </g>
</svg>
