<?xml version="1.0" encoding="UTF-8" standalone="no"?>
<svg id="svg-feminino" xmlns="http://www.w3.org/2000/svg" xmlns:xlink="http://www.w3.org/1999/xlink" xml:space="preserve" width="214.15341" height="172.87459" overflow="visible" viewBox="0 0 214.15341 172.87458">
  <defs>
    <linearGradient id="a" x1="281.74951" x2="275.38211" y1="150.5732" y2="120.0121" gradientTransform="translate(-239.20318 -113.7448)" gradientUnits="userSpaceOnUse">
      <stop offset="0" stop-color="#f47f45"/>
      <stop offset="1" stop-color="#b97957"/>
    </linearGradient>
    <linearGradient id="b" x1="323.58499" x2="358.66461" y1="211.3486" y2="211.3486" gradientTransform="translate(-239.20318 -113.7448)" gradientUnits="userSpaceOnUse">
      <stop offset=".0056" stop-color="#b97957"/>
      <stop offset=".5" stop-color="#f47f45"/>
      <stop offset="1" stop-color="#b97957"/>
    </linearGradient>
    <linearGradient xlink:href="#a" id="c" x1="281.74951" x2="275.38211" y1="150.5732" y2="120.0121" gradientTransform="translate(-234.21065 -108.74482)" gradientUnits="userSpaceOnUse"/>
    <linearGradient xlink:href="#b" id="d" x1="323.58499" x2="358.66461" y1="211.3486" y2="211.3486" gradientTransform="translate(-234.21065 -108.74482)" gradientUnits="userSpaceOnUse"/>
  </defs>
  <a class="orgaos" name="ovario" code="1"><path fill="#f47f45" d="M163.80635 44.15818c.056.47.182.953.383 1.455 1.361 3.4 5.567 5.162 8.712 6.416 7.35 2.933 30.195-3.252 24.302-14.721-2.026-3.959-8.771-3.926-12.534-3.805-5.094.173-9.092 2.14-13.99 3.473-3.457.941-7.353 3.416-6.873 7.182z"/></a>
  <a class="orgaos" name="tubas" code="1"><path fill="#ffa26b" d="M88.926362 99.69918c0 .006 8.657 18.088 7.634 35.908l-2.034 12.224s1.779 7.64-10.824 10.819l-6.431 1.779s2.105 12.036 18.337 4.585c0 0 1.145-3.813 5.342998-1.524 0 0 3.63 3.053 5.73199-1.722 0 0 3.344 6.205 8.723.828 9.611 13.117 29.285-3.563 19.354-2.547-9.931 1.019-14.771-8.404-14.771-8.404-5.859-3.057-4.078-25.968-4.078-25.968-1.017-10.442 3.314-15.028 3.314-15.028l7.128-14c1.315-3.501 1.973-7.146.326-10.601-1.675-3.527-3.744-4.334-1.248-8.075 2.641-3.963 5.103-8.126 7.018-12.52 2.05-4.713 2.755-9.587 3.418-14.639.537-4.117-.42-9.542 2.542-12.94 2.2-2.525 6.489-3.212 9.406-4.652 3.555-1.758 7.139-3.472 10.688-5.251 4.164-2.089 8.3-4.259 12.415-6.449 20.372-14.767 25.718-3.051 25.718-3.051.437 3.337-.173 6.793-2.452 9.378-1.568 1.787-5.329 4.601-7.838 3.476-.062.582-.056 1.228-.012 1.809 2.419.156 5.33-.198 7.328-1.607-.141.857-1.707 1.811-2.384 2.293-1.473 1.066-2.95 1.67-4.545 2.476.546.577.066.859 1.22.677 1.629-.256 3.649-1.27 4.921-2.296-.891 1.652-2.062 3.071-3.371 4.386.175.264.342.551.525.784 2.011-1.177 4.417-2.326 5.665-4.39-.229 1.075-.939 2.172-1.354 3.197-.616 1.558-1.954 2.924-2.323 4.562.532.174 1.029.482 1.551.711.46-.962 1.326-2.113 2.084-2.832-.517.808-.863 1.703-1.093 2.631-.286 1.206.247 1.083 1.294 1.453-.018-1.044.463-2.006 1.019-2.838.452-.687 1.633-1.89 1.764-2.695-.348 2.248-1.379 4.425-1.119 6.76.009.124 2.815-.326 3.123-.496-.186-.918.263-2.586.653-3.444.817-1.763.599 1.28 1.145 1.742.865-.896 1.794-.574 1.84-1.953.018-.462-.251-1.744 0-2.132 10.44-16.303 0-29.033 0-29.033-15.02-11.96900005-30.05 0-30.05 0-2.806 2.796-38.452 20.879-38.452 20.879-12.988 5.6-22.154-1.272-22.154-1.272-5.857-2.553-17.570988 0-17.570988 0-7.764 7.765-18.586 1.522-18.586 1.522-5.599-2.286-30.81-16.293-30.81-16.293-5.482-5.478-22.667004-10.697-22.667004-10.697-21.8989995 3.308-18.5869995 25.468-18.5869995 25.468 2.125 2.125 2.909 5.604 3.552 8.434.525 2.287.521 5.326 2.5200005 6.906-.178-1.475-.328-3.051-.435-4.579 1.425 1.678 2.847 4.565 3.057 6.767.881.136 1.804999.437 2.724999.255-.106-.342.01-.832-.177-1.209.304.277.703.372 1.031.705.727-.393 1.475-.608 2.189-.232.093-1.598-.74-3.253-.928-4.781 1.515-.928 2.771 1.91 3.714 2.735 1.805-1.944-.379-5.036-1.232-7.02.739.59 1.382 1.192 2.065 1.842.492-.792.861-1.801 1.24-2.627-1.05-1.141-1.896-1.852-2.735-3.193.271-.189.551-.812.889-1.013-.64-.476-1.242-1.107-1.669-1.681 2.317.802 4.604 2.955 7.326 2.471.182-.033.435-2.567.316-2.783-.466-.835-1.343-.681-2.287-.965-1.6-.496-3.235-1.076-4.672-1.943-1.696-1.012-3.511-2.563-4.268-4.459-1.021-14.516 12.729-8.401 12.729-8.401 12.429004 6.082 24.816004 12.263 37.276004 18.284 4.619 2.231 8.915 4.75 10.233 10.274 1.218 5.073 1.349 10.411 2.504 15.51 1.139 5.047 3.353 9.728 5.274 14.506.74 1.834 2.68 4.55 2.759 6.481.071 1.596-1.223 2.739-1.627 4.165-.409 1.459-.249 3.389-.245 4.901.009 3.617.858 6.431 2.402 9.652z"/></a>
  <a class="orgaos" name="miometrio" code="3"><path fill="#db5842" d="M115.40735 162.59518c9.611 13.117 29.285-3.563 19.354-2.547-9.931 1.019-14.771-8.404-14.771-8.404-5.859-3.057-4.078-25.968-4.078-25.968-1.017-10.442 3.314-15.028 3.314-15.028l7.128-14c2.298-2.51 1.453-8.361-.184-10.932-1.754-2.769-5.776-3.124-4.438-7.15 1.357-4.092 3.745-7.915 5.431-11.89 3.23-7.636 8.39-22.342-1.092-27.707-2.53-1.434-6.278-3.233-9.11-3.748-5.274-.978-10.416-.166-15.74199-.022-6.816998.182-13.372998 2.548-16.567998 8.912-3.318 6.62.085 14.473 2.381 20.819 1.426 3.924 3.156 7.7 4.139 11.778.387 1.593 1.177 4.182.326 5.756-1.094 1.994-3.71 2.69-4.787 5.103-1.838 4.1-.004 8.57 2.213 12.133 0 0 8.657 18.084 7.634 35.908l-2.034 12.224s1.779 7.64-10.824 10.819l-6.431 1.779s2.105 12.036 18.337 4.585c0 0 1.145-3.813 5.342998-1.524 0 0 3.63 3.053 5.73199-1.722.005-.001 3.348 6.204 8.727.826z"/></a>
  <a class="orgaos" name="tubas" id="2"><path fill="url(#c)" stroke="#666" stroke-width=".45840001" d="M22.650358 45.69418c1.805-1.944-.379-5.036-1.232-7.02.739.59 1.382 1.192 2.065 1.842.492-.792.861-1.801 1.24-2.627.076-.154-2.614-2.839-2.747-3.369.409-.106.741-.379.946-.756-.241-.322-.533-.598-.804-.898.764.143 1.406.455 2.206.501-1.471-1.064-3.175-1.824-4.558-3.018-2.701-2.324-4.995999-6.878-4.214-10.464.4-1.82 1.98-4.314 3.383-5.52 2.81-2.418 8.264-1.984 11.546-.871 3.781 1.281 7.294 3.225 10.719004 5.251 5.169 3.049 10.647 5.367 16.031 7.937 3.055 1.457 5.695 3.422 8.617 5.065 3.863 2.168 7.875 4.094 11.999 5.727 1.368.543 3.38 1.317 4.798.466 2.139-1.294-1.331-1.71-2.231-2.137-1.09-.515-2.226-.938-3.326-1.441-2.332-1.054-4.575-2.296-6.876-3.416-3.003-1.451-6.11-2.95-8.827-4.907-1.625-1.171-3.44-1.831-5.186-2.828-3.387-1.934-6.712-3.938-10.226-5.634-2.911-1.406-5.634-3.064-8.426004-4.733-1.929-1.161-3.841-2.361-5.875-3.341-2.174-1.049-4.763-1.764-7.176-1.876-8.324-.381-16.1019995 6.765-16.7339995 15.094-.188 2.502.43 5.034.786 7.497.375 2.63.73 5.257 1.6570005 7.764.674 1.825 1.385 3.703 2.194 5.472.712 1.562 1.524 3.016 1.694 4.767.881.136 1.804999.437 2.724999.255-.106-.342.01-.832-.177-1.209.304.277.703.372 1.031.705.727-.393 1.475-.608 2.189-.232.093-1.598-.74-3.253-.928-4.781 1.518-.929 2.773 1.909 3.717 2.735z"/></a>
  <a class="orgaos" name="utero" code="4"><path fill="url(#d)" stroke="#660" stroke-width=".45840001" d="M108.46035 149.86018c.32-1.208 1.916-2.654 1.849-3.827-.079-1.58-1.446.231-2.271.375-.024-.396-.067-.839-.024-1.242.13-1.131 1.139-2.174 1.616-3.188.454-.961.491-1.562.45-2.322-.083-1.264.573-3.147-.051-4.289-.243-.447-.883-.514-1.033-1.169-.14-.612.354-1.584.64-2.154.701-1.4 1.556-2.717.922-4.244-.289-.691-.692-1.142-.814-2.001-.142-.957.118-1.836.038-2.788-1.617.887-1.483-3.118-1.396-3.74.24-1.673.918-2.889 1.959-4.171.415-.515.952-1.08 1.122-1.732.207-.81.086-1.242.45-1.984.35-.725.35-.93.281-1.758-.034-.373-.152-.717-.099-1.092.043-.266.339-.474.359-.697.034-.474-.197-.847-.09-1.327.324-1.503 2.302-2.625 3.258-3.714 2.936-3.375 5.426-7.181 7.547-11.118 1.007-8.054-5.197-3.924-5.343-3.821-.658.44-4.933 11.118-7.034 6.779-1.21-2.502.128-6.854.514-9.475.654-4.463 3.158-7.982 5.427-11.748 2.464-4.1 4.48-8.456 5.525-13.146 1.051-4.704 2.658-9.4 2.068-14.301-1.025-8.61-13.616-1.925-18.292-1.777-4.16399.128-7.960988-3.258-12.068988-1.698-3.283 1.25-4.805 4.333-4.568 7.739.449 6.479 3.147 14.097 5.543 20.083 1.856 4.657 5.278998 8.464 7.247998 13.057 1.617 3.77.46 7.925 2.136 11.619.271.591-3.207.275-3.412.188-1.389998-.582-2.497998-1.915-3.297998-3.151-.981-1.526-1.43-4.238-3.393-4.765-1.635-.432-3.827.334-4.044 2.236-.188 1.597.581 2.893 1.353 4.198.958 1.609 1.353 2.816 2.925 3.936 1.591 1.147 1.884 2.02 2.097 3.87.182 1.629 1.458 2.185 2.411 3.413 1.101998 1.422 1.054998 2.186.824 3.801-.237 1.6 1.221998 1.787 1.640998 3.205.228.784-.203 1.6.018 2.342.227.752.984 1.086 1.546 1.556 1.061.871 1.449 2.089 1.425 3.424-.02 1.264-.87 2.711-.578 3.946.164.677.596 1.319.813 1.979.249.762.63199 1.602.52899 2.399-.106.918-.76499 1.234-1.17899 1.949-.701 1.193.148 3.655.193 5.123.058 1.838-.175 3.099.433 4.897.62599 1.858 1.69499 4.787 1.32899 6.76-.393-.539-2.13899-2.186-2.82999-1.672-1.129.845.549 2.37.991 2.899 1.49299 1.796 1.54599 4.479 1.53599 6.712-.016 2.992-.164 5.981.101 8.963.263-.474.504-1.098.837-1.481.081.626.974 1.461 1.467 1.878.045.045.045.047-.004.012-.75-.684-.711-3.304-.596-4.202.182-1.38.265-2.695.306-4.098.059-1.858.227-3.664.691-5.446z"/></a>
  <a class="orgaos" name="ovario" code="1"><path fill="#ffc06e" d="M39.424362 54.63718c3.238-.849 8.329-3.318 9.617-6.572 1.114-2.828-.428-5.8-2.502-7.668-4.289-3.863-11.708004-5.796-17.405004-5.435-3.541.223-7.684-.079-10.314 2.783-3.953999 4.295-.226 12.018 3.991 14.953 4.62 3.221 11.34 3.321 16.613004 1.939z"/></a>
  <path fill="none" stroke="#660" stroke-width=".45840001" d="M88.926362 99.69918c0 .006 8.657 18.088 7.634 35.908l-2.034 12.224s1.779 7.64-10.824 10.819l-6.431 1.779s2.105 12.036 18.337 4.585c0 0 1.145-3.813 5.342998-1.524 0 0 3.63 3.053 5.73199-1.722 0 0 3.344 6.205 8.723.828 9.611 13.117 29.285-3.563 19.354-2.547-9.931 1.019-14.771-8.404-14.771-8.404-5.859-3.057-4.078-25.968-4.078-25.968-1.017-10.442 3.314-15.028 3.314-15.028l7.128-14c1.315-3.501 1.973-7.146.326-10.601-1.675-3.527-3.744-4.334-1.248-8.075 2.641-3.963 5.103-8.126 7.018-12.52 2.05-4.713 2.755-9.587 3.418-14.639.537-4.117-.42-9.542 2.542-12.94 2.2-2.525 6.489-3.212 9.406-4.652 3.555-1.758 7.139-3.472 10.688-5.251 4.164-2.089 8.3-4.259 12.415-6.449 20.372-14.767 25.718-3.051 25.718-3.051.437 3.337-.173 6.793-2.452 9.378-1.568 1.787-5.329 4.601-7.838 3.476-.062.582-.056 1.228-.012 1.809 2.419.156 5.33-.198 7.328-1.607-.141.857-1.707 1.811-2.384 2.293-1.473 1.066-2.95 1.67-4.545 2.476.546.577.066.859 1.22.677 1.629-.256 3.649-1.27 4.921-2.296-.891 1.652-2.062 3.071-3.371 4.386.175.264.342.551.525.784 2.011-1.177 4.417-2.326 5.665-4.39-.229 1.075-.939 2.172-1.354 3.197-.616 1.558-1.954 2.924-2.323 4.562.532.174 1.029.482 1.551.711.46-.962 1.326-2.113 2.084-2.832-.517.808-.863 1.703-1.093 2.631-.286 1.206.247 1.083 1.294 1.453-.018-1.044.463-2.006 1.019-2.838.452-.687 1.633-1.89 1.764-2.695-.348 2.248-1.379 4.425-1.119 6.76.009.124 2.815-.326 3.123-.496-.186-.918.263-2.586.653-3.444.817-1.763.599 1.28 1.145 1.742.865-.896 1.794-.574 1.84-1.953.018-.462-.251-1.744 0-2.132 10.44-16.303 0-29.033 0-29.033-15.02-11.96900005-30.05 0-30.05 0-2.806 2.796-38.452 20.879-38.452 20.879-12.988 5.6-22.154-1.272-22.154-1.272-5.857-2.553-17.570988 0-17.570988 0-7.764 7.765-18.586 1.522-18.586 1.522-5.599-2.286-30.81-16.293-30.81-16.293-5.482-5.478-22.667004-10.697-22.667004-10.697-21.8989995 3.308-18.5869995 25.468-18.5869995 25.468 2.125 2.125 2.909 5.604 3.552 8.434.525 2.287.521 5.326 2.5200005 6.906-.178-1.475-.328-3.051-.435-4.579 1.425 1.678 2.847 4.565 3.057 6.767.881.136 1.804999.437 2.724999.255-.106-.342.01-.832-.177-1.209.304.277.703.372 1.031.705.727-.393 1.475-.608 2.189-.232.093-1.598-.74-3.253-.928-4.781 1.515-.928 2.771 1.91 3.714 2.735 1.805-1.944-.379-5.036-1.232-7.02.739.59 1.382 1.192 2.065 1.842.492-.792.861-1.801 1.24-2.627-1.05-1.141-1.896-1.852-2.735-3.193.271-.189.551-.812.889-1.013-.64-.476-1.242-1.107-1.669-1.681 2.317.802 4.604 2.955 7.326 2.471.182-.033.435-2.567.316-2.783-.466-.835-1.343-.681-2.287-.965-1.6-.496-3.235-1.076-4.672-1.943-1.696-1.012-3.511-2.563-4.268-4.459-1.021-14.516 12.729-8.401 12.729-8.401 12.429004 6.082 24.816004 12.263 37.276004 18.284 4.619 2.231 8.915 4.75 10.233 10.274 1.218 5.073 1.349 10.411 2.504 15.51 1.139 5.047 3.353 9.728 5.274 14.506.74 1.834 2.68 4.55 2.759 6.481.071 1.596-1.223 2.739-1.627 4.165-.409 1.459-.249 3.389-.245 4.901.009 3.617.858 6.431 2.402 9.652z"/>
</svg>